<?xml version="1.0" standalone="no"?>
<!DOCTYPE svg PUBLIC "-//W3C//DTD SVG 20010904//EN"
 "http://www.w3.org/TR/2001/REC-SVG-20010904/DTD/svg10.dtd">
<svg version="1.0" xmlns="http://www.w3.org/2000/svg"
 width="400.000000pt" height="400.000000pt" viewBox="0 0 400.000000 400.000000"
 preserveAspectRatio="xMidYMid meet">

<g transform="translate(0.000000,400.000000) scale(0.100000,-0.100000)"
fill="#000000" stroke="none">
<path d="M1054 3198 l-19 -23 23 19 c21 18 27 26 19 26 -2 0 -12 -10 -23 -22z"/>
<path d="M3010 3175 c13 -14 26 -25 28 -25 3 0 -5 11 -18 25 -13 14 -26 25
-28 25 -3 0 5 -11 18 -25z"/>
<path d="M942 3096 c-202 -211 -333 -450 -400 -730 -25 -102 -27 -128 -27
-326 0 -173 4 -232 19 -300 41 -191 115 -370 215 -522 31 -49 48 -84 45 -95
-5 -17 -5 -17 6 -1 8 13 8 23 -2 40 -20 37 -18 48 9 48 13 0 31 7 39 15 9 9
25 13 38 9 14 -3 27 1 35 10 12 14 72 16 490 16 262 0 535 1 607 1 128 1 133
0 260 -41 199 -66 314 -66 453 0 35 17 68 27 73 23 6 -3 8 -1 5 4 -4 6 1 17
10 24 12 10 14 10 9 2 -5 -10 12 -13 76 -15 46 0 88 -1 95 -1 6 0 9 -6 6 -14
-4 -11 4 -13 46 -10 42 2 51 0 51 -13 0 -13 8 -15 38 -12 20 3 34 1 31 -2 -4
-4 -3 -25 2 -47 7 -31 6 -48 -6 -71 -8 -17 -15 -37 -15 -44 0 -7 -48 -59 -107
-115 -60 -57 -85 -85 -58 -62 94 76 231 228 298 328 113 172 184 340 229 549
32 147 31 436 -1 586 -42 200 -121 388 -228 547 -46 69 -199 253 -210 253 -3
0 15 -23 39 -51 63 -74 117 -142 115 -149 0 -3 5 -23 11 -45 6 -21 8 -42 4
-45 -8 -6 -15 -28 -16 -52 0 -14 -9 -18 -34 -18 -21 0 -31 -4 -26 -11 4 -7 -3
-10 -17 -9 -56 5 -81 0 -76 -14 5 -12 -92 -14 -681 -15 -519 0 -688 3 -694 12
-6 9 -8 9 -8 0 0 -7 -8 -13 -19 -13 -13 0 -25 16 -41 51 -37 88 -55 99 -156
99 -107 0 -136 -13 -212 -94 l-57 -61 -112 3 c-94 2 -111 5 -106 17 4 12 -5
15 -46 15 -28 0 -51 5 -51 10 0 6 -11 10 -25 10 -19 0 -26 7 -31 28 -3 15 -9
36 -12 47 -18 60 18 130 124 243 47 51 84 92 81 92 -2 0 -41 -38 -85 -84z
m619 -246 c10 -6 26 -25 35 -43 27 -52 164 -390 164 -404 0 -26 -39 -88 -94
-152 -31 -36 -56 -74 -56 -85 0 -59 206 -306 340 -407 83 -63 274 -159 315
-159 26 0 40 11 91 73 33 39 73 88 88 109 48 65 50 65 313 -63 202 -98 201
-97 188 -187 -3 -26 -14 -72 -23 -102 -34 -112 -187 -218 -349 -242 -73 -11
-89 -10 -171 10 -215 53 -459 162 -607 272 -202 150 -453 447 -564 667 -124
246 -102 481 62 652 23 24 56 49 72 57 36 16 168 18 196 4z m556 -1576 c-3 -3
-12 -4 -19 -1 -8 3 -5 6 6 6 11 1 17 -2 13 -5z"/>
<path d="M652 713 c-22 -65 -39 -120 -37 -122 2 -1 43 11 92 28 48 17 72 28
53 24 -59 -10 -63 -9 -82 23 -18 31 -18 33 1 95 34 108 16 76 -27 -48z"/>
<path d="M2895 804 l-30 -26 33 22 c17 12 32 23 32 26 0 7 -4 5 -35 -22z"/>
</g>
</svg>
