<?xml version="1.0" standalone="no"?>
<!DOCTYPE svg PUBLIC "-//W3C//DTD SVG 20010904//EN"
 "http://www.w3.org/TR/2001/REC-SVG-20010904/DTD/svg10.dtd">
<svg version="1.0" xmlns="http://www.w3.org/2000/svg"
 width="826.000000pt" height="646.000000pt" viewBox="0 0 826.000000 646.000000"
 preserveAspectRatio="xMidYMid meet">

<g transform="translate(0.000000,646.000000) scale(0.100000,-0.100000)"
fill="#000000" stroke="none">
<path d="M1121 6192 c-8 -15 -7 -23 4 -32 23 -19 50 -8 50 20 0 32 -39 41 -54
12z"/>
<path d="M1096 6085 c-80 -28 -83 -63 -9 -91 61 -24 137 -84 153 -123 10 -25
10 -43 0 -90 -12 -57 -12 -59 25 -134 43 -88 43 -116 2 -212 -17 -39 -33 -62
-49 -68 -30 -11 -38 -25 -38 -73 0 -48 -15 -72 -61 -93 -25 -12 -38 -28 -54
-69 -11 -30 -28 -58 -39 -64 -30 -17 -92 7 -113 42 -23 40 -69 42 -84 4 -13
-35 -4 -59 32 -84 16 -12 29 -28 29 -37 0 -38 -58 -127 -115 -177 -77 -68 -98
-78 -139 -70 -46 8 -71 -1 -84 -32 -10 -20 -9 -31 3 -53 26 -52 62 -54 119 -8
23 19 69 48 103 66 75 40 86 51 144 154 34 59 55 86 80 98 66 33 76 33 94 -1
41 -79 145 -52 145 38 0 32 -29 73 -59 83 -19 7 16 72 94 175 35 45 69 100 74
121 18 65 13 139 -13 191 -13 26 -26 66 -29 89 -5 39 -3 42 22 45 20 2 26 8
26 28 0 20 -5 25 -26 25 -26 -1 -27 0 -31 90 -10 182 -88 271 -202 230z m-489
-1427 c-3 -7 -5 -2 -5 12 0 14 2 19 5 13 2 -7 2 -19 0 -25z"/>
<path d="M5230 5927 c-35 -13 -480 -200 -1215 -509 -334 -140 -504 -212 -970
-405 -154 -63 -231 -104 -297 -155 -81 -63 -121 -115 -189 -249 -38 -74 -73
-129 -95 -149 -46 -40 -207 -118 -584 -283 -290 -128 -357 -155 -460 -191 -25
-9 -61 -26 -80 -38 -19 -12 -52 -30 -73 -40 -35 -16 -37 -20 -37 -62 0 -24 11
-77 25 -118 14 -40 26 -75 27 -78 3 -23 -6 -39 -24 -42 -18 -2 -22 -9 -20 -29
2 -23 -4 -29 -38 -43 -22 -9 -49 -16 -59 -16 -28 0 -89 -73 -100 -122 -6 -24
-19 -68 -28 -98 -18 -54 -19 -55 -53 -52 -70 6 -97 -67 -30 -79 29 -5 31 -7
10 -9 -21 -2 -19 -4 10 -9 30 -5 36 -11 44 -44 8 -30 5 -47 -13 -91 -12 -30
-22 -62 -23 -73 -1 -47 16 -189 25 -200 5 -7 22 -13 38 -13 46 0 49 53 5 90
-22 17 -20 122 3 180 16 43 19 45 53 43 29 -2 35 1 33 15 -2 9 -4 22 -4 28 -1
7 -12 15 -26 18 -14 4 -32 17 -41 31 -15 23 -15 27 5 58 15 25 19 43 15 66 -6
26 -2 37 21 61 19 20 26 35 22 50 -3 12 4 41 18 69 25 48 72 81 118 81 13 0
39 8 58 18 36 18 36 18 58 -6 15 -17 28 -23 44 -19 124 31 227 68 227 82 0 5
141 66 313 134 171 68 335 134 362 147 112 49 283 106 335 111 47 5 76 -1 185
-38 128 -42 133 -43 265 -43 174 0 197 7 681 209 710 297 1565 653 1734 723
253 104 290 149 266 321 -39 273 -266 723 -384 760 -58 18 -121 21 -157 8z
m-264 -241 l21 -29 43 17 c23 9 43 16 44 14 30 -55 30 -85 0 -115 -10 -11 -16
-9 -28 9 -22 31 -20 20 5 -31 53 -110 95 -205 135 -309 41 -104 47 -142 23
-127 -5 4 -9 2 -9 -2 0 -9 -27 -21 -115 -54 -27 -10 -59 -23 -70 -29 -11 -5
-43 -18 -71 -29 -28 -11 -71 -29 -95 -40 -24 -10 -87 -36 -139 -56 -52 -21
-108 -43 -125 -51 -16 -7 -97 -40 -180 -74 -82 -34 -175 -72 -205 -84 -30 -13
-167 -70 -305 -127 -137 -57 -252 -107 -253 -111 -2 -5 -8 -6 -13 -2 -5 3 -9
0 -9 -7 0 -8 -3 -9 -9 -3 -8 8 -28 53 -133 294 -10 24 -22 40 -26 34 -4 -6
-65 -34 -137 -63 -71 -30 -161 -68 -200 -85 -38 -18 -86 -38 -105 -46 -19 -8
-68 -31 -108 -53 l-73 -38 -44 40 c-25 23 -48 41 -52 41 -5 0 -16 12 -26 26
-18 24 -18 25 3 59 49 79 120 119 472 265 l177 73 -29 57 -29 57 212 88 c117
48 271 112 342 142 72 30 137 56 145 58 8 2 38 13 65 25 68 29 116 50 140 59
11 5 173 69 360 144 l340 135 20 -21 c11 -12 29 -35 41 -51z m149 14 c-3 -5
-12 -10 -18 -10 -7 0 -6 4 3 10 19 12 23 12 15 0z m193 -846 c3 -33 2 -45 -6
-40 -6 4 -28 -2 -49 -13 -87 -44 -126 -61 -143 -61 -11 0 -21 -4 -24 -8 -3 -5
-38 -21 -78 -37 -40 -15 -77 -32 -82 -36 -6 -5 -16 -9 -24 -9 -8 0 -31 -10
-51 -22 -20 -13 -47 -24 -60 -26 -14 -2 -31 -11 -39 -20 -13 -16 -13 -15 -7 2
5 18 5 19 -12 4 -10 -9 -41 -24 -70 -34 -28 -10 -49 -22 -46 -27 3 -5 -4 -6
-17 -2 -14 5 -20 3 -16 -3 3 -6 -21 -19 -59 -32 -36 -12 -65 -26 -65 -31 0 -6
-8 -9 -17 -8 -10 2 -32 -5 -50 -14 -18 -9 -39 -17 -47 -17 -8 0 -51 -18 -95
-40 -44 -22 -85 -40 -91 -40 -16 0 -74 -31 -82 -44 -4 -6 -10 -7 -14 -4 -3 4
-19 1 -35 -8 -16 -8 -31 -14 -34 -14 -3 0 -21 -7 -41 -15 -20 -8 -43 -15 -51
-15 -7 0 -16 -6 -19 -14 -3 -8 -12 -17 -20 -20 -9 -3 -12 -1 -9 4 4 6 -10 1
-30 -10 -20 -11 -40 -18 -45 -15 -5 3 -11 1 -15 -5 -3 -5 -15 -10 -26 -10 -10
0 -19 -6 -20 -12 0 -12 -37 58 -38 75 -1 4 14 14 32 21 17 8 80 35 138 60 58
25 115 46 127 46 12 0 22 3 22 8 0 4 21 15 48 25 26 10 59 25 74 33 14 8 34
14 43 14 9 0 29 8 43 18 15 10 52 26 82 36 30 10 64 22 75 27 11 4 61 25 110
45 50 19 113 46 140 59 28 12 74 30 102 39 29 10 55 22 58 27 4 5 16 9 27 9
12 0 29 6 37 14 9 8 37 21 62 29 25 9 72 28 105 42 102 47 122 55 132 55 6 0
27 9 46 21 20 12 36 18 36 14 0 -3 14 2 30 12 17 9 30 22 30 27 0 6 5 5 11 -1
6 -6 14 -33 17 -59z m-2818 -543 c5 -11 10 -36 10 -55 0 -44 -20 -48 -55 -10
-29 31 -31 47 -9 68 21 21 41 20 54 -3z m-155 -81 c-3 -5 -11 -10 -17 -10 -6
0 -33 -13 -60 -30 -26 -16 -54 -30 -62 -30 -7 0 -83 -31 -169 -69 -159 -71
-404 -171 -429 -175 -7 -1 -19 -5 -25 -9 -7 -5 -18 -5 -23 -2 -11 7 25 45 41
45 4 0 11 9 14 20 4 13 15 20 31 20 13 0 24 4 24 8 0 5 57 32 128 59 158 63
151 61 242 85 41 11 80 24 86 29 6 5 29 11 50 13 21 2 68 16 104 30 77 30 73
29 65 16z m-857 -380 c1 -10 -15 -22 -45 -35 -26 -11 -50 -21 -54 -23 -4 -2
-12 11 -18 29 -13 37 -14 49 -3 31 7 -10 16 -9 48 2 46 18 68 16 72 -4z m-191
-70 c5 0 14 10 22 22 14 22 14 22 22 3 13 -33 10 -45 -10 -45 -11 0 -23 -5
-27 -11 -9 -15 -33 28 -33 56 0 18 1 18 9 -2 5 -13 13 -23 17 -23z m-329 -587
c-10 -2 -28 -2 -40 0 -13 2 -5 4 17 4 22 1 32 -1 23 -4z"/>
<path d="M7033 5754 c-7 -19 11 -39 26 -30 16 10 13 33 -4 40 -9 3 -18 -1 -22
-10z"/>
<path d="M7076 5681 c-11 -18 6 -42 28 -39 29 4 29 42 -1 46 -11 2 -24 -1 -27
-7z"/>
<path d="M7117 5603 c-12 -12 -7 -48 9 -72 14 -20 15 -30 4 -82 -13 -61 -60
-139 -83 -139 -7 0 -18 5 -25 12 -9 9 -18 9 -37 0 -35 -16 -29 -44 13 -56 20
-5 39 -20 47 -37 13 -25 12 -29 -14 -63 -19 -23 -27 -43 -24 -59 4 -18 -4 -30
-31 -51 -22 -16 -36 -36 -36 -49 -1 -30 -58 -92 -97 -105 -18 -6 -48 -8 -66
-5 -26 4 -40 -1 -64 -21 -17 -14 -43 -26 -57 -26 -36 0 -87 23 -110 49 -11 11
-27 21 -38 21 -16 0 -18 -8 -16 -64 2 -79 -11 -98 -61 -94 -33 3 -36 6 -42 41
-8 48 -29 71 -58 62 -48 -15 -46 -86 3 -118 28 -19 34 -41 14 -53 -7 -5 -59
-11 -116 -15 -84 -5 -109 -10 -133 -28 l-30 -22 -61 30 c-73 37 -100 39 -121
9 -9 -13 -43 -52 -76 -87 -34 -36 -61 -71 -61 -78 0 -7 -62 -93 -138 -191
-319 -409 -368 -471 -435 -552 -39 -47 -80 -93 -91 -103 -44 -37 -115 -65
-216 -86 -60 -12 -135 -36 -176 -55 -126 -60 -189 -131 -594 -671 -202 -269
-548 -730 -769 -1024 -221 -293 -407 -545 -413 -560 -5 -14 -11 -53 -11 -87
-2 -51 2 -67 27 -105 101 -152 415 -404 606 -484 95 -40 146 -43 213 -12 56
25 57 26 819 1044 446 594 779 1048 801 1090 79 151 81 164 82 403 1 142 5
225 13 243 17 41 170 260 348 502 86 116 181 247 212 292 31 45 62 82 68 83
14 0 94 102 94 120 0 7 11 28 25 46 32 42 32 62 -5 106 -30 36 -30 36 -7 42
12 3 47 6 77 6 134 1 272 34 310 75 33 35 76 33 131 -7 44 -32 76 -39 118 -24
16 6 21 5 17 -3 -12 -19 5 -52 31 -62 19 -7 32 -6 50 6 35 23 28 65 -15 86
l-32 17 53 48 c37 33 79 59 130 79 117 45 147 69 190 154 20 40 37 87 37 103
0 25 3 28 20 23 11 -4 20 -2 20 4 0 6 -7 11 -15 11 -19 0 -21 107 -3 211 13
84 3 119 -36 119 -40 0 -51 -33 -31 -86 16 -42 16 -46 -2 -71 -23 -33 -62 -94
-69 -110 -3 -6 -22 -23 -43 -36 -24 -16 -47 -45 -65 -81 -29 -60 -79 -105
-148 -136 -24 -10 -53 -32 -65 -49 -22 -29 -112 -71 -154 -71 -12 0 -35 10
-51 22 l-31 21 44 23 c52 27 69 29 69 9 0 -8 7 -15 15 -15 14 0 19 11 16 36
-2 15 52 34 98 34 58 0 108 41 143 117 16 35 42 83 58 105 26 36 30 50 30 108
0 55 4 74 25 104 14 20 31 49 38 64 19 37 30 205 15 220 -13 13 -51 16 -61 5z
m-1098 -982 l24 -18 -21 -23 c-19 -21 -25 -22 -49 -11 -22 10 -24 14 -12 22 7
5 23 9 33 9 18 0 18 1 1 20 -23 25 -8 26 24 1z m-57 -104 c-6 -7 -21 -29 -35
-49 -22 -33 -26 -36 -43 -23 -18 13 -17 15 13 58 25 35 30 47 20 57 -7 7 3 3
21 -9 22 -16 30 -27 24 -34z m-132 -110 c0 -13 -97 -163 -142 -219 -15 -18
-64 -82 -109 -143 -45 -60 -99 -131 -120 -156 -22 -26 -39 -51 -39 -55 0 -13
-80 -97 -86 -91 -3 3 11 28 31 56 20 28 34 55 31 60 -4 5 -3 11 1 13 12 5 66
91 66 105 0 7 2 11 5 9 2 -3 15 15 28 40 22 41 163 239 208 291 10 12 22 20
27 18 4 -3 18 8 31 23 13 16 30 26 37 24 9 -3 11 0 6 8 -5 9 -4 11 3 6 7 -4
12 -1 12 8 0 9 2 16 5 16 3 0 5 -6 5 -13z m-80 -48 c-7 -11 -14 -18 -17 -15
-3 3 0 12 7 21 18 21 23 19 10 -6z m-438 -651 c-7 -7 -12 -8 -12 -2 0 14 12
26 19 19 2 -3 -1 -11 -7 -17z m-53 -104 c43 -55 15 -82 -49 -49 -31 16 -39 42
-18 63 19 19 45 14 67 -14z m-414 -164 c-3 -5 -2 -10 3 -10 5 0 17 -19 27 -42
10 -24 24 -50 30 -58 28 -36 25 -51 -19 -98 -44 -48 -221 -272 -310 -395 -28
-37 -53 -67 -58 -67 -4 0 -8 -7 -8 -16 0 -9 -5 -12 -12 -8 -44 26 34 -41 153
-133 134 -103 139 -107 117 -120 -13 -7 -18 -13 -13 -13 6 0 1 -8 -11 -18 -11
-9 -58 -69 -105 -132 -135 -183 -187 -254 -196 -265 -5 -5 -64 -86 -133 -180
-68 -93 -136 -184 -150 -201 -14 -17 -50 -65 -80 -108 -30 -43 -82 -113 -115
-156 -33 -44 -76 -101 -95 -127 -19 -27 -41 -54 -47 -61 -7 -7 -13 -17 -13
-21 0 -4 -17 -26 -39 -48 -21 -23 -37 -44 -34 -46 2 -3 -2 -7 -10 -10 -15 -6
-133 76 -298 207 -67 53 -114 83 -124 80 -13 -5 -13 -8 1 -21 20 -20 13 -25
-35 -28 -40 -2 -40 -2 -35 29 4 23 3 27 -5 16 -15 -21 -25 -5 -11 19 6 13 16
19 23 15 7 -4 9 -4 5 1 -4 4 -3 16 2 26 8 14 4 25 -18 51 -54 62 -55 71 -17
114 20 22 33 45 30 52 -3 7 -1 11 4 8 11 -7 92 109 83 119 -4 5 -2 5 5 1 11
-6 46 43 48 66 0 3 4 10 9 15 6 5 6 2 1 -7 -8 -13 -7 -13 8 -1 9 7 17 19 17
25 0 7 11 23 25 36 14 13 25 31 25 41 0 9 12 27 28 39 15 12 20 18 12 14 -8
-3 1 8 20 25 19 18 28 29 20 26 -10 -4 -9 -2 3 8 9 8 17 19 17 24 0 6 17 28
38 49 20 21 28 31 18 23 -11 -8 4 18 34 56 55 73 79 101 65 76 -5 -10 -4 -12
4 -7 6 4 9 12 6 17 -4 5 8 26 24 46 17 21 126 166 242 321 l211 284 26 -24
c75 -67 49 -84 236 161 178 234 241 300 309 324 50 18 70 21 62 7z m205 -1106
c0 -1 -10 0 -22 3 -17 3 -19 2 -10 -5 12 -8 12 -13 1 -31 -8 -11 -18 -21 -22
-21 -5 0 -6 -7 -3 -16 3 -8 2 -13 -3 -10 -9 6 -51 -38 -51 -54 0 -5 -6 -13
-12 -17 -20 -12 -56 -58 -38 -48 8 5 -2 -9 -23 -31 -21 -21 -40 -49 -44 -62
-3 -12 -14 -27 -24 -33 -11 -5 -19 -17 -19 -25 0 -8 -4 -12 -10 -9 -5 3 -10 2
-10 -3 0 -5 -9 -19 -20 -32 -11 -13 -20 -29 -20 -37 0 -7 -4 -13 -8 -13 -5 0
-24 -19 -42 -42 -19 -23 -27 -38 -19 -33 8 4 3 -3 -11 -17 -34 -35 -45 -50
-53 -71 -4 -10 -11 -15 -17 -12 -5 3 -10 1 -10 -6 0 -18 -50 -80 -59 -74 -5 2
-6 -8 -4 -23 4 -21 2 -24 -6 -12 -9 13 -11 13 -11 -2 0 -9 -3 -18 -7 -20 -5
-1 -23 -23 -42 -47 -19 -25 -28 -41 -20 -36 8 5 -6 -13 -31 -38 -25 -26 -46
-52 -46 -57 -1 -6 -2 -14 -3 -20 0 -5 -7 -10 -13 -10 -17 0 -50 -59 -41 -73 3
-7 3 -9 -2 -5 -7 7 -74 -59 -75 -74 0 -4 -10 -17 -22 -29 -13 -12 -16 -18 -8
-14 8 4 -5 -14 -30 -40 -25 -26 -39 -44 -32 -40 11 6 12 3 3 -13 -6 -11 -20
-24 -31 -27 -11 -3 -20 -12 -20 -20 0 -7 -7 -21 -16 -29 -8 -9 -12 -21 -8 -27
4 -7 3 -9 -3 -6 -6 4 -13 -2 -16 -13 -4 -18 -9 -19 -34 -10 -15 6 -38 16 -50
22 -23 11 -23 11 -3 25 11 8 20 21 20 29 0 8 5 14 10 14 6 0 15 11 20 25 5 14
17 28 25 31 8 4 15 12 15 20 0 8 9 22 20 31 11 10 20 22 20 28 0 7 11 22 25
35 14 13 25 28 25 32 0 5 16 26 35 46 19 20 35 42 35 49 0 7 7 16 16 21 8 5
21 18 27 29 24 42 137 199 164 228 15 16 33 37 38 46 20 34 50 75 72 99 13 14
23 30 23 37 0 6 16 28 35 47 19 20 35 39 35 42 0 5 52 74 83 108 9 11 17 24
17 29 0 9 47 73 87 117 13 14 23 28 23 32 0 5 7 16 15 26 71 80 85 98 85 107
0 6 16 23 35 40 27 23 32 32 23 43 -7 7 12 -1 40 -19 29 -17 52 -33 52 -35z
m-686 -922 c3 -5 -1 -9 -9 -9 -8 0 -12 4 -9 9 3 4 7 8 9 8 2 0 6 -4 9 -8z
m-1030 -38 c5 -14 4 -15 -9 -4 -17 14 -19 20 -6 20 5 0 12 -7 15 -16z"/>
<path d="M7224 5485 c-4 -9 -2 -21 4 -27 16 -16 47 -5 47 17 0 26 -42 34 -51
10z"/>
<path d="M2623 5414 c-3 -8 -1 -20 5 -26 16 -16 42 -2 42 22 0 24 -38 28 -47
4z"/>
<path d="M2506 5325 c-20 -20 -20 -29 -1 -45 24 -20 57 -3 53 28 -4 32 -29 40
-52 17z m27 -10 c4 -8 3 -16 -1 -19 -4 -3 -9 4 -9 15 -2 23 3 25 10 4z"/>
<path d="M1610 5300 c0 -5 5 -10 10 -10 6 0 10 5 10 10 0 6 -4 10 -10 10 -5 0
-10 -4 -10 -10z"/>
<path d="M2365 5258 c-10 -6 -39 -27 -64 -45 -24 -19 -74 -49 -110 -68 -73
-37 -89 -52 -150 -142 -23 -35 -48 -63 -56 -63 -14 0 -45 26 -45 38 -3 62 -22
147 -36 163 -19 21 -54 25 -72 7 -22 -22 -12 -54 28 -93 46 -45 52 -83 22
-149 -15 -33 -26 -42 -67 -55 -58 -19 -65 -35 -58 -132 l6 -65 -59 -47 c-40
-32 -68 -47 -89 -47 -16 0 -43 -9 -60 -21 -64 -43 -107 -59 -216 -78 -63 -11
-147 -30 -188 -41 -94 -25 -138 -25 -176 0 -36 24 -63 25 -86 4 -19 -18 -15
-49 9 -60 29 -12 392 -15 446 -4 54 11 111 41 214 115 35 25 83 49 105 55 111
28 129 34 152 56 22 20 25 31 25 94 0 39 4 80 10 90 5 10 32 26 59 35 56 18
118 78 196 190 26 39 60 83 74 98 34 38 145 93 204 102 57 9 91 33 82 58 -8
20 -68 23 -100 5z"/>
<path d="M1710 5240 c-16 -30 4 -60 40 -60 36 0 56 30 40 60 -7 13 -21 20 -40
20 -19 0 -33 -7 -40 -20z m70 -12 c0 -13 -30 -42 -37 -35 -3 3 -3 17 1 31 4
17 11 23 21 20 8 -4 15 -10 15 -16z"/>
<path d="M6295 5131 c-6 -11 9 -23 19 -14 9 9 7 23 -3 23 -6 0 -12 -4 -16 -9z"/>
<path d="M6873 5054 c-7 -18 17 -38 31 -24 11 11 1 40 -14 40 -6 0 -13 -7 -17
-16z"/>
<path d="M6288 5009 c-25 -14 -24 -65 2 -79 14 -8 26 -8 40 0 27 14 27 65 1
80 -23 12 -22 12 -43 -1z m42 -39 c12 -7 10 -11 -10 -18 -29 -11 -40 -7 -40
14 0 16 27 18 50 4z"/>
<path d="M1780 4971 c0 -12 26 -32 33 -25 9 10 -4 34 -19 34 -8 0 -14 -4 -14
-9z"/>
<path d="M410 4709 c-9 -16 -8 -26 5 -45 31 -48 91 -12 67 40 -15 33 -56 35
-72 5z"/>
<path d="M1494 4592 c-34 -23 -14 -70 26 -57 24 8 28 50 4 59 -19 7 -17 7 -30
-2z"/>
<path d="M6724 3536 c-7 -19 3 -36 22 -36 10 0 14 8 12 22 -4 26 -26 36 -34
14z"/>
<path d="M6747 3458 c-2 -7 3 -35 11 -63 25 -85 19 -150 -21 -236 -43 -93 -60
-150 -51 -184 11 -46 -3 -74 -52 -97 -54 -27 -61 -48 -40 -119 8 -29 12 -57 8
-63 -3 -6 -5 -25 -3 -43 1 -17 -6 -57 -15 -88 -18 -56 -18 -60 3 -184 28 -158
45 -215 82 -272 62 -93 159 -145 327 -174 95 -16 164 -47 164 -72 0 -20 143
-423 148 -418 4 3 -59 195 -109 333 -23 62 -28 86 -20 96 9 10 7 15 -6 20 -13
5 -3 13 39 34 31 14 63 38 72 52 8 14 47 61 86 105 99 113 125 169 125 270 -1
70 -5 91 -39 170 -21 50 -40 92 -42 95 -8 7 -24 -23 -24 -46 0 -12 -7 -25 -16
-28 -8 -3 -12 -10 -9 -16 4 -6 -4 -27 -16 -48 -25 -40 -39 -53 -50 -46 -4 2
-21 -9 -37 -26 -36 -35 -96 -42 -118 -12 -9 13 -16 14 -24 5 -8 -7 -22 -8 -41
-3 -18 5 -41 5 -59 -1 -20 -7 -35 -7 -49 0 -11 6 -35 11 -54 11 -19 0 -40 7
-47 15 -7 8 -25 15 -40 15 -47 0 -93 40 -108 93 -8 27 -19 47 -27 47 -33 0
-47 79 -20 107 21 21 14 37 -18 41 -19 2 -27 9 -27 22 0 10 -5 22 -10 25 -14
9 -9 62 6 62 9 0 11 -11 9 -31 -4 -26 -4 -27 3 -6 5 15 26 33 57 50 49 24 50
26 50 70 0 25 6 55 13 67 17 31 62 52 87 42 11 -4 32 -8 48 -8 22 -1 27 3 27
24 0 40 -32 49 -86 25 -90 -39 -110 -21 -68 61 25 49 27 65 29 179 2 69 -2
133 -7 143 -10 20 -34 23 -41 5z m-97 -798 c0 -11 -2 -20 -4 -20 -2 0 -6 9 -9
20 -3 11 -1 20 4 20 5 0 9 -9 9 -20z"/>
<path d="M1145 3360 c-8 -14 3 -30 21 -30 8 0 14 9 14 20 0 21 -24 28 -35 10z"/>
<path d="M666 3153 c-3 -10 -7 -36 -10 -58 -4 -31 -2 -27 9 15 8 30 12 56 10
58 -2 2 -6 -5 -9 -15z"/>
<path d="M1945 3043 c-9 -48 -23 -99 -30 -113 -15 -30 -64 -300 -76 -420 -4
-47 -13 -116 -19 -155 -7 -38 -10 -110 -8 -160 5 -100 29 -161 90 -231 27 -31
176 -135 309 -216 25 -16 26 -18 28 -150 2 -73 7 -200 11 -283 7 -118 7 -93 4
122 -5 253 -4 272 13 282 10 6 12 11 6 11 -7 0 -13 5 -13 10 0 6 24 10 54 10
48 0 59 5 117 48 35 27 98 71 140 100 83 56 127 104 162 179 19 42 22 64 22
173 -1 171 -2 174 -67 109 -61 -59 -112 -85 -204 -99 -172 -28 -310 47 -387
209 -59 123 -31 261 75 377 71 77 114 104 168 104 58 0 86 23 55 46 -10 8 -24
14 -29 14 -6 0 -5 -4 3 -9 11 -7 9 -10 -8 -16 -13 -4 -25 -4 -28 -2 -3 3 -16
1 -30 -4 -18 -7 -41 -5 -78 5 -34 11 -61 13 -81 7 -50 -14 -131 -59 -138 -76
-13 -34 -7 -45 26 -45 30 0 30 -1 14 -18 -9 -10 -30 -59 -46 -107 -53 -158
-38 -256 52 -326 24 -18 51 -42 61 -53 11 -12 17 -14 17 -6 0 9 6 8 20 -5 11
-10 17 -22 13 -28 -3 -6 -1 -7 5 -3 6 3 26 -7 44 -22 63 -55 115 -75 203 -76
58 -1 89 4 114 17 19 9 39 17 45 17 6 0 22 9 36 20 55 43 62 7 8 -42 -31 -28
-93 -41 -193 -41 -74 0 -255 20 -297 33 -47 14 -132 106 -167 180 -31 67 -33
149 -7 285 10 50 24 121 31 159 15 73 13 86 -11 86 -8 0 -14 10 -14 24 0 33
10 57 21 50 5 -3 9 5 9 16 0 16 -4 20 -16 16 -14 -5 -15 0 -10 39 12 77 0 49
-19 -42z m-28 -612 c16 16 38 -98 23 -116 -18 -21 -40 -18 -40 5 0 10 -9 24
-20 30 -21 11 -25 43 -13 89 l6 24 17 -21 c11 -13 21 -17 27 -11z"/>
<path d="M6512 3070 c0 -14 2 -19 5 -12 2 6 2 18 0 25 -3 6 -5 1 -5 -13z"/>
<path d="M642 3030 c0 -14 2 -19 5 -12 2 6 2 18 0 25 -3 6 -5 1 -5 -13z"/>
<path d="M6970 3021 c0 -11 4 -22 9 -25 4 -3 6 6 3 19 -5 30 -12 33 -12 6z"/>
<path d="M6523 2985 c0 -27 2 -38 4 -22 2 15 2 37 0 50 -2 12 -4 0 -4 -28z"/>
<path d="M632 2980 c0 -14 2 -19 5 -12 2 6 2 18 0 25 -3 6 -5 1 -5 -13z"/>
<path d="M6818 2953 c7 -3 16 -2 19 1 4 3 -2 6 -13 5 -11 0 -14 -3 -6 -6z"/>
<path d="M622 2930 c0 -14 2 -19 5 -12 2 6 2 18 0 25 -3 6 -5 1 -5 -13z"/>
<path d="M6533 2895 c0 -22 2 -30 4 -17 2 12 2 30 0 40 -3 9 -5 -1 -4 -23z"/>
<path d="M612 2880 c0 -14 2 -19 5 -12 2 6 2 18 0 25 -3 6 -5 1 -5 -13z"/>
<path d="M6483 2835 c0 -27 2 -38 4 -22 2 15 2 37 0 50 -2 12 -4 0 -4 -28z"/>
<path d="M602 2820 c0 -14 2 -19 5 -12 2 6 2 18 0 25 -3 6 -5 1 -5 -13z"/>
<path d="M6542 2800 c0 -19 2 -27 5 -17 2 9 2 25 0 35 -3 9 -5 1 -5 -18z"/>
<path d="M785 2780 c4 -6 11 -8 16 -5 14 9 11 15 -7 15 -8 0 -12 -5 -9 -10z"/>
<path d="M592 2760 c0 -14 2 -19 5 -12 2 6 2 18 0 25 -3 6 -5 1 -5 -13z"/>
<path d="M6473 2740 c0 -25 2 -35 4 -22 2 12 2 32 0 45 -2 12 -4 2 -4 -23z"/>
<path d="M693 2744 c-13 -9 -23 -22 -23 -29 0 -6 -11 -25 -25 -41 -14 -16 -25
-32 -25 -36 0 -4 -13 -23 -30 -41 -60 -68 -100 -353 -66 -468 27 -93 83 -166
173 -226 44 -29 102 -62 129 -73 27 -12 65 -37 86 -57 l36 -35 2 -112 c1 -61
6 -172 10 -246 7 -109 8 -90 4 103 -4 208 -3 238 11 243 14 6 14 8 -1 19 -15
10 -11 13 27 19 24 4 54 9 67 10 12 1 32 12 45 23 12 11 64 47 116 79 109 69
158 113 198 181 27 47 28 52 28 188 -1 77 -4 148 -8 159 -7 17 -9 17 -27 -7
-11 -14 -20 -30 -20 -36 0 -6 -6 -11 -14 -11 -8 0 -17 -9 -21 -19 -8 -27 -72
-81 -88 -75 -7 2 -27 -2 -43 -11 -41 -21 -72 -19 -131 10 -55 28 -70 49 -52
71 15 19 4 44 -20 44 -12 0 -21 -9 -25 -24 -9 -35 -42 -43 -70 -17 -12 12 -34
21 -49 21 -19 0 -31 8 -42 30 -9 17 -23 30 -33 30 -10 0 -32 13 -50 29 -29 27
-32 35 -32 88 0 46 -4 62 -20 75 -16 15 -18 22 -8 49 7 20 21 34 40 41 24 8
29 15 26 37 -4 32 -41 39 -75 15z m-61 -311 c-5 -59 -10 -63 -11 -10 -1 26 3
47 7 47 4 0 6 -17 4 -37z"/>
<path d="M6552 2715 c0 -16 2 -22 5 -12 2 9 2 23 0 30 -3 6 -5 -1 -5 -18z"/>
<path d="M581 2704 c0 -11 3 -14 6 -6 3 7 2 16 -1 19 -3 4 -6 -2 -5 -13z"/>
<path d="M1067 2704 c-13 -13 -7 -42 10 -48 21 -8 36 6 31 30 -3 19 -29 30
-41 18z"/>
<path d="M6462 2650 c0 -19 2 -27 5 -17 2 9 2 25 0 35 -3 9 -5 1 -5 -18z"/>
<path d="M6561 2644 c0 -11 3 -14 6 -6 3 7 2 16 -1 19 -3 4 -6 -2 -5 -13z"/>
<path d="M1146 2632 c-3 -5 1 -9 9 -9 8 0 12 4 9 9 -3 4 -7 8 -9 8 -2 0 -6 -4
-9 -8z"/>
<path d="M1145 2600 c4 -6 11 -8 16 -5 14 9 11 15 -7 15 -8 0 -12 -5 -9 -10z"/>
<path d="M6452 2570 c0 -19 2 -27 5 -17 2 9 2 25 0 35 -3 9 -5 1 -5 -18z"/>
<path d="M6287 2523 c-14 -13 -6 -49 13 -61 29 -18 27 -70 -4 -81 -16 -7 -26
-22 -34 -53 -6 -25 -19 -51 -29 -60 -21 -18 -62 -33 -82 -29 -7 1 -24 -7 -36
-19 -17 -16 -30 -20 -45 -15 -13 4 -33 1 -47 -6 -30 -16 -56 -3 -62 32 -1 13
-8 27 -14 31 -18 11 -37 -12 -31 -36 7 -30 -29 -46 -102 -46 -45 0 -59 4 -79
24 -13 14 -32 26 -42 28 -20 4 -65 77 -58 95 2 6 -1 13 -7 15 -6 2 -17 22 -23
44 l-11 39 -23 -44 c-46 -88 -71 -170 -71 -231 0 -92 28 -152 130 -276 49 -60
90 -112 90 -115 0 -4 8 -9 18 -13 37 -13 94 -54 83 -60 -5 -4 -8 -13 -5 -21 3
-8 -4 -40 -16 -72 -42 -110 -131 -375 -128 -379 3 -3 147 390 163 444 7 26 79
62 123 62 57 0 223 50 266 80 52 35 99 88 125 138 40 80 86 357 63 385 -5 6
-20 48 -32 92 -12 44 -29 88 -38 98 -15 17 -43 23 -55 10z m42 -317 c-1 -21
-3 -25 -6 -11 -3 11 -9 25 -14 31 -5 7 -3 11 6 11 10 0 15 -10 14 -31z m-49
-310 c0 -2 -8 -10 -17 -17 -16 -13 -17 -12 -4 4 13 16 21 21 21 13z"/>
<path d="M6442 2500 c0 -14 2 -19 5 -12 2 6 2 18 0 25 -3 6 -5 1 -5 -13z"/>
<path d="M7056 2441 c-4 -7 -5 -15 -2 -18 9 -9 19 4 14 18 -4 11 -6 11 -12 0z"/>
<path d="M2343 1625 c0 -27 2 -38 4 -22 2 15 2 37 0 50 -2 12 -4 0 -4 -28z"/>
<path d="M973 1135 c0 -38 2 -53 4 -32 2 20 2 52 0 70 -2 17 -4 1 -4 -38z"/>
<path d="M5656 1185 c-9 -26 -7 -32 5 -12 6 10 9 21 6 23 -2 3 -7 -2 -11 -11z"/>
<path d="M7530 1051 c0 -5 -13 -14 -30 -20 -16 -5 -30 -15 -30 -20 0 -14 4
-14 44 3 27 11 36 11 57 0 40 -22 42 -16 6 16 -36 31 -47 36 -47 21z"/>
<path d="M7382 923 c-12 -19 -17 -33 -10 -31 13 4 43 57 36 63 -1 1 -13 -13
-26 -32z"/>
<path d="M7628 944 c-16 -8 -80 -32 -144 -53 -63 -22 -118 -41 -120 -44 -6 -6
52 6 156 31 47 12 103 25 124 29 27 6 41 15 47 31 7 19 5 22 -14 22 -12 -1
-34 -8 -49 -16z"/>
<path d="M7826 905 c-11 -8 -16 -15 -10 -15 5 0 18 7 28 15 11 8 16 15 10 15
-5 0 -18 -7 -28 -15z"/>
<path d="M5410 829 c-35 -30 -35 -37 2 -18 16 8 31 8 60 -1 51 -15 60 -6 16
16 -18 9 -35 20 -38 24 -3 4 -21 -5 -40 -21z"/>
<path d="M1043 766 c-56 -13 -55 -26 1 -26 27 0 48 -6 56 -16 8 -8 23 -20 34
-26 18 -10 17 -8 -4 19 -14 17 -29 37 -35 44 -8 12 -19 13 -52 5z"/>
<path d="M7285 773 c-39 -6 -58 -23 -24 -23 34 0 69 11 69 21 0 5 -3 8 -7 8
-5 -1 -21 -4 -38 -6z"/>
<path d="M2225 751 c-3 -11 -25 -36 -47 -56 -41 -35 -50 -57 -12 -31 25 18 79
94 71 102 -3 3 -8 -4 -12 -15z"/>
<path d="M2323 763 c-56 -5 -56 -23 0 -23 33 0 49 -6 67 -25 36 -38 43 -30 12
15 -15 21 -29 39 -32 38 -3 -1 -24 -3 -47 -5z"/>
<path d="M899 708 c-26 -27 -41 -48 -33 -48 12 0 91 88 83 93 -2 1 -25 -19
-50 -45z"/>
<path d="M5290 740 c0 -24 28 -40 72 -40 18 0 68 -11 111 -25 125 -40 179 -42
62 -2 -55 19 -126 46 -159 61 -70 31 -86 32 -86 6z"/>
<path d="M5570 754 c0 -14 41 -77 46 -71 3 2 -6 22 -21 42 -14 21 -25 34 -25
29z"/>
<path d="M5140 705 c14 -8 30 -14 35 -14 6 0 -1 6 -15 14 -14 8 -29 14 -35 14
-5 0 1 -6 15 -14z"/>
<path d="M7216 705 c4 -8 14 -15 23 -14 10 0 11 2 3 6 -6 2 -10 9 -6 14 3 5
-2 9 -10 9 -10 0 -13 -6 -10 -15z"/>
<path d="M1075 628 c-49 -5 -125 -7 -168 -6 -76 3 -99 -4 -54 -16 12 -3 67 -6
122 -6 55 0 120 -6 145 -14 57 -17 93 -6 88 26 -4 28 -13 29 -133 16z"/>
<path d="M2410 629 c-30 -4 -111 -8 -180 -9 -151 -2 -136 -18 17 -19 65 -1
119 -7 149 -17 59 -20 94 -12 94 20 0 30 -11 33 -80 25z"/>
<path d="M697 572 c-32 -6 -12 -27 33 -33 43 -6 136 8 126 18 -7 8 -136 19
-159 15z"/>
<path d="M1965 561 c-3 -5 0 -13 5 -16 16 -10 121 -10 150 0 24 7 24 8 5 16
-28 11 -153 11 -160 0z"/>
<path d="M5656 561 c5 -5 27 -12 49 -16 37 -6 39 -5 21 9 -21 17 -87 23 -70 7z"/>
<path d="M1340 544 c-25 -7 -55 -13 -67 -13 -27 -1 -40 -20 -22 -31 22 -14
-57 -23 -211 -24 -127 -1 -149 1 -174 18 -36 23 -291 62 -260 39 18 -13 18
-13 -1 -11 -35 5 -28 -16 9 -29 90 -31 420 -43 614 -23 115 12 217 37 234 58
11 13 10 14 -9 4 -26 -14 -46 -16 -38 -3 11 19 -30 27 -75 15z"/>
<path d="M2650 551 c-8 -5 -41 -14 -72 -21 -32 -6 -58 -16 -58 -21 0 -5 5 -9
12 -9 9 0 9 -3 1 -11 -17 -17 -301 -24 -348 -9 -22 7 -42 17 -46 21 -3 5 -63
17 -133 27 -102 14 -124 15 -109 4 16 -12 15 -13 -11 -6 -22 5 -28 4 -24 -7
28 -85 860 -74 886 12 4 11 2 12 -9 2 -13 -13 -58 -19 -46 -7 3 4 0 13 -8 20
-16 16 -15 16 -35 5z"/>
<path d="M5743 495 c0 -8 4 -15 9 -15 4 0 8 7 8 15 0 8 -4 15 -8 15 -5 0 -9
-7 -9 -15z"/>
</g>
</svg>
