<?xml version="1.0" standalone="no"?>
<!DOCTYPE svg PUBLIC "-//W3C//DTD SVG 20010904//EN"
 "http://www.w3.org/TR/2001/REC-SVG-20010904/DTD/svg10.dtd">
<svg version="1.0" xmlns="http://www.w3.org/2000/svg"
 width="1200.000000pt" height="1149.000000pt" viewBox="0 0 1200.000000 1149.000000"
 preserveAspectRatio="xMidYMid meet">

<g transform="translate(0.000000,1149.000000) scale(0.100000,-0.100000)"
fill="#000000" stroke="none">
<path d="M6295 10925 c-11 -2 -47 -7 -79 -10 -50 -6 -66 -13 -93 -40 -26 -26
-33 -41 -33 -73 0 -26 -8 -49 -22 -68 -22 -27 -23 -38 -23 -189 0 -160 0 -161
27 -193 l27 -32 -5 -193 c-2 -105 -9 -493 -14 -862 -14 -863 -23 -990 -81
-1126 -40 -92 -128 -198 -275 -329 -76 -69 -147 -135 -157 -147 -10 -13 -24
-23 -30 -23 -7 0 -42 24 -78 53 -37 28 -95 72 -129 97 -75 54 -160 156 -194
232 -52 117 -56 166 -66 801 -5 326 -12 714 -16 864 -6 244 -5 275 10 297 14
23 15 41 6 168 -16 218 -24 291 -38 315 -49 88 -577 115 -739 37 -46 -22 -54
-31 -64 -66 -6 -23 -9 -58 -7 -77 3 -20 -1 -58 -9 -86 -18 -68 -17 -265 1
-290 15 -21 15 -62 -10 -815 -19 -596 -32 -916 -39 -965 -15 -100 -63 -208
-130 -295 -53 -68 -77 -90 -189 -174 l-89 -67 -44 48 c-91 99 -160 223 -187
338 -9 39 -19 79 -22 90 -3 11 -9 191 -14 400 -5 209 -14 551 -21 760 -12 356
-11 382 5 414 15 28 17 49 11 145 -4 61 -14 126 -21 145 -8 18 -14 59 -14 91
0 81 -10 88 -156 101 -112 10 -395 6 -527 -8 -69 -7 -75 -14 -81 -111 -2 -38
-8 -78 -14 -88 -5 -11 -13 -69 -17 -129 -7 -103 -6 -113 15 -148 l22 -38 -1
-477 c-3 -712 -15 -1047 -40 -1150 -39 -154 -106 -262 -237 -378 -42 -38 -110
-100 -149 -137 l-72 -68 -32 36 c-44 50 -99 163 -115 238 -22 98 -25 178 -32
913 -6 632 -5 693 10 723 15 29 16 47 6 174 -24 301 -21 296 -159 298 -346 3
-529 -5 -558 -26 -12 -9 -19 -36 -25 -101 -17 -185 -20 -311 -8 -333 9 -17 8
-170 -5 -654 -21 -846 -27 -968 -57 -1041 -39 -97 -106 -185 -193 -255 -202
-163 -319 -322 -384 -517 -48 -146 -51 -204 -38 -1029 4 -275 9 -761 12 -1080
5 -595 11 -1141 20 -2020 11 -908 11 -917 68 -981 42 -49 92 -71 194 -89 169
-28 330 -36 732 -35 l406 1 3 -23 c2 -13 7 -27 11 -33 4 -5 15 -31 24 -56 27
-71 75 -111 145 -120 75 -10 1018 -32 1150 -27 l102 4 0 -58 c0 -31 4 -67 9
-80 12 -29 89 -111 117 -126 90 -47 836 -77 1554 -62 l245 5 5 -161 c5 -175 4
-170 75 -238 103 -99 248 -133 670 -157 318 -18 999 0 1190 32 139 23 263 77
322 140 39 42 47 79 52 244 4 98 10 159 16 159 200 -29 1101 -39 1370 -16 292
26 444 56 484 96 23 23 26 36 31 125 3 55 8 103 12 106 4 4 60 1 125 -6 180
-21 883 -19 1070 4 219 26 366 61 413 100 57 45 123 165 150 271 22 86 38 316
22 316 -6 0 -13 -4 -16 -8 -11 -18 -169 -52 -356 -77 -208 -28 -1367 -31
-1395 -3 -5 5 1 325 35 1858 5 245 12 523 16 618 l6 172 148 0 c109 0 149 3
152 13 3 6 -8 98 -23 202 -15 105 -28 206 -28 226 l-1 36 212 6 c334 11 448 9
454 -6 2 -7 -2 -69 -11 -138 -27 -214 -38 -320 -32 -326 8 -7 555 15 682 28
55 5 117 15 139 20 l38 10 -6 202 c-21 655 -35 796 -106 1092 -78 325 -103
404 -225 715 -63 159 -138 365 -168 457 -64 195 -150 537 -171 673 -8 52 -24
156 -35 230 -35 229 -71 876 -71 1261 0 141 2 159 20 182 19 23 19 32 10 153
-18 235 -25 291 -38 307 -27 32 -118 42 -382 42 -241 0 -258 -1 -302 -22 -51
-23 -54 -29 -62 -123 -3 -30 -10 -115 -17 -187 -11 -123 -11 -135 6 -166 17
-32 18 -56 12 -333 -6 -264 -14 -511 -31 -904 -3 -63 -17 -180 -31 -260 -47
-262 -89 -449 -189 -829 -7 -25 -16 -46 -21 -48 -6 -1 -20 15 -33 38 -31 54
-121 148 -212 223 -41 33 -76 64 -78 68 -2 4 -19 15 -38 24 -18 9 -32 20 -29
24 3 5 -3 11 -13 15 -11 3 -38 26 -61 50 -23 25 -46 45 -52 45 -5 0 -9 6 -9
14 0 8 -5 16 -11 18 -11 4 -51 93 -79 178 -30 93 -40 219 -50 691 -6 250 -15
587 -20 749 -13 387 -13 597 0 605 6 4 10 58 10 128 0 105 -3 126 -20 152 -15
22 -20 47 -20 93 0 56 -3 67 -28 92 -16 16 -46 33 -68 39 -169 45 -535 36
-656 -16 -45 -19 -65 -58 -67 -133 -1 -31 -8 -62 -17 -71 -20 -23 -20 -258 1
-299 12 -24 13 -68 5 -312 -5 -155 -19 -566 -30 -913 -13 -383 -26 -662 -35
-713 -15 -95 -58 -192 -112 -259 -21 -26 -85 -82 -143 -125 l-105 -78 -20 27
c-60 80 -130 156 -202 218 -278 240 -327 314 -368 548 -18 107 -23 263 -36
1236 l-10 763 25 37 c25 36 26 43 26 182 0 136 -2 146 -25 184 -15 25 -24 55
-25 81 0 51 -36 88 -100 104 -42 11 -569 23 -615 15z m-1965 -506 c0 -40 -4
-51 -24 -64 -31 -21 -54 -10 -58 28 -5 45 11 87 36 97 32 12 46 -7 46 -61z
m1840 -21 c0 -5 -11 -8 -25 -8 -14 0 -25 5 -25 10 0 6 7 10 15 10 8 0 15 6 15
13 0 13 20 -12 20 -25z m48 -173 c6 -191 5 -220 -3 -271 -7 -48 -6 -52 14 -59
25 -7 27 -20 6 -29 -13 -4 -15 -37 -15 -203 -1 -193 -4 -225 -33 -327 -12 -43
-36 -74 -38 -49 0 4 -2 17 -5 28 -20 95 -25 215 -22 584 3 403 4 414 23 422
11 4 31 7 45 6 25 -2 25 -3 28 -102z m-1902 7 c-5 -174 -4 -168 -32 -181 -55
-24 -60 -14 -54 118 3 66 7 122 10 125 11 10 55 23 66 19 8 -3 11 -32 10 -81z
m6214 -202 c12 -8 13 -11 1 -19 -9 -6 -10 -11 -2 -15 6 -4 11 -27 11 -50 0
-37 -4 -45 -22 -50 l-23 -7 25 -10 c13 -6 28 -15 32 -22 5 -7 8 -63 7 -124
l-2 -113 -66 0 c-98 1 -99 3 -102 154 -1 69 -5 129 -9 131 -3 2 -3 28 0 57 4
29 3 55 -1 56 -5 2 -7 8 -3 13 7 12 135 11 154 -1z m-465 -16 c21 -14 25 -24
25 -64 0 -41 -3 -50 -22 -56 -19 -6 -19 -7 -5 -16 14 -8 17 -27 17 -121 0
-124 -5 -137 -54 -137 -57 0 -60 7 -52 127 5 85 10 111 24 122 12 10 14 15 5
18 -8 3 -13 23 -13 51 0 35 6 52 23 69 27 27 23 26 52 7z m-5742 -121 c-3 -99
-11 -1202 -12 -1571 0 -98 -3 -124 -26 -187 -32 -87 -77 -147 -96 -128 -10 10
-10 36 0 130 15 152 29 481 30 751 1 117 4 279 6 360 17 531 27 738 37 749 6
7 23 13 38 13 l27 0 -4 -117z m191 -153 c-21 -8 -37 -3 -29 10 3 4 15 6 27 2
21 -5 21 -6 2 -12z m-14 -40 c0 -5 -6 -10 -14 -10 -8 0 -16 -7 -18 -15 -2 -10
-7 -12 -18 -5 -13 9 -12 12 4 25 23 17 46 20 46 5z m85 -21 c5 -6 3 -9 -7 -9
-9 0 -20 5 -23 10 -11 18 -22 2 -20 -30 1 -16 -2 -30 -7 -30 -10 0 -11 64 -1
73 8 8 43 -1 58 -14z m45 11 c0 -5 -4 -10 -10 -10 -5 0 -10 5 -10 10 0 6 5 10
10 10 6 0 10 -4 10 -10z m25 0 c3 -5 1 -10 -4 -10 -6 0 -11 5 -11 10 0 6 2 10
4 10 3 0 8 -4 11 -10z m-141 -113 c-8 -5 -12 -12 -9 -18 4 -5 3 -19 0 -30 -5
-15 -10 -18 -18 -10 -18 18 -29 13 -25 -11 2 -13 10 -23 18 -23 15 0 30 -13
30 -28 0 -4 -11 0 -25 9 -32 21 -52 9 -28 -18 10 -11 27 -24 38 -29 15 -7 11
-8 -17 -6 -21 2 -35 1 -33 -1 2 -3 0 -13 -6 -24 -16 -29 -4 -33 29 -9 39 27
44 27 36 -6 -7 -31 -24 -55 -24 -35 0 7 -4 12 -10 12 -5 0 -10 -9 -10 -20 0
-11 -7 -20 -16 -20 -8 0 -12 -5 -8 -11 3 -6 17 -9 30 -6 32 6 31 -11 -1 -19
-26 -6 -55 9 -55 30 0 6 -9 19 -20 29 -23 19 -25 39 -8 70 7 12 11 32 9 44 -1
14 7 28 23 39 15 9 26 26 26 38 0 21 50 80 50 60 0 -5 5 -1 11 10 9 15 13 16
20 5 5 -9 3 -17 -7 -22z m6001 -1 c42 -18 43 -23 9 -37 -24 -8 -25 -11 -11
-22 23 -17 35 -189 36 -532 1 -284 7 -504 17 -607 l5 -58 -65 0 c-35 0 -71 3
-80 6 -14 5 -16 58 -16 488 0 383 -3 498 -15 566 -21 117 -20 136 7 143 l21 6
-24 20 -24 20 25 10 c36 14 76 13 115 -3z m-429 -58 c-3 -35 -9 -317 -12 -628
l-6 -565 -47 -3 -47 -3 12 148 c7 81 15 184 19 228 3 44 5 168 3 275 -5 330
-3 574 4 593 5 12 19 17 44 17 l37 0 -7 -62z m-5506 -62 c0 -3 -4 -8 -10 -11
-5 -3 -10 -1 -10 4 0 6 5 11 10 11 6 0 10 -2 10 -4z m-30 -37 c0 -5 -4 -9 -10
-9 -5 0 -10 7 -10 16 0 8 5 12 10 9 6 -3 10 -10 10 -16z m0 -103 c0 -8 -4 -18
-10 -21 -5 -3 -10 0 -10 9 0 8 -6 17 -12 19 -7 3 -3 6 10 6 13 1 22 -5 22 -13z
m1620 -96 c0 -5 -2 -10 -4 -10 -3 0 -8 5 -11 10 -3 6 -1 10 4 10 6 0 11 -4 11
-10z m2133 -382 c-1 -53 -4 -63 -19 -63 -16 0 -18 8 -17 60 1 33 2 61 2 63 1
1 9 2 19 2 14 0 17 -9 15 -62z m67 30 l27 -32 -5 32 c-3 24 0 32 10 32 12 0
14 -11 10 -52 -2 -29 -6 -55 -9 -58 -2 -2 -15 9 -29 25 l-25 30 5 -32 c5 -28
-6 -43 -30 -43 -7 0 -4 116 3 123 11 11 15 9 43 -25z m-120 13 c0 -5 -7 -12
-16 -15 -13 -5 -15 -15 -11 -46 3 -22 1 -42 -3 -45 -8 -5 -19 103 -11 111 8 8
41 4 41 -5z m-1690 -126 c0 -8 -7 -15 -15 -15 -8 0 -15 7 -15 15 0 8 7 15 15
15 8 0 15 -7 15 -15z m-1530 -137 c0 -68 3 -180 7 -250 4 -93 3 -128 -6 -128
-7 0 -12 39 -13 123 -5 243 -3 377 5 377 4 0 7 -55 7 -122z m1144 -120 c-1
-70 -6 -146 -12 -170 -6 -24 -17 -72 -24 -106 -8 -43 -19 -67 -31 -74 -30 -15
-32 -2 -13 75 14 59 22 148 36 400 0 5 10 7 23 5 22 -3 22 -6 21 -130z m2216
-106 c0 -297 -16 -393 -69 -422 -28 -15 -50 -3 -68 39 -13 29 -17 74 -18 221
-1 102 0 231 2 287 5 115 0 110 96 112 l57 1 0 -238z m-3353 -209 c-3 -10 -5
-2 -5 17 0 19 2 27 5 18 2 -10 2 -26 0 -35z m10 -45 c-3 -8 -6 -5 -6 6 -1 11
2 17 5 13 3 -3 4 -12 1 -19z m-1167 -573 c0 -14 -8 -71 -17 -128 -21 -120 -22
-204 -5 -382 6 -71 17 -194 23 -272 l12 -141 30 -6 c38 -8 131 -8 302 1 l137
6 -5 39 c-5 35 -1 42 41 83 38 36 54 45 84 45 20 0 52 9 70 19 60 35 89 35
153 1 42 -22 66 -29 86 -25 23 5 36 -1 74 -36 44 -40 45 -44 39 -84 -4 -31 -2
-43 8 -47 7 -3 83 -6 168 -7 191 -3 202 -5 198 -40 l-3 -26 -202 4 c-112 2
-203 -1 -203 -5 1 -30 20 -34 210 -36 l195 -3 3 -128 c2 -102 0 -132 -13 -150
-8 -12 -15 -16 -15 -9 0 6 -7 12 -15 12 -14 0 -20 24 -16 59 2 7 -4 11 -11 9
-7 -3 -34 1 -60 8 l-48 12 0 -26 c0 -15 -4 -33 -9 -41 -7 -11 -12 -4 -20 25
-6 21 -11 45 -11 52 0 9 -7 11 -20 7 -14 -4 -22 -1 -27 10 -3 10 -17 29 -31
44 -14 14 -22 20 -18 14 4 -8 -2 -17 -19 -25 -15 -7 -24 -17 -21 -25 3 -8 2
-12 -3 -8 -5 3 -11 0 -13 -5 -2 -7 -14 -7 -36 1 -29 10 -36 9 -55 -8 -26 -22
-100 -59 -139 -68 -28 -7 -39 -25 -16 -25 11 0 128 -113 128 -124 0 -3 -10 -5
-22 -5 -13 1 -34 -2 -48 -5 -21 -5 -32 1 -62 36 -21 23 -38 46 -38 50 0 4 -7
5 -15 1 -14 -5 -14 -8 2 -25 30 -33 6 -53 -66 -56 -49 -2 -61 1 -61 13 0 8 -3
14 -8 12 -10 -3 -13 14 -6 37 6 18 8 18 25 -5 l19 -24 -9 27 c-9 23 -7 28 9
33 11 4 20 13 20 20 0 23 22 29 36 10 11 -15 16 -16 29 -5 24 20 18 40 -12 40
-23 0 -25 2 -13 11 12 8 11 9 -5 5 -11 -3 -26 -2 -34 3 -18 12 -41 3 -41 -15
0 -20 -37 -36 -78 -32 l-37 4 48 21 c45 21 64 53 32 53 -8 0 -15 -7 -15 -15 0
-8 -4 -15 -10 -15 -14 0 -13 13 3 29 10 10 8 15 -8 24 -33 19 -45 17 -45 -9 0
-27 -21 -32 -40 -9 -7 8 -18 15 -24 15 -6 0 -3 -7 7 -14 18 -14 14 -42 -9 -61
-27 -23 -23 -55 13 -98 19 -23 41 -50 49 -60 11 -13 19 -16 27 -8 8 6 27 7 48
2 20 -5 101 -9 180 -10 79 0 174 -4 210 -7 l67 -6 26 44 c41 71 69 92 108 83
18 -4 59 -8 91 -8 31 -1 57 -3 57 -6 0 -3 -23 -18 -50 -33 -29 -16 -60 -44
-73 -66 -27 -41 -62 -76 -52 -51 7 19 -85 25 -97 6 -5 -8 -8 -7 -8 6 0 9 -7
17 -15 17 -8 0 -15 -7 -15 -15 0 -22 -59 -55 -97 -55 -18 0 -33 -4 -33 -9 0
-4 56 -11 126 -15 69 -4 132 -10 141 -13 12 -5 15 -2 10 9 -4 11 8 27 35 48
l40 33 69 -12 c71 -13 89 -10 89 15 0 9 6 14 13 12 17 -6 24 -97 32 -469 4
-178 9 -327 12 -332 2 -4 2 -21 -2 -37 -5 -21 -11 -27 -22 -23 -13 5 -13 2 1
-25 9 -17 16 -49 16 -71 0 -41 -16 -65 -50 -76 -11 -3 -20 -10 -20 -15 0 -4
-9 -10 -19 -13 -15 -4 -21 2 -26 22 -14 63 -90 116 -209 143 -64 14 -77 29
-52 57 16 18 14 19 -31 30 -26 7 -78 15 -115 18 -89 8 -91 -12 -3 -21 36 -4
79 -9 95 -13 l30 -5 -28 -21 c-15 -12 -68 -58 -118 -103 -103 -92 -198 -144
-263 -144 -48 0 -51 10 -14 39 34 27 73 37 83 22 8 -15 129 76 130 98 0 11 -3
11 -15 1 -14 -12 -35 -6 -35 10 0 5 11 22 25 38 l25 30 -23 6 c-34 9 -97 7
-97 -3 0 -5 16 -26 35 -47 39 -44 42 -56 19 -78 -35 -36 -58 -30 -120 28 -32
31 -78 71 -101 89 -23 17 -40 38 -38 45 3 8 -6 12 -25 12 -31 0 -41 -17 -15
-26 8 -4 15 -14 15 -23 0 -12 -17 -22 -56 -34 -89 -28 -141 -54 -179 -94 -39
-40 -46 -59 -15 -43 14 7 20 7 20 0 0 -5 19 -10 43 -10 l43 0 19 58 c10 31 20
59 22 61 8 11 115 7 130 -4 17 -12 17 -15 0 -49 -9 -20 -25 -37 -34 -38 -10
-1 -25 -2 -33 -3 -33 -3 -90 -27 -90 -38 -1 -35 -140 -130 -140 -96 0 5 -5 9
-10 9 -6 0 -5 -8 2 -20 13 -20 38 -26 52 -12 4 4 22 8 39 9 18 0 33 2 34 2 1
1 -2 12 -7 26 -8 20 -6 27 10 35 28 15 40 12 40 -10 0 -11 5 -20 10 -20 6 0
10 -7 10 -15 0 -8 5 -15 10 -15 6 0 10 5 10 10 0 6 11 10 25 10 16 0 25 -6 25
-15 0 -11 7 -14 23 -10 12 3 41 -1 65 -9 41 -15 42 -15 42 7 0 26 32 49 55 41
8 -4 18 -17 21 -30 7 -28 8 -29 39 -8 14 9 25 12 25 6 0 -6 10 -22 23 -36 23
-25 24 -25 40 -6 15 18 27 22 54 19 4 0 10 7 13 16 3 9 9 15 12 13 3 -2 15 5
26 15 17 15 21 16 31 3 9 -11 10 -24 2 -53 -13 -47 -14 -53 -1 -53 6 0 10 6
10 14 0 24 30 46 54 40 14 -3 32 3 49 17 27 21 29 21 42 3 12 -16 14 -17 15
-3 0 12 7 15 24 12 20 -4 25 0 31 26 4 17 10 31 14 31 14 0 29 -23 24 -36 -9
-25 6 -64 26 -64 14 0 21 -10 25 -36 6 -30 10 -34 29 -28 12 4 26 13 30 20 4
8 14 14 22 14 8 0 18 14 22 30 8 29 9 30 31 14 13 -9 21 -22 18 -30 -7 -19 20
-29 38 -15 12 10 15 1 18 -51 2 -35 2 -71 0 -80 -4 -17 -41 -18 -596 -19 -325
-1 -616 -4 -646 -8 l-55 -6 62 -8 c34 -3 328 -10 652 -13 l591 -7 -3 -156 -2
-156 -227 4 c-341 5 -1065 -9 -1044 -21 11 -6 262 -12 647 -16 l629 -5 6 -23
c3 -13 3 -28 -1 -33 -4 -8 -221 -11 -693 -11 l-687 0 -2 -1398 c-1 -768 1
-1443 5 -1499 7 -98 6 -102 -14 -107 -11 -3 -90 -1 -175 4 -85 5 -162 10 -171
10 -10 0 -27 9 -38 20 -18 18 -20 33 -20 188 0 92 -4 374 -10 627 -22 994 -30
1405 -36 1778 l-7 387 -23 0 c-31 0 -32 14 -36 280 l-3 224 25 6 c37 9 39 69
4 152 l-27 63 -15 619 -15 619 24 71 c22 69 23 80 20 341 -2 166 2 302 9 354
31 229 158 431 349 559 35 23 67 42 72 42 5 0 9 -11 9 -25z m1810 -194 c0 -16
-11 -66 -24 -112 -23 -78 -33 -122 -56 -239 -11 -56 -13 -350 -2 -350 8 0 32
-81 35 -120 l2 -25 -91 1 c-139 1 -127 -26 -121 262 4 233 6 252 31 336 54
178 123 276 194 276 29 0 32 -3 32 -29z m3954 -217 c3 -8 2 -12 -4 -9 -6 3
-10 10 -10 16 0 14 7 11 14 -7z m-1505 -50 c17 -14 31 -30 31 -36 0 -5 10 -23
21 -40 17 -23 23 -52 30 -141 9 -129 13 -476 5 -484 -8 -9 -338 -24 -369 -17
l-28 6 3 297 c3 273 5 299 22 326 21 31 56 64 69 65 4 0 25 11 45 25 52 36
128 35 171 -1z m-4775 -736 c3 -7 7 -115 10 -240 l6 -228 -42 0 -43 0 5 -77 5
-78 37 2 36 1 6 -81 c3 -45 8 -217 11 -382 2 -165 7 -394 10 -510 10 -365 25
-1074 25 -1174 l0 -97 -412 -3 c-369 -2 -955 13 -968 26 -5 5 -18 478 -44
1623 -8 377 -18 805 -22 952 l-6 267 53 4 c30 2 341 4 692 5 503 2 638 -1 641
-10z m1636 -38 c0 -5 -5 -10 -11 -10 -5 0 -7 5 -4 10 3 6 8 10 11 10 2 0 4 -4
4 -10z m1130 0 c0 -6 10 -6 27 1 34 13 50 6 56 -23 4 -20 4 -20 6 5 1 31 8 34
27 10 13 -17 13 -17 14 0 0 10 4 16 9 13 4 -3 6 -17 3 -31 -3 -19 -8 -23 -15
-16 -16 16 -27 13 -21 -3 4 -11 -1 -14 -23 -13 -23 2 -27 7 -25 26 2 15 0 21
-7 17 -6 -4 -11 -13 -11 -20 0 -13 -50 -20 -50 -7 0 3 -3 16 -6 29 -4 13 -2
22 5 22 6 0 11 -4 11 -10z m185 -20 c-4 -12 -2 -20 5 -20 6 0 8 -4 5 -10 -14
-22 -35 -10 -35 20 0 21 5 30 16 30 11 0 14 -6 9 -20z m77 -28 c8 -9 7 -11 -6
-6 -10 4 -16 16 -15 33 1 20 2 22 6 6 3 -11 10 -26 15 -33z m-1557 8 c7 0 18
-7 25 -15 11 -13 8 -13 -21 -3 -42 14 -43 14 -33 29 6 10 9 10 12 1 2 -7 9
-12 17 -12z m3554 11 c21 -13 -59 -19 -331 -25 -227 -5 -271 -1 -231 23 22 13
542 14 562 2z m-7544 -21 c200 -16 575 -30 841 -30 l251 0 7 -197 c15 -437 26
-856 26 -993 l0 -145 -20 25 c-11 14 -63 96 -117 182 -58 94 -104 157 -112
155 -8 -1 -70 -85 -138 -187 -122 -180 -126 -185 -159 -184 -221 3 -226 3
-231 24 -4 14 -14 20 -32 20 -32 0 -42 -27 -66 -187 -18 -118 -15 -169 10
-159 8 3 15 0 15 -7 0 -7 1 -169 3 -362 3 -318 5 -354 23 -392 22 -51 49 -57
58 -13 6 33 26 41 26 11 0 -14 10 -20 38 -25 65 -10 74 -8 67 15 -5 15 -4 19
4 15 6 -4 11 -16 11 -27 0 -12 10 -23 25 -29 29 -11 33 -30 6 -30 -16 0 -19
-11 -25 -89 -3 -48 -4 -95 0 -105 5 -14 33 -16 238 -18 127 -1 247 0 268 1 20
1 39 -3 43 -8 4 -8 12 -8 26 0 36 19 51 -6 47 -75 -2 -49 0 -61 12 -61 13 0
15 -24 18 -146 2 -136 1 -147 -15 -145 -14 1 -19 -8 -21 -43 -3 -39 -1 -43 16
-39 18 5 20 -3 26 -119 4 -69 4 -128 1 -132 -4 -3 -194 -6 -423 -5 -327 0
-451 4 -575 18 -134 15 -338 54 -351 67 -3 2 -6 125 -8 272 -3 264 -3 268 17
262 36 -10 208 -33 296 -39 l85 -7 31 38 c17 22 32 54 35 76 4 37 4 37 -32 37
-81 0 -419 56 -435 72 -6 5 -13 687 -20 1892 l-5 839 47 -7 c27 -3 102 -10
168 -16z m5610 0 c3 -5 1 -10 -4 -10 -6 0 -11 5 -11 10 0 6 2 10 4 10 3 0 8
-4 11 -10z m1785 -41 c-108 -9 -442 -9 -380 1 25 4 140 7 255 7 162 0 191 -2
125 -8z m-2492 -86 c-16 -2 -40 -2 -55 0 -16 2 -3 4 27 4 30 0 43 -2 28 -4z
m2582 -266 c22 -2 25 -7 25 -37 l-1 -35 -99 -3 -99 -3 39 29 c22 16 46 36 54
46 10 12 22 15 35 11 12 -4 32 -8 46 -8z m-4950 -26 c0 -14 -6 -17 -25 -13
-36 6 -31 32 7 32 11 0 18 -7 18 -19z m0 -62 c0 -24 -4 -29 -25 -29 -21 0 -25
5 -25 29 0 24 4 29 25 29 21 0 25 -5 25 -29z m2460 -39 c0 -5 -4 -10 -9 -10
-6 0 -13 5 -16 10 -3 6 1 10 9 10 9 0 16 -4 16 -10z m3035 -50 c3 -5 -1 -10
-10 -10 -9 0 -13 5 -10 10 3 6 8 10 10 10 2 0 7 -4 10 -10z m65 -130 c0 -97
-3 -130 -12 -130 -10 0 -13 33 -13 130 0 97 3 130 13 130 9 0 12 -33 12 -130z
m-3095 101 c-3 -6 -11 -8 -17 -5 -6 4 -5 9 3 15 16 10 23 4 14 -10z m-20 -51
c3 -5 -3 -10 -14 -10 -11 0 -23 5 -26 10 -3 6 3 10 14 10 11 0 23 -4 26 -10z
m2062 -37 c14 -21 13 -24 -14 -49 l-28 -26 90 -84 c66 -62 85 -84 69 -84 -12
0 -52 33 -102 85 -46 47 -85 85 -89 85 -3 0 -3 -18 0 -40 3 -22 1 -40 -4 -40
-5 0 -9 38 -9 85 0 47 4 85 8 85 4 0 6 -16 4 -36 -4 -32 -2 -35 18 -32 34 5
50 36 28 52 -22 17 -23 28 -2 24 9 -2 23 -13 31 -25z m103 -41 c0 -40 5 -73
12 -80 7 -7 31 -12 55 -12 32 0 45 5 53 19 14 27 13 114 -2 129 -9 9 -7 12 10
12 21 0 23 -4 21 -52 -4 -95 -27 -127 -90 -128 -61 0 -83 26 -89 109 -5 63 -3
71 12 71 15 0 18 -10 18 -68z m250 60 c0 -5 19 -37 42 -71 l41 -62 24 23 25
23 -19 -32 c-10 -18 -23 -33 -30 -33 -7 0 -29 25 -50 55 -21 30 -41 54 -44 55
-9 0 -21 -99 -14 -110 3 -6 -3 -10 -14 -10 -19 0 -19 2 -7 38 7 20 16 58 20
85 4 26 11 47 17 47 5 0 9 -4 9 -8z m203 -89 c13 -66 12 -73 -2 -73 -11 0 -17
11 -18 37 -1 20 -5 48 -8 62 l-7 26 -19 -25 -20 -25 17 35 c24 50 38 67 42 49
1 -8 8 -47 15 -86z m112 12 c0 -61 -3 -85 -12 -85 -10 0 -13 24 -13 85 0 62 3
85 13 85 9 0 12 -23 12 -85z m92 58 c14 -20 13 -24 -11 -48 -14 -14 -35 -25
-48 -24 -22 1 -21 1 4 10 39 15 47 48 17 72 l-24 19 24 -3 c13 -2 30 -14 38
-26z m82 -58 c-1 -65 -5 -85 -15 -85 -11 0 -14 18 -12 85 2 61 7 85 16 85 9 0
12 -22 11 -85z m91 75 c0 -13 -11 -13 -30 0 -12 8 -11 10 8 10 12 0 22 -4 22
-10z m240 -80 c0 -57 -4 -80 -12 -80 -10 0 -12 21 -10 80 2 44 8 80 13 80 5 0
9 -36 9 -80z m150 65 c0 -8 -4 -15 -10 -15 -5 0 -10 7 -10 15 0 8 5 15 10 15
6 0 10 -7 10 -15z m69 -19 c0 -14 -2 -16 -6 -6 -3 8 -10 21 -16 28 -7 9 -6 11
7 6 9 -3 16 -16 15 -28z m-489 -46 c0 -13 -11 -13 -30 0 -12 8 -11 10 8 10 12
0 22 -4 22 -10z m508 -86 c34 -46 59 -84 55 -84 -5 0 -28 28 -53 61 -25 33
-57 71 -72 84 -32 27 -35 35 -10 28 9 -2 45 -43 80 -89z m-101 14 c-3 -8 -6
-5 -6 6 -1 11 2 17 5 13 3 -3 4 -12 1 -19z m-3372 2 c8 -13 -5 -13 -25 0 -13
8 -13 10 2 10 9 0 20 -4 23 -10z m2988 -7 c-7 -2 -19 -2 -25 0 -7 3 -2 5 12 5
14 0 19 -2 13 -5z m-2773 -72 c0 -14 -47 -145 -73 -203 l-26 -56 24 -6 c32 -8
53 2 57 26 4 30 32 45 52 29 14 -12 14 -16 1 -42 -8 -15 -15 -33 -15 -38 0
-20 28 1 40 29 26 62 64 62 62 0 0 -16 2 -30 4 -30 8 0 27 22 40 45 6 11 21
21 34 23 21 3 22 1 15 -36 -10 -60 9 -59 55 3 28 39 47 55 63 55 49 0 62 -48
26 -95 -18 -22 -27 -26 -51 -21 -26 5 -29 3 -26 -16 2 -12 8 -23 15 -25 15 -5
77 50 103 93 12 19 30 34 39 34 15 0 18 -9 17 -60 0 -33 -4 -60 -8 -60 -3 0
-15 11 -26 24 l-19 25 -43 -44 c-41 -42 -42 -45 -31 -73 15 -35 5 -59 -35 -91
-31 -25 -67 -27 -84 -6 -16 19 -6 56 25 93 33 39 23 76 -21 77 -19 0 -32 7
-39 21 -10 20 -13 21 -39 7 -15 -8 -37 -13 -47 -10 -11 3 -33 -1 -49 -9 -26
-13 -32 -13 -52 0 -13 8 -45 16 -73 18 -43 3 -50 1 -48 -15 0 -11 -4 -16 -12
-13 -7 2 -16 -2 -19 -10 -6 -15 -33 -18 -60 -8 -17 7 -23 74 -7 74 5 0 11 9
14 21 5 17 9 19 26 9 15 -7 27 -8 39 -1 9 6 13 11 8 11 -6 0 -3 6 6 13 18 13
58 134 58 173 0 23 14 54 35 80 10 12 45 1 45 -15z m750 -56 c50 -26 36 -62
-38 -99 l-32 -17 36 -31 c62 -55 68 -105 14 -133 -35 -18 -80 -19 -115 -3 -21
9 -31 9 -46 0 -10 -7 -22 -12 -25 -12 -13 0 7 79 41 168 19 50 35 97 35 103 0
8 -12 10 -35 6 -39 -6 -55 6 -28 22 28 16 159 13 193 -4z m-515 -95 c7 -12
-12 -50 -26 -50 -13 0 -22 27 -15 45 6 17 32 20 41 5z m243 -22 c-4 -29 -38
-38 -38 -10 0 22 8 32 27 32 9 0 13 -8 11 -22z m1547 -30 c0 -14 3 -30 8 -34
17 -17 5 -26 -13 -9 -18 16 -20 16 -20 2 0 -10 -4 -17 -10 -17 -5 0 -10 21
-10 46 0 41 2 45 23 42 16 -2 22 -10 22 -30z m55 -2 c0 -32 14 -55 27 -43 3 3
5 22 6 41 1 20 5 36 10 36 4 0 7 -16 5 -36 -4 -44 -28 -65 -52 -45 -17 15 -22
81 -6 81 6 0 10 -15 10 -34z m120 -5 c0 -22 -4 -43 -10 -46 -6 -4 -10 10 -10
34 0 22 -5 42 -12 44 -7 3 -3 6 10 6 19 1 22 -4 22 -38z m69 -3 l-2 -43 -6 35
c-7 33 -5 50 5 50 2 0 3 -19 3 -42z m66 22 c3 -5 1 -10 -4 -10 -6 0 -11 5 -11
10 0 6 2 10 4 10 3 0 8 -4 11 -10z m-1339 -13 c3 -8 1 -32 -5 -55 -11 -51 -2
-53 33 -7 29 37 73 71 82 63 2 -3 -12 -22 -31 -41 -21 -21 -35 -44 -33 -54 7
-35 38 -25 98 32 39 38 65 55 75 51 9 -3 15 -11 14 -18 -5 -42 2 -78 16 -78
21 0 19 -16 -2 -25 -12 -4 -22 0 -31 14 l-14 20 -29 -21 c-22 -16 -31 -19 -42
-10 -11 9 -22 9 -46 1 -25 -9 -38 -9 -56 1 -17 9 -28 9 -43 1 -29 -15 -52 -14
-52 4 0 8 4 15 10 15 11 0 36 77 28 86 -11 11 -70 -35 -86 -67 -19 -38 -61
-63 -87 -53 -39 15 9 134 53 134 9 0 23 -7 31 -14 15 -13 21 -12 56 9 48 28
54 29 61 12z m-2008 -59 c6 -23 9 -44 8 -46 -2 -2 -26 4 -52 12 -27 9 -58 15
-69 13 -14 -1 -21 5 -23 22 -5 31 12 41 74 41 l52 0 10 -42z m-590 -80 c-3
-20 -10 -23 -56 -26 -60 -4 -63 10 -8 34 48 21 68 18 64 -8z m470 -8 c23 -10
42 -24 42 -30 0 -5 -3 -10 -6 -10 -15 0 -104 44 -104 51 0 14 21 10 68 -11z
m-129 -6 c40 -20 31 -34 -20 -34 -64 0 -108 33 -56 43 40 8 43 7 76 -9z m1014
-61 c-7 -2 -19 -2 -25 0 -7 3 -2 5 12 5 14 0 19 -2 13 -5z m-483 -69 c0 -16
-16 -19 -25 -4 -8 13 4 32 16 25 5 -4 9 -13 9 -21z m445 8 c-3 -3 -11 0 -18 7
-9 10 -8 11 6 5 10 -3 15 -9 12 -12z m-4050 -137 c0 -28 -3 -30 -42 -33 -42
-3 -43 -2 -43 27 0 31 14 40 60 38 21 -2 25 -7 25 -32z m83 29 c18 -5 22 -13
20 -33 -3 -23 -7 -26 -43 -26 -38 0 -40 2 -43 33 -3 28 0 32 20 32 13 0 33 -3
46 -6z m-178 -44 c0 -15 -7 -20 -25 -20 -41 0 -30 37 13 39 6 1 12 -8 12 -19z
m248 -3 c2 -10 -3 -17 -12 -17 -18 0 -29 16 -21 31 9 14 29 6 33 -14z m4542
-26 c0 -5 3 -16 6 -25 3 -9 1 -16 -6 -16 -6 0 -8 5 -5 10 3 6 1 10 -4 10 -6 0
-11 7 -11 15 0 8 5 15 10 15 6 0 10 -4 10 -9z m-4698 -41 c-2 -14 -6 -27 -7
-29 -2 -2 -38 -5 -80 -7 -59 -3 -74 -1 -68 9 4 6 8 21 8 32 0 14 8 21 28 23
21 3 27 -1 27 -17 0 -11 -8 -25 -17 -30 -16 -9 -16 -10 5 -11 18 0 22 6 22 28
0 38 3 40 48 33 32 -6 37 -10 34 -31z m4648 10 c0 -31 -16 -41 -26 -15 -8 19
2 45 16 45 5 0 10 -13 10 -30z m-4550 -11 c0 -29 -2 -30 -37 -27 -33 3 -38 7
-41 31 -3 26 -1 27 37 27 39 0 41 -1 41 -31z m70 12 c0 -22 -25 -45 -40 -36
-5 3 -10 17 -10 31 0 19 5 24 25 24 18 0 25 -5 25 -19z m6377 -26 c9 -20 22
-34 29 -31 7 3 10 -3 7 -15 -8 -28 -21 -32 -28 -9 -3 11 -12 26 -19 33 -7 7
-17 23 -20 35 -12 36 13 26 31 -13z m77 -24 c1 -28 -2 -51 -6 -51 -5 0 -8 13
-8 29 0 17 -5 33 -10 36 -7 4 -6 13 1 26 15 29 21 18 23 -40z m94 4 c20 -44
12 -62 -8 -21 -23 45 -23 46 -12 46 5 0 14 -11 20 -25z m67 -15 c1 -22 -3 -40
-7 -40 -4 0 -8 18 -8 40 0 22 3 40 8 40 4 0 7 -18 7 -40z m81 0 c0 -22 -3 -40
-8 -40 -4 0 -8 18 -8 40 0 22 4 40 8 40 4 0 8 -18 8 -40z m34 -24 c-7 -7 -10
4 -9 30 1 39 1 39 10 9 5 -18 5 -33 -1 -39z m47 2 c-2 -13 -4 -3 -4 22 0 25 2
35 4 23 2 -13 2 -33 0 -45z m79 21 c1 -25 -1 -28 -8 -15 -5 10 -7 24 -4 32 8
21 11 17 12 -17z m-2340 -7 c-5 -9 -146 -5 -155 3 -2 3 33 5 78 5 45 0 80 -4
77 -8z m124 -8 c0 -2 -7 -4 -15 -4 -8 0 -15 4 -15 10 0 5 7 7 15 4 8 -4 15 -8
15 -10z m-4767 -19 c207 0 228 -2 233 -17 3 -10 3 -22 0 -27 -3 -4 -101 -9
-218 -11 -254 -3 -294 -5 -311 -17 -13 -10 -53 -29 -77 -36 -12 -4 -11 -6 3
-6 9 -1 17 -5 17 -11 0 -15 -27 -12 -44 5 -10 10 -32 14 -68 13 -37 -1 -43 -2
-18 -5 62 -6 80 -13 80 -30 0 -13 -3 -14 -12 -5 -21 21 -95 15 -118 -10 -23
-25 -26 -63 -7 -82 8 -9 11 -29 8 -57 l-5 -44 -7 40 c-3 22 -7 34 -8 27 0 -7
-6 -10 -12 -7 -6 4 -9 42 -8 96 1 49 -1 92 -5 96 -13 13 -5 51 12 55 9 2 62 1
117 -3 63 -4 105 -3 113 3 6 6 12 7 12 2 1 -5 7 3 16 18 13 24 18 27 47 20 17
-4 134 -7 260 -7z m6487 5 c0 -5 -4 -10 -10 -10 -5 0 -10 5 -10 10 0 6 5 10
10 10 6 0 10 -4 10 -10z m-1895 -60 c5 -8 11 -7 21 1 11 9 14 7 14 -15 0 -22
-4 -26 -30 -26 -25 0 -30 4 -30 25 0 26 14 33 25 15z m99 -32 c6 -5 3 -8 -10
-8 -18 0 -20 4 -16 28 5 22 7 24 10 7 2 -11 9 -23 16 -27z m-4779 -88 l0 -45
-50 0 c-49 0 -50 0 -53 33 -5 55 2 63 55 60 l48 -3 0 -45z m207 2 c-3 -35 -8
-41 -30 -44 -58 -7 -71 0 -69 40 2 36 3 37 47 42 25 3 47 5 50 4 3 -2 4 -20 2
-42z m6038 17 c0 -10 -4 -19 -10 -19 -5 0 -10 12 -10 26 0 14 4 23 10 19 6 -3
10 -15 10 -26z m49 -11 c-1 -24 -3 -35 -6 -25 -6 25 -23 21 -24 -5 -1 -19 -2
-20 -6 -4 -3 10 0 23 6 29 6 6 11 19 11 29 0 10 5 18 10 18 6 0 9 -19 9 -42z
m56 34 c-14 -10 -16 -65 -2 -74 8 -5 6 -8 -5 -8 -15 0 -18 9 -18 45 0 36 3 45
18 45 9 0 13 -3 7 -8z m58 -6 c6 -16 -2 -28 -14 -20 -12 7 -11 34 0 34 5 0 11
-6 14 -14z m115 -25 c3 -33 -9 -51 -35 -51 -9 0 -13 16 -13 46 0 41 2 45 23
42 17 -2 23 -11 25 -37z m82 -1 c0 -22 -2 -40 -4 -40 -2 0 -6 18 -8 40 -2 22
0 40 4 40 5 0 8 -18 8 -40z m70 25 c0 -8 -2 -15 -4 -15 -2 0 -6 7 -10 15 -3 8
-1 15 4 15 6 0 10 -7 10 -15z m85 -53 c-2 -3 -8 4 -12 14 -3 10 -11 22 -16 25
-5 4 -6 12 -2 19 5 8 12 2 22 -20 7 -18 11 -35 8 -38z m390 58 c3 -5 1 -10 -4
-10 -6 0 -11 5 -11 10 0 6 2 10 4 10 3 0 8 -4 11 -10z m-572 -73 c8 -6 7 -7
-3 -4 -10 2 -15 17 -16 43 -1 37 -1 38 3 4 3 -19 10 -39 16 -43z m-6858 -16
c-7 -6 -22 64 -16 74 3 6 9 -8 12 -30 4 -22 5 -42 4 -44z m-148 40 c-11 -29
-27 -33 -27 -6 0 11 23 32 37 35 1 0 -4 -13 -10 -29z m91 13 c22 -15 23 -21
19 -110 -2 -51 1 -98 6 -103 5 -5 -7 -11 -29 -15 -39 -8 -98 9 -88 25 3 5 8 7
12 5 4 -2 6 38 4 89 -2 87 -1 95 20 109 28 20 28 20 56 0z m7279 -21 c-3 -10
-5 -4 -5 12 0 17 2 24 5 18 2 -7 2 -21 0 -30z m-500 11 c3 -8 1 -20 -6 -27 -8
-8 -11 -8 -11 0 0 6 -3 18 -6 27 -3 9 -1 16 5 16 7 0 14 -7 18 -16z m215 -9
c-2 -14 -8 -25 -13 -25 -12 0 -11 7 1 31 14 26 18 24 12 -6z m60 -7 c-8 -8 -9
-4 -5 13 4 13 8 18 11 10 2 -7 -1 -18 -6 -23z m111 7 c-3 -9 -8 -14 -10 -11
-3 3 -2 9 2 15 9 16 15 13 8 -4z m357 -5 c0 -5 -2 -10 -4 -10 -3 0 -8 5 -11
10 -3 6 -1 10 4 10 6 0 11 -4 11 -10z m-7212 -50 c32 0 33 -1 30 -37 -4 -44
-28 -52 -39 -13 l-6 25 -12 -28 c-18 -45 -45 -32 -49 22 -3 41 -2 43 20 37 13
-3 38 -6 56 -6z m234 -45 c-2 -19 -8 -35 -12 -35 -11 0 -27 22 -33 45 -3 17
-6 15 -17 -13 -14 -38 -32 -38 -36 -1 -4 37 6 47 51 51 48 4 52 -1 47 -47z
m-472 10 c0 -8 -4 -17 -10 -20 -6 -4 -10 5 -10 20 0 15 4 24 10 20 6 -3 10
-12 10 -20z m4427 -1 c-3 -3 -12 -4 -19 -1 -8 3 -5 6 6 6 11 1 17 -2 13 -5z
m-4157 -68 c8 -2 -16 -4 -55 -5 -38 0 -65 3 -58 7 11 7 77 6 113 -2z m178 -3
c-15 -2 -42 -2 -60 0 -18 2 -6 4 27 4 33 0 48 -2 33 -4z m133 -115 c6 -11 9
-21 7 -23 -2 -2 -122 -7 -268 -10 -153 -5 -278 -12 -295 -19 -18 -6 -76 -10
-142 -8 l-113 3 0 30 0 30 130 -2 c90 -2 134 1 142 9 9 9 82 12 270 11 246 -2
259 -3 269 -21z m6264 -129 c-48 -10 -234 -10 -365 1 -71 5 -33 7 155 7 156 1
235 -2 210 -8z m154 -48 c33 -19 -304 -28 -522 -14 -101 6 -130 15 -89 27 26
8 595 -5 611 -13z m-2065 -36 c8 -30 22 -33 29 -5 3 11 11 20 19 20 10 0 13
-10 10 -35 -3 -22 0 -35 7 -35 7 0 19 16 27 35 8 19 18 35 23 35 10 0 44 -80
37 -87 -2 -2 -13 5 -24 17 -20 22 -20 22 -31 2 -11 -21 -48 -20 -63 2 -5 8 -8
7 -8 -1 0 -8 -13 -13 -29 -13 -28 0 -29 2 -28 45 2 49 21 61 31 20z m-5029
-14 c0 -18 -7 -26 -27 -32 -27 -7 -38 3 -18 16 6 3 10 15 10 26 0 14 6 19 18
17 10 -2 17 -12 17 -27z m5225 -6 c0 -29 4 -35 23 -36 21 -1 21 -1 -3 -8 -14
-4 -29 -6 -35 -4 -15 5 -13 83 3 83 7 0 12 -14 12 -35z m118 -7 c3 -36 2 -38
-27 -38 -30 0 -31 2 -31 41 0 38 1 40 28 37 23 -3 27 -8 30 -40z m65 35 c-26
-5 -31 -23 -8 -23 8 0 15 -4 15 -10 0 -5 -7 -10 -16 -10 -14 0 -14 -3 -4 -15
10 -12 9 -15 -6 -15 -15 0 -19 8 -19 40 0 38 1 40 30 39 24 -1 25 -3 8 -6z
m117 -9 c0 -13 -3 -14 -15 -4 -32 26 -63 -18 -33 -48 9 -9 9 -12 0 -12 -20 0
-34 38 -22 60 14 25 70 28 70 4z m0 -54 c0 -5 -5 -10 -11 -10 -5 0 -7 5 -4 10
3 6 8 10 11 10 2 0 4 -4 4 -10z m1412 5 c11 -4 13 -189 11 -1058 -3 -1743 -1
-1605 -18 -1619 -9 -7 -22 -19 -30 -25 -28 -26 -230 -8 -292 25 -33 18 -44 46
-47 115 -1 37 -7 62 -14 65 -7 2 -12 12 -12 23 0 10 -5 19 -11 19 -15 0 0 43
19 54 13 7 14 59 8 425 -4 229 -9 549 -11 711 -6 417 -14 863 -21 1083 l-6
187 205 0 c113 0 211 -2 219 -5z m-6482 -111 l0 -45 -42 3 c-43 3 -43 3 -46
46 l-3 42 45 0 46 0 0 -46z m0 -76 c0 -5 0 -17 0 -28 0 -17 -7 -20 -45 -20
-40 0 -45 2 -45 23 0 13 3 27 7 31 9 9 83 3 83 -6z m-190 -24 c0 -14 -4 -23
-9 -20 -5 3 -7 15 -4 26 7 28 13 25 13 -6z m-15 -54 c3 -5 -1 -10 -9 -10 -9 0
-16 5 -16 10 0 6 4 10 9 10 6 0 13 -4 16 -10z m4805 -67 c30 -17 32 -17 47 2
15 19 15 19 9 1 -4 -11 0 -26 10 -37 13 -15 20 -16 38 -6 11 7 23 14 26 17 18
18 53 31 62 22 7 -7 -2 -14 -25 -23 -27 -9 -37 -20 -46 -48 -6 -20 -8 -45 -6
-56 2 -11 6 -36 8 -55 3 -19 13 -72 22 -117 18 -82 19 -83 49 -83 17 0 40 -8
51 -17 l20 -16 -20 8 c-25 10 -51 10 -197 1 -79 -5 -118 -4 -123 3 -3 6 -15
11 -26 11 -15 0 -20 6 -17 23 2 17 11 23 43 27 57 8 70 18 52 38 -26 30 -30
61 -10 90 10 15 20 36 23 47 3 11 21 27 39 36 36 17 56 43 46 59 -10 16 -43
11 -54 -7 -13 -24 -25 -10 -12 15 9 16 5 22 -24 38 -19 10 -35 24 -35 31 0 17
12 16 50 -4z m220 -83 c8 -5 11 -12 8 -16 -4 -3 -14 1 -23 10 -18 17 -9 21 15
6z m-14 -40 c10 0 13 -9 10 -32 -2 -18 -4 -44 -5 -57 -1 -22 -5 -19 -31 23
-29 46 -30 48 -13 71 13 16 19 19 21 9 2 -8 10 -14 18 -14z m22 -164 c-4 -36
-19 -37 -31 -2 -7 21 -6 30 4 37 19 12 31 -4 27 -35z m-481 -221 c5 -14 7 -14
23 0 18 16 50 11 50 -8 0 -6 6 -3 13 6 11 16 14 16 35 2 18 -13 20 -20 12 -36
-12 -21 -50 -26 -50 -7 0 9 -3 9 -12 0 -15 -15 -45 -16 -50 -1 -3 9 -9 9 -25
1 -25 -14 -33 -7 -33 30 0 31 26 40 37 13z m180 -15 c1 -11 -4 -20 -10 -20 -7
0 -6 -4 3 -10 12 -8 12 -10 -5 -10 -16 0 -20 7 -20 30 0 34 30 43 32 10z m73
11 c0 -5 -8 -8 -17 -7 -12 1 -18 -6 -17 -21 0 -12 -3 -20 -8 -17 -10 6 -11 38
-1 47 9 10 43 8 43 -2z m53 -31 c3 -11 1 -20 -4 -20 -5 0 -9 6 -9 13 0 8 -4 7
-10 -3 -8 -12 -10 -11 -10 6 0 39 23 42 33 4z m114 8 c-3 -8 -6 -5 -6 6 -1 11
2 17 5 13 3 -3 4 -12 1 -19z m-167 -18 c0 -5 -4 -10 -10 -10 -5 0 -10 5 -10
10 0 6 5 10 10 10 6 0 10 -4 10 -10z m125 0 c3 -5 1 -10 -4 -10 -6 0 -11 5
-11 10 0 6 2 10 4 10 3 0 8 -4 11 -10z m-221 -30 c45 0 76 -4 70 -8 -19 -11
-244 -2 -244 10 0 7 16 9 46 4 26 -3 83 -6 128 -6z m-4 -41 c0 -5 -5 -7 -12
-3 -6 4 -8 3 -5 -4 8 -12 -2 -42 -14 -42 -5 0 -9 14 -9 30 0 23 4 30 20 30 11
0 20 -5 20 -11z m40 -8 c0 -5 3 -16 6 -24 4 -10 -2 -14 -20 -14 -14 0 -24 2
-22 6 1 3 6 14 9 24 7 18 27 24 27 8z m67 -3 c8 22 20 12 21 -18 0 -16 -4 -30
-9 -30 -5 0 -9 4 -9 9 0 5 -11 8 -25 5 -25 -4 -25 -4 -16 45 1 2 8 -3 18 -10
13 -11 17 -11 20 -1z m90 -10 c-3 -8 -6 -5 -6 6 -1 11 2 17 5 13 3 -3 4 -12 1
-19z m-32 -18 c3 -5 1 -10 -4 -10 -6 0 -11 5 -11 10 0 6 2 10 4 10 3 0 8 -4
11 -10z m-804 -96 c14 -4 16 -70 17 -627 1 -342 5 -796 8 -1009 l7 -388 -30 0
c-73 0 -73 2 -78 800 -3 388 -7 826 -10 973 l-5 268 38 -6 c20 -4 44 -9 53
-11z"/>
<path d="M4616 6734 c-9 -23 -2 -28 13 -10 7 8 8 17 3 20 -6 3 -13 -1 -16 -10z"/>
<path d="M4710 6683 c0 -12 5 -25 11 -28 19 -12 22 3 5 27 l-16 22 0 -21z"/>
<path d="M4641 6672 c-14 -26 -14 -42 -1 -42 11 0 25 48 17 56 -3 3 -10 -3
-16 -14z"/>
<path d="M4660 6625 c-10 -12 -10 -15 4 -15 9 0 16 7 16 15 0 8 -2 15 -4 15
-2 0 -9 -7 -16 -15z"/>
<path d="M4575 6620 c3 -5 8 -10 11 -10 2 0 4 5 4 10 0 6 -5 10 -11 10 -5 0
-7 -4 -4 -10z"/>
<path d="M4700 6590 c0 -5 5 -10 11 -10 5 0 7 5 4 10 -3 6 -8 10 -11 10 -2 0
-4 -4 -4 -10z"/>
<path d="M4183 6561 c-157 -9 -134 -21 40 -21 133 0 157 2 157 15 0 16 -5 16
-197 6z"/>
<path d="M4615 6475 c-33 -29 -51 -53 -52 -69 -2 -33 11 -26 87 43 30 28 58
51 63 51 4 0 7 5 7 10 0 6 -12 10 -27 10 -18 -1 -45 -16 -78 -45z"/>
<path d="M4481 6471 c-9 -6 -3 -10 18 -13 36 -5 38 -3 13 11 -10 5 -24 6 -31
2z"/>
<path d="M4735 6470 c-4 -6 7 -10 27 -10 25 0 29 3 18 10 -19 13 -37 13 -45 0z"/>
<path d="M4520 6406 c0 -9 5 -16 10 -16 6 0 10 4 10 9 0 6 -4 13 -10 16 -5 3
-10 -1 -10 -9z"/>
<path d="M4710 6405 c0 -8 5 -15 10 -15 6 0 10 7 10 15 0 8 -4 15 -10 15 -5 0
-10 -7 -10 -15z"/>
<path d="M4330 6390 c0 -5 5 -10 11 -10 5 0 7 5 4 10 -3 6 -8 10 -11 10 -2 0
-4 -4 -4 -10z"/>
<path d="M4595 6350 c3 -5 8 -10 11 -10 2 0 4 5 4 10 0 6 -5 10 -11 10 -5 0
-7 -4 -4 -10z"/>
<path d="M5220 6350 c0 -5 5 -10 10 -10 6 0 10 5 10 10 0 6 -4 10 -10 10 -5 0
-10 -4 -10 -10z"/>
<path d="M4280 6300 c0 -5 5 -10 11 -10 5 0 7 5 4 10 -3 6 -8 10 -11 10 -2 0
-4 -4 -4 -10z"/>
<path d="M4216 6255 c-4 -11 2 -15 26 -15 26 0 29 2 18 15 -7 8 -18 15 -25 15
-7 0 -15 -7 -19 -15z"/>
<path d="M4070 6250 c0 -5 5 -10 11 -10 5 0 7 5 4 10 -3 6 -8 10 -11 10 -2 0
-4 -4 -4 -10z"/>
<path d="M4128 6233 c6 -2 18 -2 25 0 6 3 1 5 -13 5 -14 0 -19 -2 -12 -5z"/>
<path d="M4050 6190 c8 -5 23 -10 32 -10 9 0 18 -5 20 -11 2 -6 11 -7 22 -3
18 7 18 8 0 21 -10 7 -34 13 -53 13 -27 0 -32 -3 -21 -10z"/>
<path d="M4110 6099 c0 -5 9 -9 20 -9 11 0 20 2 20 4 0 2 -9 6 -20 9 -11 3
-20 1 -20 -4z"/>
<path d="M4173 6093 c9 -2 15 -8 12 -13 -3 -5 3 -11 12 -14 10 -3 27 -19 38
-36 l20 -30 130 0 130 1 -40 16 c-43 18 -168 20 -173 3 -2 -5 -11 -6 -20 -3
-20 7 -72 60 -72 74 0 5 -12 8 -27 8 -18 -1 -21 -3 -10 -6z"/>
<path d="M4060 6082 c0 -5 7 -9 15 -9 8 0 12 4 9 9 -3 4 -9 8 -15 8 -5 0 -9
-4 -9 -8z"/>
<path d="M4520 6010 c0 -5 7 -10 15 -10 8 0 15 5 15 10 0 6 -7 10 -15 10 -8 0
-15 -4 -15 -10z"/>
<path d="M4048 5665 c2 -85 6 -155 11 -155 4 0 5 27 3 60 -3 37 0 65 7 74 9
11 9 16 0 22 -8 5 -10 29 -6 80 4 53 2 74 -6 74 -9 0 -11 -41 -9 -155z"/>
<path d="M4145 5795 c43 -42 29 -105 -28 -129 l-32 -13 26 -8 c19 -4 38 -26
64 -71 21 -35 44 -64 52 -64 13 0 -3 28 -70 124 -17 25 -18 31 -5 40 8 6 20
21 27 34 15 29 -1 87 -29 102 -30 16 -31 12 -5 -15z"/>
<path d="M4312 5685 c4 -124 17 -146 86 -147 58 -1 92 24 92 66 0 18 3 67 6
109 l7 77 -29 0 c-25 -1 -27 -3 -14 -13 13 -10 15 -29 10 -110 -6 -109 -11
-117 -71 -117 -61 0 -71 21 -67 139 2 79 0 101 -10 101 -11 0 -13 -22 -10
-105z"/>
<path d="M4560 5781 c0 -5 9 -7 20 -4 11 3 31 2 45 -1 25 -6 25 -7 25 -115 0
-78 -4 -111 -12 -114 -7 -3 1 -6 17 -6 l30 -1 0 117 0 118 28 3 c16 2 35 -2
43 -9 11 -9 14 -8 14 5 0 14 -15 16 -105 16 -58 0 -105 -4 -105 -9z"/>
<path d="M4828 5778 c16 -16 16 -210 0 -226 -9 -9 -7 -13 5 -18 34 -13 38 0
40 129 l2 127 -29 0 c-23 0 -27 -3 -18 -12z"/>
<path d="M4959 5777 c8 -11 12 -50 10 -129 -1 -85 2 -113 11 -113 9 0 12 26
11 103 -1 58 2 102 7 102 14 0 120 -144 135 -182 10 -28 22 -21 21 12 -2 47
-3 50 -15 48 -6 -2 -39 35 -73 82 -50 68 -68 86 -91 88 -25 3 -27 2 -16 -11z"/>
<path d="M5140 5718 c0 -39 2 -69 4 -67 9 10 14 139 6 139 -6 0 -10 -32 -10
-72z"/>
<path d="M5248 5670 c3 -77 0 -115 -8 -125 -10 -13 -8 -15 11 -15 24 0 24 0
24 125 0 104 -2 125 -15 125 -13 0 -14 -17 -12 -110z"/>
<path d="M4640 5421 c0 -29 48 -71 51 -43 0 4 2 17 5 30 3 18 0 23 -13 20 -10
-1 -24 1 -30 5 -9 6 -13 2 -13 -12z"/>
<path d="M4440 5400 c0 -33 15 -41 22 -12 6 21 -1 42 -13 42 -5 0 -9 -13 -9
-30z"/>
<path d="M4510 5405 c0 -14 5 -25 10 -25 6 0 10 11 10 25 0 14 -4 25 -10 25
-5 0 -10 -11 -10 -25z"/>
<path d="M4328 5412 c-10 -2 -18 -7 -18 -10 1 -16 19 -34 32 -30 21 5 7 44
-14 40z"/>
<path d="M4380 5414 c0 -7 27 -34 34 -34 13 0 5 28 -10 34 -19 7 -24 8 -24 0z"/>
<path d="M4720 5407 c0 -8 7 -21 16 -28 14 -11 15 -10 12 11 -3 26 -28 41 -28
17z"/>
<path d="M4770 5395 c0 -14 5 -25 10 -25 6 0 10 11 10 25 0 14 -4 25 -10 25
-5 0 -10 -11 -10 -25z"/>
<path d="M4827 5398 c-8 -27 5 -43 28 -34 21 8 16 50 -6 54 -10 2 -19 -6 -22
-20z"/>
<path d="M4888 5385 c-4 -17 -1 -25 8 -25 8 0 14 11 14 25 0 14 -4 25 -9 25
-5 0 -11 -11 -13 -25z"/>
<path d="M4254 5384 c3 -9 6 -21 6 -27 0 -8 3 -8 10 -1 12 12 3 44 -12 44 -6
0 -7 -7 -4 -16z"/>
<path d="M4190 5378 c0 -23 16 -39 32 -33 22 9 11 45 -13 45 -11 0 -19 -6 -19
-12z"/>
<path d="M4940 5374 c0 -8 5 -12 10 -9 6 3 10 10 10 16 0 5 -4 9 -10 9 -5 0
-10 -7 -10 -16z"/>
<path d="M4147 5350 c3 -11 12 -20 20 -20 11 0 11 4 3 20 -6 11 -15 20 -19 20
-5 0 -7 -9 -4 -20z"/>
<path d="M4070 5331 c0 -5 5 -13 10 -16 6 -3 10 -2 10 4 0 5 -4 13 -10 16 -5
3 -10 2 -10 -4z"/>
<path d="M4465 5290 c-15 -7 -10 -9 23 -9 23 -1 42 4 42 9 0 12 -37 12 -65 0z"/>
<path d="M4405 5280 c27 -12 35 -12 35 0 0 6 -12 10 -27 9 -25 0 -26 -1 -8 -9z"/>
<path d="M5257 5261 c3 -12 10 -21 15 -21 13 0 6 32 -9 37 -7 3 -9 -3 -6 -16z"/>
<path d="M4968 5253 c7 -3 16 -2 19 1 4 3 -2 6 -13 5 -11 0 -14 -3 -6 -6z"/>
<path d="M4070 5014 c0 -27 7 -29 31 -11 15 11 14 14 -7 24 -22 10 -24 9 -24
-13z"/>
<path d="M4500 4900 c0 -11 4 -20 9 -20 17 0 19 15 5 28 -12 11 -14 9 -14 -8z"/>
<path d="M4606 4574 c-9 -24 -7 -54 4 -54 6 0 10 16 10 35 0 38 -4 44 -14 19z"/>
<path d="M4490 4574 c0 -5 9 -17 20 -27 11 -9 20 -13 20 -8 0 4 -9 16 -20 26
-11 10 -20 14 -20 9z"/>
<path d="M4703 4550 c6 -16 15 -30 20 -30 5 0 6 6 3 13 -3 6 -9 20 -12 30 -4
9 -10 17 -14 17 -5 0 -3 -13 3 -30z"/>
<path d="M4740 4563 c1 -11 26 -43 34 -43 14 0 5 26 -14 38 -11 7 -20 9 -20 5z"/>
<path d="M2894 5930 c-48 -20 -41 -61 15 -90 32 -16 51 -37 51 -55 0 -3 -9 -9
-20 -15 -15 -8 -27 -7 -50 5 -16 9 -30 11 -30 6 0 -14 34 -31 63 -31 14 0 35
8 47 18 34 27 21 61 -35 95 -26 15 -45 33 -42 40 5 17 45 21 63 6 16 -13 33
-4 18 10 -15 15 -57 21 -80 11z"/>
<path d="M2202 5843 c1 -68 3 -75 5 -30 2 31 7 57 11 57 4 0 25 -28 47 -62
l40 -62 6 29 c11 52 10 155 -2 155 -7 0 -10 -21 -7 -60 1 -33 1 -60 -2 -60 -3
0 -23 27 -45 60 -22 33 -43 60 -47 60 -5 0 -7 -39 -6 -87z"/>
<path d="M2360 5825 c0 -48 4 -74 10 -70 6 3 10 35 10 70 0 35 -4 67 -10 70
-6 4 -10 -22 -10 -70z"/>
<path d="M2414 5886 c-3 -7 -4 -40 -2 -72 l3 -59 35 -2 c19 0 25 1 13 4 -40 8
-41 63 -2 74 21 6 22 7 3 8 -11 1 -23 4 -27 7 -11 11 5 34 24 34 10 0 19 5 19
10 0 15 -60 12 -66 -4z"/>
<path d="M2510 5890 c0 -5 9 -10 20 -10 18 0 20 -7 20 -66 0 -48 3 -65 13 -61
7 2 12 25 13 63 1 52 3 59 22 62 44 7 20 22 -33 22 -30 0 -55 -4 -55 -10z"/>
<path d="M2659 5871 c-25 -25 -30 -37 -25 -59 15 -62 88 -79 129 -31 36 44 14
99 -45 114 -22 6 -33 1 -59 -24z m85 -13 c9 -12 16 -30 16 -40 0 -19 -34 -58
-50 -58 -20 0 -50 41 -50 68 0 53 55 72 84 30z"/>
<path d="M3028 5893 c-1 -5 -2 -38 -3 -75 l-1 -68 50 0 c51 0 55 15 6 22 -34
4 -36 51 -2 56 30 5 28 22 -3 22 -16 0 -25 6 -25 15 0 10 10 15 30 15 17 0 30
5 30 10 0 11 -79 14 -82 3z"/>
<path d="M3140 5825 c0 -43 4 -75 10 -75 6 0 10 21 10 48 l1 47 48 -53 c26
-28 51 -49 54 -45 10 10 8 153 -2 153 -12 0 -21 -40 -15 -67 9 -36 -10 -27
-50 22 -21 25 -42 45 -47 45 -5 0 -9 -34 -9 -75z"/>
<path d="M3150 5370 c0 -5 5 -10 11 -10 5 0 7 5 4 10 -3 6 -8 10 -11 10 -2 0
-4 -4 -4 -10z"/>
<path d="M3350 5370 c0 -5 7 -10 16 -10 8 0 12 5 9 10 -3 6 -10 10 -16 10 -5
0 -9 -4 -9 -10z"/>
<path d="M3275 5340 c3 -5 8 -10 11 -10 2 0 4 5 4 10 0 6 -5 10 -11 10 -5 0
-7 -4 -4 -10z"/>
<path d="M3346 5264 c-5 -12 -2 -15 10 -10 8 3 18 6 20 6 2 0 4 5 4 10 0 16
-27 11 -34 -6z"/>
<path d="M3104 5206 c-10 -8 -16 -17 -12 -21 3 -4 16 3 27 14 24 24 15 28 -15
7z"/>
<path d="M3150 5189 c-13 -9 -13 -10 0 -6 34 9 41 -19 41 -158 0 -116 2 -135
16 -135 12 0 13 3 4 14 -7 8 -11 34 -9 57 3 40 5 43 35 45 38 3 53 -11 23 -21
-16 -5 -20 -15 -20 -51 0 -41 2 -44 28 -44 15 -1 48 -3 75 -5 l47 -4 0 37 c0
21 -5 43 -12 50 -8 8 -8 15 -2 21 11 12 5 111 -7 111 -17 0 -23 -32 -10 -52
12 -19 10 -20 -66 -14 -43 3 -82 5 -87 6 -5 0 -6 32 -4 70 5 61 3 72 -13 80
-22 12 -21 12 -39 -1z m200 -195 c0 -3 -7 -12 -15 -20 -8 -9 -15 -30 -15 -47
0 -42 -18 -22 -20 23 -1 19 -2 38 -1 43 1 8 51 10 51 1z"/>
<path d="M3240 5179 c0 -4 -3 -15 -6 -24 -6 -15 -4 -16 17 -3 13 7 27 18 31
23 5 7 14 6 27 -2 15 -10 20 -9 25 2 4 12 -4 15 -44 13 -28 -1 -50 -6 -50 -9z"/>
<path d="M3067 5143 c-10 -9 -7 -94 3 -118 10 -23 10 -20 13 68 2 54 -2 65
-16 50z"/>
<path d="M3114 5129 c-3 -6 -1 -16 5 -22 8 -8 11 -5 11 11 0 24 -5 28 -16 11z"/>
<path d="M3155 5127 c-4 -10 -5 -21 -1 -24 10 -10 18 4 13 24 -4 17 -4 17 -12
0z"/>
<path d="M3070 4934 c0 -19 4 -33 8 -30 8 5 4 66 -4 66 -2 0 -4 -16 -4 -36z"/>
<path d="M3020 4420 c0 -22 5 -40 10 -40 6 0 10 18 10 40 0 22 -4 40 -10 40
-5 0 -10 -18 -10 -40z"/>
<path d="M3117 4453 c-11 -10 -8 -73 3 -73 6 0 10 18 10 40 0 41 -2 45 -13 33z"/>
<path d="M3144 4434 c2 -16 4 -35 5 -42 0 -7 6 -10 11 -7 6 3 7 18 4 33 -9 39
-24 50 -20 16z"/>
<path d="M3206 4418 c1 -39 4 -43 28 -44 14 -1 26 3 26 8 0 5 -7 8 -16 6 -10
-2 -19 3 -21 10 -3 6 2 12 11 12 9 0 16 5 16 10 0 6 -5 9 -12 8 -7 -2 -12 3
-13 11 0 8 -4 16 -10 18 -6 2 -10 -15 -9 -39z"/>
<path d="M3300 4441 c-15 -30 -12 -49 10 -61 19 -10 19 -9 8 15 -9 21 -9 31 0
46 7 11 8 19 2 19 -5 0 -14 -9 -20 -19z"/>
<path d="M3345 4450 c4 -6 11 -8 16 -5 14 9 11 15 -7 15 -8 0 -12 -5 -9 -10z"/>
<path d="M2953 4415 c6 -19 14 -35 18 -35 9 0 -9 58 -21 65 -4 3 -3 -11 3 -30z"/>
<path d="M3350 4385 c-8 -9 -8 -15 -2 -15 12 0 26 19 19 26 -2 2 -10 -2 -17
-11z"/>
<path d="M3066 3782 c-3 -5 1 -9 9 -9 8 0 12 4 9 9 -3 4 -7 8 -9 8 -2 0 -6 -4
-9 -8z"/>
<path d="M3133 3779 c-16 -16 -5 -39 19 -39 14 0 19 6 16 22 -4 25 -19 33 -35
17z m23 -26 c-10 -10 -19 5 -10 18 6 11 8 11 12 0 2 -7 1 -15 -2 -18z"/>
<path d="M3208 3766 c-3 -16 0 -27 9 -30 23 -9 26 -7 14 8 -8 10 -9 16 -1 21
15 9 12 25 -4 25 -7 0 -16 -11 -18 -24z"/>
<path d="M2922 3760 c0 -14 2 -19 5 -12 2 6 2 18 0 25 -3 6 -5 1 -5 -13z"/>
<path d="M2990 3764 c0 -8 4 -13 9 -10 5 4 12 0 14 -6 4 -8 6 -7 6 3 1 9 -6
19 -14 23 -9 3 -15 0 -15 -10z"/>
<path d="M3273 3763 c-3 -10 -8 -22 -11 -28 -3 -5 1 -5 8 2 7 6 18 9 25 6 10
-3 12 2 8 16 -7 26 -21 27 -30 4z"/>
<path d="M3075 3750 c-16 -7 -17 -9 -3 -9 9 -1 20 4 23 9 7 11 7 11 -20 0z"/>
<path d="M3376 3697 c11 -37 17 -37 28 -2 5 16 1 21 -14 22 -17 2 -20 -2 -14
-20z"/>
<path d="M2700 3701 c0 -5 7 -12 16 -15 14 -5 15 -4 4 9 -14 17 -20 19 -20 6z"/>
<path d="M2882 3704 c9 -3 19 -13 22 -22 3 -12 4 -12 3 3 -1 12 -10 21 -22 22
-15 1 -15 0 -3 -3z"/>
<path d="M2940 3688 c0 -12 3 -18 7 -14 11 10 12 36 2 36 -5 0 -9 -10 -9 -22z"/>
<path d="M3047 3695 c-8 -20 -4 -29 11 -24 5 2 6 13 2 23 -6 19 -7 19 -13 1z"/>
<path d="M3107 3704 c-13 -14 -7 -32 14 -37 16 -4 20 -1 17 15 -3 22 -19 33
-31 22z"/>
<path d="M3163 3694 c-3 -9 0 -20 8 -25 17 -11 31 -7 37 9 2 7 -2 10 -12 6 -9
-3 -16 -2 -16 4 0 6 6 13 13 15 7 3 5 6 -6 6 -10 1 -20 -6 -24 -15z"/>
<path d="M3242 3688 c4 -31 24 -33 24 -3 0 14 -6 25 -14 25 -8 0 -12 -8 -10
-22z"/>
<path d="M3300 3689 c0 -11 4 -18 9 -14 5 3 12 1 16 -5 16 -25 24 -3 16 40 -1
3 -6 -2 -11 -10 -6 -10 -10 -11 -10 -2 0 6 -4 12 -10 12 -5 0 -10 -9 -10 -21z"/>
<path d="M1342 5883 c2 -20 8 -38 13 -40 7 -2 9 12 7 37 -2 22 -8 40 -14 40
-5 0 -8 -17 -6 -37z"/>
<path d="M1547 5914 c-7 -7 34 -74 46 -74 12 0 8 13 -13 48 -21 34 -23 36 -33
26z"/>
<path d="M1623 5907 c-11 -14 -5 -87 7 -87 10 0 18 90 9 96 -4 2 -11 -2 -16
-9z"/>
<path d="M1844 5903 c-3 -11 -14 -23 -25 -26 -35 -9 -20 -47 22 -54 13 -2 18
7 21 38 4 46 -9 77 -18 42z m-8 -60 c-10 -10 -19 5 -10 18 6 11 8 11 12 0 2
-7 1 -15 -2 -18z"/>
<path d="M1759 5883 c-17 -4 -32 -40 -23 -55 9 -13 24 1 24 23 0 11 4 18 10
14 5 -3 7 -12 4 -19 -3 -8 -1 -17 5 -21 7 -4 11 5 11 24 0 33 -6 39 -31 34z"/>
<path d="M1879 5869 c-8 -17 -8 -24 3 -36 27 -27 71 14 47 43 -17 20 -37 17
-50 -7z m31 -21 c0 -19 -2 -20 -10 -8 -13 19 -13 30 0 30 6 0 10 -10 10 -22z"/>
<path d="M1438 5860 c-7 -24 -3 -38 8 -28 3 4 4 17 2 30 l-3 23 -7 -25z"/>
<path d="M1470 5855 c0 -14 5 -25 10 -25 6 0 10 11 10 25 0 14 -4 25 -10 25
-5 0 -10 -11 -10 -25z"/>
<path d="M1662 5853 c2 -22 8 -28 28 -28 20 0 26 6 28 28 2 15 -1 27 -7 27 -6
0 -11 -9 -11 -20 0 -11 -4 -20 -10 -20 -5 0 -10 9 -10 20 0 11 -5 20 -11 20
-6 0 -9 -12 -7 -27z"/>
<path d="M1480 5734 c0 -27 4 -43 10 -39 6 3 10 24 10 46 0 21 -4 39 -10 39
-5 0 -10 -21 -10 -46z"/>
<path d="M1740 5770 c0 -5 5 -10 10 -10 6 0 10 5 10 10 0 6 -4 10 -10 10 -5 0
-10 -4 -10 -10z"/>
<path d="M1397 5762 c-13 -20 1 -62 21 -62 11 0 13 3 5 8 -6 4 -13 21 -15 37
-2 21 -6 26 -11 17z"/>
<path d="M1778 5737 c-5 -27 0 -47 13 -47 5 0 9 16 9 35 0 39 -15 48 -22 12z"/>
<path d="M1518 5726 c-3 -15 -2 -29 2 -31 11 -7 19 30 10 45 -5 7 -9 2 -12
-14z"/>
<path d="M1555 5738 c-4 -10 -4 -26 0 -35 8 -17 8 -17 12 0 3 9 3 25 0 35 -4
16 -4 16 -12 0z"/>
<path d="M1598 5744 c-15 -14 -8 -43 12 -54 11 -6 20 -18 20 -26 0 -8 5 -12
10 -9 12 8 13 85 1 85 -5 0 -12 -10 -16 -22 -7 -22 -7 -22 -14 5 -3 16 -9 25
-13 21z"/>
<path d="M1662 5723 c2 -22 8 -28 28 -28 27 0 40 29 21 48 -8 8 -11 4 -11 -16
0 -15 -4 -27 -10 -27 -5 0 -10 11 -10 25 0 14 -5 25 -11 25 -6 0 -9 -12 -7
-27z"/>
<path d="M1740 5721 c0 -17 5 -31 10 -31 6 0 10 11 10 24 0 14 -4 28 -10 31
-6 4 -10 -7 -10 -24z"/>
<path d="M1854 5732 c4 -11 2 -23 -4 -27 -6 -3 -10 3 -10 14 0 12 -5 21 -11
21 -6 0 -9 -10 -7 -22 5 -34 53 -33 53 1 0 13 -6 26 -14 29 -9 3 -11 -1 -7
-16z"/>
<path d="M1232 3668 c4 -133 22 -132 26 2 2 85 0 100 -13 100 -13 0 -15 -15
-13 -102z"/>
<path d="M1295 3728 c-11 -72 -2 -163 15 -163 12 0 16 19 18 103 2 84 0 102
-12 102 -10 0 -17 -15 -21 -42z"/>
<path d="M1157 3693 c-11 -115 -10 -133 12 -133 16 0 21 10 26 53 10 79 3 141
-16 145 -13 2 -17 -10 -22 -65z"/>
<path d="M660 3670 c0 -22 45 -49 73 -43 16 4 20 12 15 31 -2 7 -64 32 -80 32
-5 0 -8 -9 -8 -20z"/>
<path d="M790 3654 c0 -8 5 -12 10 -9 6 3 10 10 10 16 0 5 -4 9 -10 9 -5 0
-10 -7 -10 -16z"/>
<path d="M1624 3469 l2 -41 72 0 c40 1 76 1 80 1 5 1 9 19 10 41 l2 40 -84 0
-84 0 2 -41z"/>
<path d="M1122 3084 c-1 -31 1 -35 21 -32 12 2 21 6 20 11 -2 4 -3 18 -3 32 0
18 -5 25 -18 25 -15 0 -19 -8 -20 -36z"/>
<path d="M1192 3108 c-19 -19 -14 -46 10 -59 18 -9 24 -8 34 6 13 18 8 45 -10
57 -15 10 -20 10 -34 -4z m33 -26 c0 -31 -19 -28 -23 4 -3 18 0 25 10 22 7 -3
13 -14 13 -26z"/>
<path d="M1270 3092 c0 -11 -3 -27 -6 -36 -4 -10 -1 -16 8 -16 10 0 13 9 10
30 -3 18 0 30 7 30 6 0 11 -14 11 -32 0 -23 3 -29 11 -21 18 18 7 58 -18 61
-17 3 -23 -2 -23 -16z"/>
<path d="M1340 3070 c0 -33 3 -40 20 -40 11 0 20 5 20 10 0 6 -5 10 -10 10 -6
0 -10 6 -9 13 3 26 -1 47 -11 47 -5 0 -10 -18 -10 -40z"/>
<path d="M1430 3106 c0 -2 7 -6 15 -10 8 -3 15 -1 15 4 0 6 -7 10 -15 10 -8 0
-15 -2 -15 -4z"/>
<path d="M1584 3093 c15 -55 18 -63 25 -63 11 0 40 70 31 75 -4 3 -11 -5 -14
-18 l-7 -22 -9 23 c-11 26 -34 30 -26 5z"/>
<path d="M1662 3070 c0 -27 5 -40 14 -40 10 0 14 13 14 40 0 28 -4 40 -14 40
-11 0 -15 -12 -14 -40z"/>
<path d="M1713 3094 c-3 -8 -1 -20 6 -27 14 -14 15 -30 1 -22 -5 3 -10 2 -10
-4 0 -17 20 -23 35 -11 12 10 12 16 3 34 -7 11 -11 27 -10 34 4 18 -18 15 -25
-4z"/>
<path d="M1766 3101 c-4 -5 0 -11 6 -14 7 -2 13 -16 13 -32 0 -15 6 -30 13
-32 8 -3 12 7 12 31 0 20 5 36 10 36 6 0 10 5 10 10 0 13 -57 13 -64 1z"/>
<path d="M1842 3073 c-10 -34 -5 -65 5 -35 4 10 8 10 19 1 22 -18 27 -4 14 35
-15 46 -24 45 -38 -1z"/>
<path d="M1905 3073 c2 -30 7 -39 24 -41 11 -2 21 1 21 7 0 6 -4 11 -10 11 -5
0 -10 14 -10 30 0 18 -5 30 -13 30 -10 0 -13 -12 -12 -37z"/>
<path d="M1405 3086 c-10 -24 6 -51 31 -51 10 0 20 8 22 18 2 9 -1 17 -7 17
-6 0 -11 -8 -11 -17 0 -24 -17 -3 -22 27 -4 23 -5 23 -13 6z"/>
<path d="M1500 3083 c0 -11 -5 -24 -12 -31 -6 -6 -8 -15 -4 -19 4 -4 12 -1 17
7 8 11 12 12 16 3 2 -7 11 -13 18 -13 12 0 12 5 1 32 -16 37 -36 49 -36 21z"/>
<path d="M6351 5129 c-13 -38 -3 -60 16 -34 15 21 18 65 4 65 -5 0 -14 -14
-20 -31z"/>
<path d="M6302 4948 c-17 -17 -15 -68 3 -68 19 0 38 36 30 60 -7 23 -16 25
-33 8z"/>
<path d="M6695 5310 c-3 -5 -12 -28 -20 -51 l-15 -41 28 7 c36 9 91 35 98 47
4 5 2 14 -4 20 -14 14 -81 28 -87 18z"/>
<path d="M6642 5161 c-7 -21 -12 -46 -12 -54 0 -23 51 -47 100 -47 35 0 40 3
40 23 0 12 -8 31 -18 43 -16 19 -86 74 -95 74 -2 0 -9 -17 -15 -39z"/>
<path d="M8035 5180 c3 -5 8 -10 11 -10 2 0 4 5 4 10 0 6 -5 10 -11 10 -5 0
-7 -4 -4 -10z"/>
<path d="M7206 5125 c-18 -27 -21 -65 -7 -65 15 0 41 42 41 67 0 30 -14 29
-34 -2z"/>
<path d="M6847 5091 c-6 -24 0 -31 24 -31 16 0 39 27 39 44 0 3 -13 6 -29 6
-20 0 -30 -6 -34 -19z"/>
<path d="M8142 4429 c2 -19 8 -33 13 -31 15 3 12 55 -3 60 -10 3 -13 -5 -10
-29z"/>
<path d="M6600 3910 c0 -5 5 -10 10 -10 6 0 10 5 10 10 0 6 -4 10 -10 10 -5 0
-10 -4 -10 -10z"/>
<path d="M6600 3870 c0 -5 5 -10 10 -10 6 0 10 5 10 10 0 6 -4 10 -10 10 -5 0
-10 -4 -10 -10z"/>
<path d="M6341 3324 c-12 -15 -21 -34 -21 -43 0 -23 18 -47 27 -37 4 5 3 11
-4 13 -20 7 -3 31 18 26 15 -4 18 -2 13 11 -3 9 -10 13 -15 10 -5 -3 -9 2 -9
10 0 9 7 16 15 16 8 0 15 5 15 10 0 18 -18 10 -39 -16z"/>
<path d="M6410 3173 c-8 -3 -22 -7 -30 -10 -8 -3 -27 -5 -42 -4 -14 1 -29 -3
-33 -10 -6 -9 10 -10 66 -5 87 8 119 15 119 26 0 8 -55 10 -80 3z"/>
<path d="M6130 3006 c0 -9 7 -16 16 -16 9 0 14 5 12 12 -6 18 -28 21 -28 4z"/>
<path d="M6200 3000 c0 -19 3 -21 12 -12 9 9 9 15 0 24 -9 9 -12 7 -12 -12z"/>
<path d="M10030 5088 c1 -17 18 -146 25 -180 11 -59 16 -88 41 -258 14 -96 29
-179 32 -185 4 -5 8 -32 9 -60 2 -27 8 -70 13 -95 14 -69 91 -547 131 -818 4
-30 10 -56 12 -58 2 -3 8 28 12 68 10 94 10 90 24 176 7 40 10 79 7 87 -3 8
-1 17 3 20 11 6 34 162 26 174 -3 5 1 11 7 14 10 3 10 9 0 27 -9 15 -10 20 -2
15 9 -5 11 3 7 29 -3 22 -1 36 6 36 6 0 7 3 4 7 -4 3 -1 13 6 21 10 13 9 15
-5 9 -12 -4 -18 -2 -18 8 0 8 6 12 13 9 7 -2 13 3 14 13 0 10 4 38 8 62 6 32
5 42 -3 37 -7 -4 -12 -1 -12 9 0 9 4 14 9 11 17 -11 21 39 4 52 -16 12 -16 13
9 16 7 0 15 18 19 39 5 34 4 37 -15 31 -21 -6 -21 -6 0 10 23 17 38 76 20 76
-6 0 -5 4 3 9 8 5 14 31 16 67 2 33 5 66 9 74 12 31 23 137 18 178 -2 27 0 42
7 42 7 0 9 13 5 36 -3 20 -2 34 3 31 5 -3 9 14 9 39 0 40 -2 43 -21 38 -11 -4
-23 -12 -27 -18 -4 -6 -6 -1 -5 11 0 12 4 20 7 18 4 -2 16 3 28 11 18 12 20
19 11 40 -8 22 -7 25 6 20 8 -3 15 -1 15 4 0 6 -94 10 -245 10 -189 0 -245 -3
-245 -12z m465 -117 c3 -5 1 -12 -5 -16 -5 -3 -10 1 -10 9 0 18 6 21 15 7z
m-29 -196 c-1 -36 -4 -40 -21 -27 -10 6 -11 20 -5 40 1 4 2 10 1 15 0 4 5 7
12 7 9 0 13 -12 13 -35z m-71 -65 c-3 -5 -12 -10 -18 -10 -7 0 -6 4 3 10 19
12 23 12 15 0z m75 -10 c0 -5 -7 -7 -15 -4 -8 4 -15 8 -15 10 0 2 7 4 15 4 8
0 15 -4 15 -10z m-29 -117 c-9 -15 -10 -12 -10 17 0 29 1 32 10 18 7 -12 7
-24 0 -35z m-56 17 c-3 -5 -12 -10 -18 -10 -7 0 -6 4 3 10 19 12 23 12 15 0z
m5 -124 c0 -2 -7 -7 -16 -10 -8 -3 -12 -2 -9 4 6 10 25 14 25 6z m-227 -117
c-9 -9 -12 -7 -10 9 1 14 5 18 11 12 7 -7 6 -14 -1 -21z m227 -137 c0 -13 -12
-22 -22 -16 -10 6 -1 24 13 24 5 0 9 -4 9 -8z m-2 -48 c2 -1 -1 -5 -7 -8 -5
-4 -15 4 -22 16 -12 22 -11 22 7 8 10 -8 20 -15 22 -16z m-120 -369 c-3 -3 -9
2 -12 12 -6 14 -5 15 5 6 7 -7 10 -15 7 -18z"/>
<path d="M11291 4254 c-9 -20 -16 -25 -35 -20 -26 7 -51 -10 -60 -40 -7 -23
16 -40 36 -28 5 4 23 -3 39 -15 36 -27 37 -26 31 5 -2 14 1 43 8 65 16 48 1
75 -19 33z"/>
<path d="M10262 3130 c0 -14 2 -19 5 -12 2 6 2 18 0 25 -3 6 -5 1 -5 -13z"/>
<path d="M11036 3045 c11 -17 14 -36 10 -56 -3 -18 -2 -28 4 -24 14 9 12 79
-2 93 -21 21 -29 13 -12 -13z"/>
<path d="M9686 3020 c-9 -48 -7 -100 4 -100 6 0 10 19 10 43 l1 42 38 -43 c37
-42 38 -43 44 -20 12 42 8 108 -6 108 -9 0 -12 -13 -9 -42 l3 -43 -39 43 -39
44 -7 -32z"/>
<path d="M9878 2981 l4 -71 39 0 c47 0 79 27 79 68 0 45 -21 64 -76 69 l-49 5
3 -71z m90 16 c17 -35 1 -67 -33 -67 -19 0 -25 6 -30 33 -4 26 -3 55 4 74 4
11 49 -20 59 -40z"/>
<path d="M10035 2980 l0 -70 38 0 c20 0 37 4 37 9 0 5 -9 7 -20 4 -17 -4 -20
0 -20 26 0 23 4 29 15 25 8 -4 15 -1 15 5 0 6 -6 11 -14 11 -15 0 -28 24 -19
34 4 3 15 6 25 6 11 0 16 5 13 10 -3 6 -21 10 -38 10 l-32 0 0 -70z"/>
<path d="M10510 3024 c6 -14 10 -41 10 -59 0 -24 6 -38 19 -45 28 -14 38 -13
61 10 23 23 29 120 8 120 -9 0 -12 -15 -10 -53 4 -57 -11 -83 -42 -71 -12 5
-16 20 -16 65 0 52 -2 59 -20 59 -17 0 -18 -3 -10 -26z"/>
<path d="M10670 2987 c0 -37 3 -67 8 -67 4 0 6 18 4 40 -2 22 0 40 4 40 4 0
25 -17 46 -37 27 -26 38 -32 38 -21 0 9 -9 20 -20 23 -11 3 -20 9 -20 13 -1 4
-14 23 -30 42 l-30 34 0 -67z"/>
<path d="M10762 3030 c0 -14 2 -19 5 -12 2 6 2 18 0 25 -3 6 -5 1 -5 -13z"/>
<path d="M10830 2992 c0 -34 4 -62 9 -62 8 0 4 110 -4 119 -3 2 -5 -23 -5 -57z"/>
<path d="M10910 3021 c4 -17 6 -40 3 -53 -4 -20 -3 -21 7 -5 14 22 9 79 -7 84
-9 3 -10 -4 -3 -26z"/>
<path d="M10160 2975 l0 -65 40 0 c22 0 40 4 40 10 0 5 -10 9 -22 7 -21 -2
-23 3 -26 56 -2 42 -7 57 -17 57 -12 0 -15 -15 -15 -65z"/>
<path d="M10324 2975 c-7 -50 -7 -65 3 -65 6 0 13 16 15 38 l3 37 18 -32 c22
-41 31 -41 47 -3 17 40 30 38 30 -5 0 -29 4 -35 21 -35 16 0 19 3 11 13 -5 6
-13 36 -17 65 -8 61 -19 66 -35 17 -16 -50 -27 -51 -50 -5 -11 22 -24 40 -28
40 -4 0 -12 -29 -18 -65z"/>
<path d="M10961 3000 c-1 -34 21 -60 50 -59 l24 0 -22 9 c-13 5 -29 24 -37 42
-13 31 -14 31 -15 8z"/>
</g>
</svg>
