<?xml version="1.0" standalone="no"?>
<!DOCTYPE svg PUBLIC "-//W3C//DTD SVG 20010904//EN"
 "http://www.w3.org/TR/2001/REC-SVG-20010904/DTD/svg10.dtd">
<svg version="1.0" xmlns="http://www.w3.org/2000/svg"
 width="1200.000000pt" height="1200.000000pt" viewBox="0 0 1200.000000 1200.000000"
 preserveAspectRatio="xMidYMid meet">

<g transform="translate(0.000000,1200.000000) scale(0.100000,-0.100000)"
fill="#000000" stroke="none">
<path d="M0 11978 c0 -20 1 -21 20 -3 11 10 20 20 20 22 0 1 -9 3 -20 3 -14 0
-20 -7 -20 -22z"/>
<path d="M5665 11909 c-56 -15 -95 -67 -95 -127 0 -15 -8 -39 -17 -52 -16 -22
-18 -48 -16 -203 2 -160 4 -181 22 -211 20 -31 21 -48 21 -257 0 -405 -36
-1763 -51 -1904 -12 -116 -39 -227 -73 -293 -28 -54 -119 -160 -194 -222 -81
-69 -257 -265 -327 -365 -166 -237 -253 -472 -285 -763 -11 -103 -9 -416 20
-2402 6 -377 14 -1020 20 -1430 11 -861 25 -1757 41 -2625 10 -557 12 -615 30
-664 10 -30 27 -64 38 -75 10 -12 27 -36 38 -55 47 -86 263 -167 568 -212 136
-21 847 -18 1065 5 309 31 512 76 640 140 52 26 72 44 105 92 56 80 64 108 75
259 20 266 90 2794 140 5025 5 245 14 661 20 925 6 264 12 613 13 775 2 287 1
298 -25 421 -48 222 -118 388 -239 569 -45 68 -124 156 -279 315 -119 121
-228 241 -243 267 -72 124 -83 259 -97 1213 -15 981 -14 1215 6 1243 19 27 34
159 34 303 0 100 -1 107 -25 129 -19 18 -25 34 -25 66 0 61 -17 91 -58 105
-41 14 -799 20 -847 8z m145 -198 c0 -17 -18 -21 -24 -6 -3 9 0 15 9 15 8 0
15 -4 15 -9z m-830 -4703 c0 -6 -9 1 -20 15 -11 14 -20 29 -20 34 1 11 40 -37
40 -49z m-50 -71 c0 -5 -4 -5 -10 -2 -5 3 -10 14 -10 23 0 15 2 15 10 2 5 -8
10 -19 10 -23z m-45 -77 c17 -33 18 -40 7 -40 -5 0 -16 16 -25 35 -20 42 -4
47 18 5z m583 -13 c14 -40 15 -47 4 -47 -5 0 -16 18 -25 40 -11 30 -12 40 -3
40 6 0 17 -15 24 -33z m48 16 c3 -10 10 -26 16 -37 6 -12 6 -22 0 -28 -10 -10
-42 42 -42 69 0 19 20 16 26 -4z m44 7 c0 -5 -2 -10 -4 -10 -3 0 -8 5 -11 10
-3 6 -1 10 4 10 6 0 11 -4 11 -10z m48 -40 c-5 -53 -24 -47 -19 6 2 29 7 42
13 36 5 -5 8 -24 6 -42z m82 4 c17 -20 29 -39 26 -42 -6 -5 -76 62 -76 73 0
14 21 1 50 -31z m80 -4 c0 -22 -4 -40 -10 -40 -5 0 -10 18 -10 40 0 22 5 40
10 40 6 0 10 -18 10 -40z m180 -5 c0 -37 -15 -37 -16 0 0 19 3 32 8 29 4 -3 8
-16 8 -29z m37 13 c-3 -8 -6 -5 -6 6 -1 11 2 17 5 13 3 -3 4 -12 1 -19z m0
-40 c-3 -8 -6 -5 -6 6 -1 11 2 17 5 13 3 -3 4 -12 1 -19z m-1257 -8 c0 -5 -2
-10 -4 -10 -3 0 -8 5 -11 10 -3 6 -1 10 4 10 6 0 11 -4 11 -10z m80 -55 c0 -5
-5 -3 -10 5 -5 8 -10 20 -10 25 0 6 5 3 10 -5 5 -8 10 -19 10 -25z m105 -16
c12 -19 -5 -23 -22 -6 -16 16 -16 17 -1 17 9 0 20 -5 23 -11z m851 -65 c8 -20
13 -38 10 -41 -5 -6 -36 51 -36 67 0 20 11 9 26 -26z m56 -36 c-7 -7 -9 3 -7
28 5 52 7 55 12 15 3 -18 0 -38 -5 -43z m-725 40 c-3 -8 -6 -5 -6 6 -1 11 2
17 5 13 3 -3 4 -12 1 -19z m813 7 c0 -8 -4 -15 -10 -15 -5 0 -7 7 -4 15 4 8 8
15 10 15 2 0 4 -7 4 -15z m107 -27 c-3 -7 -5 -2 -5 12 0 14 2 19 5 13 2 -7 2
-19 0 -25z m-1049 -63 c-3 -3 -9 2 -12 12 -6 14 -5 15 5 6 7 -7 10 -15 7 -18z
m931 -525 c3 0 -3 -6 -12 -13 -15 -11 -17 -27 -15 -122 l3 -110 37 -3 c20 -2
51 4 67 13 l31 15 -12 -25 c-11 -24 -14 -25 -107 -24 -90 0 -95 1 -73 16 20
14 22 23 22 113 0 107 -5 130 -26 130 -8 0 -14 4 -14 9 0 7 39 8 99 1z m300
-112 c23 -57 51 -115 62 -130 l20 -28 -47 0 c-44 0 -46 1 -32 18 14 15 13 21
-4 60 -17 39 -21 42 -58 42 -33 0 -42 -5 -54 -27 -19 -36 -20 -25 -2 18 13 31
17 33 51 30 33 -2 37 -1 30 16 -4 10 -10 26 -12 36 -3 9 -9 17 -14 17 -10 0
-12 34 -2 43 14 15 22 3 62 -95z m-1152 -80 c-3 -8 -6 -5 -6 6 -1 11 2 17 5
13 3 -3 4 -12 1 -19z m1036 -65 c7 -10 1 -13 -28 -13 l-37 0 23 25 c15 15 25
20 28 12 2 -7 8 -18 14 -24z m-813 -130 c0 -7 -9 -13 -20 -13 -28 0 -31 -23
-28 -195 l3 -150 72 0 c68 0 74 2 107 34 43 42 47 23 8 -34 -24 -34 -33 -40
-63 -39 -189 8 -240 11 -245 17 -4 4 7 12 25 18 l31 11 -2 167 c-3 164 -3 166
-25 169 -13 2 -23 9 -23 16 0 9 23 12 80 12 59 0 80 -3 80 -13z m296 -3 c57 0
68 -9 32 -25 -23 -10 -23 -13 -23 -175 0 -162 0 -165 23 -175 39 -17 24 -24
-53 -23 -70 0 -103 13 -52 20 22 3 22 4 22 173 l0 170 -29 14 c-22 10 -25 15
-15 22 8 5 20 7 27 4 8 -3 38 -5 68 -5z m247 -55 c28 -30 95 -102 147 -159 52
-57 98 -105 103 -105 4 -1 7 59 7 132 0 135 -6 159 -40 169 -8 3 9 7 38 9 30
2 56 1 59 -3 2 -5 -3 -8 -11 -8 -9 0 -17 -1 -18 -2 -1 -2 -4 -86 -7 -187 -4
-110 -10 -185 -16 -187 -5 -1 -77 70 -160 159 l-150 160 -3 -129 c-3 -149 1
-174 28 -174 10 0 21 -4 24 -9 6 -9 -103 -20 -124 -13 -18 6 -11 22 10 22 33
0 40 33 40 187 0 154 -5 173 -43 173 -10 0 -15 5 -12 10 3 6 22 10 41 10 28 0
43 -9 87 -55z m691 21 c103 -60 118 -223 29 -308 -50 -48 -91 -58 -225 -58
-115 1 -121 2 -95 16 l27 15 0 159 c0 87 -3 165 -6 174 -3 9 -16 17 -28 18
-41 4 160 15 208 12 28 -2 65 -13 90 -28z m360 -145 c57 -140 76 -175 95 -183
33 -12 26 -15 -53 -21 -69 -5 -70 -5 -46 13 l24 18 -23 59 c-13 32 -28 63 -33
70 -10 13 -106 10 -118 -4 -4 -4 -17 -35 -29 -68 l-22 -60 20 -16 c20 -17 19
-17 -32 -21 -51 -4 -74 0 -49 9 29 11 50 50 112 213 35 93 69 169 74 167 5 -2
41 -81 80 -176z m-1567 -343 c6 -7 23 -51 39 -98 16 -47 33 -88 38 -91 10 -8
-1 -59 -13 -59 -4 0 -16 21 -26 48 -9 26 -23 61 -31 79 -8 17 -14 39 -14 50
-1 16 -2 16 -10 2 -5 -8 -8 -57 -7 -107 2 -78 0 -92 -14 -92 -22 0 -31 11 -19
25 6 7 12 43 15 81 3 38 7 84 10 101 3 18 1 42 -5 53 -9 17 -8 20 8 20 11 0
24 -6 29 -12z m178 -50 c1 -87 8 -172 16 -195 5 -14 4 -23 -5 -26 -25 -10 -32
9 -34 90 -1 45 -6 92 -10 104 -8 20 -9 20 -21 -12 -24 -64 -31 -76 -24 -44 3
17 12 42 19 57 8 15 14 33 14 41 0 16 20 37 35 37 5 0 10 -23 10 -52z m240
-88 c43 -118 51 -160 25 -134 -5 5 -25 52 -46 104 -20 52 -40 98 -46 101 -10
7 0 59 12 59 4 0 29 -59 55 -130z m173 -5 c-1 -106 -4 -135 -14 -135 -11 0
-14 28 -14 135 0 110 3 135 14 135 12 0 15 -24 14 -135z m494 5 c2 -99 0 -130
-9 -130 -10 0 -12 31 -10 130 1 71 5 130 9 130 4 0 8 -59 10 -130z m-257 -5
c0 -69 -3 -125 -7 -125 -5 0 -8 56 -8 125 0 69 3 125 8 125 4 0 7 -56 7 -125z
m116 94 c6 -26 1 -49 -11 -49 -4 0 -8 10 -7 23 0 12 -3 30 -8 41 -6 14 -5 18
6 14 7 -2 16 -15 20 -29z m359 -25 c-14 -37 -12 -95 4 -126 17 -31 10 -37 -10
-10 -16 20 -18 115 -4 143 15 27 21 23 10 -7z m-972 -58 c0 -14 -7 -27 -14
-30 -17 -6 -18 8 -4 35 14 25 18 24 18 -5z m632 -59 c0 -18 -6 -42 -14 -53
-13 -17 -14 -15 -9 22 3 23 0 51 -7 63 -11 21 -10 22 9 11 15 -7 21 -21 21
-43z m-683 -79 c-19 -12 -28 2 -15 25 11 21 11 21 18 2 4 -11 3 -23 -3 -27z
m428 2 c-3 -5 -11 -10 -16 -10 -6 0 -7 5 -4 10 3 6 11 10 16 10 6 0 7 -4 4
-10z m51 -1397 c-3 -8 -6 -19 -6 -24 0 -5 -4 -9 -10 -9 -5 0 -10 7 -10 15 0 8
-4 15 -10 15 -5 0 -10 -7 -10 -16 0 -10 -5 -14 -16 -10 -10 4 -13 2 -8 -6 5
-7 2 -9 -9 -5 -8 3 -21 -1 -28 -9 -9 -11 -15 -12 -23 -3 -8 8 -7 13 2 16 7 3
25 15 40 27 15 13 32 21 39 19 6 -2 14 0 17 6 10 15 38 1 32 -16z m-314 -13
c27 -25 56 -26 75 -2 13 15 13 15 4 -5 -6 -12 -9 -28 -6 -35 5 -14 -43 -74
-52 -64 -3 3 0 13 7 21 11 13 9 20 -10 40 -13 14 -29 25 -36 25 -15 0 -36 25
-27 33 11 11 23 8 45 -13z m373 -30 c3 -5 1 -10 -4 -10 -6 0 -11 5 -11 10 0 6
2 10 4 10 3 0 8 -4 11 -10z m-213 -41 c-14 -125 -18 -144 -25 -116 -4 15 -12
27 -17 27 -13 0 -13 -17 0 -25 6 -3 10 -26 10 -51 0 -41 20 -89 44 -105 5 -4
-1 -10 -12 -13 -13 -4 -19 -13 -15 -22 7 -19 23 -18 23 1 0 31 20 14 30 -26
14 -49 10 -55 -17 -29 -18 16 -22 17 -27 4 -4 -10 -13 -13 -30 -8 -13 3 -35 0
-47 -7 -25 -13 -118 -21 -97 -8 7 4 10 10 8 12 -9 7 -90 -5 -90 -14 0 -5 6 -9
14 -9 8 0 17 -7 20 -16 3 -8 10 -13 15 -9 5 3 12 1 16 -5 9 -15 -17 -12 -59 5
-61 26 -41 64 32 63 49 0 75 17 67 43 -4 11 -1 19 5 19 7 0 10 8 7 20 -4 17
-2 20 14 15 24 -8 36 19 19 40 -10 12 -10 18 0 30 19 22 -3 44 -25 25 -12 -10
-15 -10 -15 3 0 32 14 48 57 68 25 11 42 23 39 26 -3 3 3 18 14 33 11 15 17
30 14 33 -9 9 7 28 19 24 7 -2 11 -15 9 -28z m-52 1 c0 -5 -4 -10 -10 -10 -5
0 -10 5 -10 10 0 6 5 10 10 10 6 0 10 -4 10 -10z m320 -51 c0 -6 -4 -7 -10 -4
-5 3 -10 11 -10 16 0 6 5 7 10 4 6 -3 10 -11 10 -16z m-160 -53 c0 -3 -7 -6
-15 -6 -8 0 -15 6 -15 14 0 8 -3 23 -7 33 -4 11 2 8 15 -9 12 -14 22 -29 22
-32z m-4 -75 c5 -25 4 -32 -4 -27 -7 4 -12 12 -12 18 0 6 -7 19 -16 29 -9 10
-13 23 -9 29 11 18 33 -9 41 -49z m-106 8 c0 -6 -4 -7 -10 -4 -5 3 -10 11 -10
16 0 6 5 7 10 4 6 -3 10 -11 10 -16z m-178 -65 c-4 -47 -14 -51 -20 -8 -2 20
11 54 22 54 1 0 0 -21 -2 -46z m188 27 c0 -11 3 -28 6 -38 5 -12 4 -15 -4 -8
-16 15 -26 65 -13 65 6 0 11 -9 11 -19z m96 -55 c8 -8 14 -20 14 -26 0 -6 5
-8 11 -4 7 4 7 -1 -1 -16 l-12 -22 -19 28 c-29 44 -24 71 7 40z m122 -44 c-4
-2 -8 -14 -8 -27 0 -12 -7 -28 -15 -35 -19 -16 -19 -13 2 63 16 56 18 59 23
32 3 -16 2 -31 -2 -33z m37 8 c3 -5 1 -10 -4 -10 -6 0 -11 5 -11 10 0 6 2 10
4 10 3 0 8 -4 11 -10z m-175 -111 l35 -1 -35 -8 c-20 -5 -40 -5 -46 1 -6 5
-24 5 -45 -1 -44 -13 -136 -13 -123 -1 5 6 41 13 79 16 39 4 72 9 74 11 3 2 9
0 15 -6 5 -5 26 -10 46 -11z m275 1 c-3 -5 -12 -10 -18 -10 -7 0 -6 4 3 10 19
12 23 12 15 0z m-515 -20 c-20 -13 -33 -13 -25 0 3 6 14 10 23 10 15 0 15 -2
2 -10z m-312 -118 c15 -15 20 -16 31 -5 7 8 23 13 34 11 17 -2 23 -11 25 -36
4 -37 -19 -53 -49 -34 -14 9 -25 9 -44 0 -33 -15 -44 -3 -38 45 6 41 14 46 41
19z m156 -5 c21 -15 18 -45 -5 -60 -26 -16 -49 -1 -49 31 0 44 19 54 54 29z
m71 -7 c3 -5 1 -10 -5 -10 -6 0 -9 -4 -5 -9 3 -5 1 -12 -4 -16 -6 -3 -8 -12
-4 -20 3 -10 1 -13 -8 -10 -8 3 -15 21 -16 40 -1 28 2 35 17 35 10 0 22 -4 25
-10z m150 -38 c6 -22 5 -22 -14 -10 -21 13 -27 29 -14 42 9 8 19 -3 28 -32z
m85 8 c0 -16 -4 -30 -8 -30 -5 0 -7 14 -4 30 2 17 6 30 8 30 2 0 4 -13 4 -30z
m-192 -5 c0 -13 -4 -22 -9 -19 -5 3 -9 14 -9 25 0 10 4 19 9 19 5 0 9 -11 9
-25z m42 -15 c0 -5 -4 -10 -10 -10 -5 0 -10 5 -10 10 0 6 5 10 10 10 6 0 10
-4 10 -10z m-155 -39 c40 -6 25 -8 -67 -9 -67 0 -118 3 -118 9 0 11 113 11
185 0z m20 -58 c-2 -26 -16 -53 -26 -53 -5 0 -9 16 -9 35 0 27 4 35 19 35 11
0 18 -6 16 -17z m64 -23 c6 -18 6 -30 0 -30 -5 0 -9 5 -9 11 0 8 -5 7 -15 -1
-22 -18 -27 -8 -12 23 16 34 23 34 36 -3z m55 15 c3 -8 10 -15 16 -15 5 0 10
7 10 15 0 8 5 15 10 15 6 0 10 -15 10 -32 0 -26 -3 -30 -11 -18 -8 11 -12 12
-15 3 -8 -18 -44 7 -44 29 0 22 16 24 24 3z m96 -15 c0 -16 -4 -30 -9 -30 -4
0 -8 13 -7 30 1 39 16 39 16 0z m173 -10 c4 -17 3 -19 -9 -9 -8 6 -14 18 -14
26 0 20 16 8 23 -17z m-118 -20 c3 -5 1 -10 -4 -10 -6 0 -11 5 -11 10 0 6 2
10 4 10 3 0 8 -4 11 -10z"/>
<path d="M6289 5628 c-5 -97 -3 -317 4 -330 11 -26 117 -24 175 2 114 52 105
263 -13 320 -48 23 -165 29 -166 8z"/>
<path d="M6747 5538 c-8 -24 -18 -51 -22 -60 -6 -16 -1 -18 39 -18 27 0 46 5
46 11 0 19 -34 109 -41 109 -4 0 -14 -19 -22 -42z"/>
<path d="M5810 3252 c0 -12 19 -26 26 -19 2 2 -2 10 -11 17 -9 8 -15 8 -15 2z"/>
<path d="M5800 3085 c0 -8 7 -15 16 -15 14 0 14 3 4 15 -7 8 -14 15 -16 15 -2
0 -4 -7 -4 -15z"/>
<path d="M5480 2810 c0 -11 7 -20 15 -20 8 0 15 9 15 20 0 11 -7 20 -15 20 -8
0 -15 -9 -15 -20z"/>
<path d="M5564 2815 c-7 -17 4 -37 17 -30 12 8 12 45 -1 45 -6 0 -13 -7 -16
-15z"/>
<path d="M11968 43 c-31 -36 -30 -43 1 -43 28 0 31 3 31 30 0 34 -10 38 -32
13z"/>
</g>
</svg>
