<?xml version="1.0" standalone="no"?>
<!DOCTYPE svg PUBLIC "-//W3C//DTD SVG 20010904//EN"
 "http://www.w3.org/TR/2001/REC-SVG-20010904/DTD/svg10.dtd">
<svg version="1.0" xmlns="http://www.w3.org/2000/svg"
 width="1200.000000pt" height="1200.000000pt" viewBox="0 0 1200.000000 1200.000000"
 preserveAspectRatio="xMidYMid meet">

<g transform="translate(0.000000,1200.000000) scale(0.100000,-0.100000)"
fill="#000000" stroke="none">
<path d="M5920 11938 c-80 -3 -177 -13 -216 -21 -155 -33 -184 -63 -184 -193
0 -73 -2 -83 -25 -104 -25 -23 -25 -26 -25 -177 0 -137 2 -158 21 -195 20 -40
21 -51 15 -237 -46 -1352 -78 -2203 -85 -2236 -26 -129 -83 -248 -157 -332
-25 -29 -98 -90 -162 -135 -156 -110 -370 -321 -447 -441 -111 -172 -177 -355
-194 -537 -5 -52 -5 -251 0 -449 14 -586 38 -1617 49 -2091 6 -245 17 -717 25
-1050 8 -333 20 -832 26 -1110 51 -2313 54 -2398 75 -2427 44 -58 92 -78 264
-108 263 -45 620 -65 1165 -65 616 0 1029 30 1254 91 93 25 128 49 140 97 12
46 19 246 31 872 9 439 29 1339 45 2035 3 132 12 553 20 935 8 382 19 889 25
1125 48 2052 49 2145 10 2280 -5 17 -14 50 -21 75 -19 65 -67 179 -80 190 -3
3 -14 20 -23 38 -48 94 -244 305 -350 376 -28 19 -71 53 -95 76 -25 22 -49 40
-55 40 -15 0 -65 57 -58 65 4 3 -2 3 -12 -1 -14 -5 -17 -3 -14 7 3 8 -7 21
-24 31 -16 10 -34 30 -40 45 -7 16 -18 35 -25 44 -43 52 -106 215 -127 329
-15 86 -24 307 -47 1165 -5 220 -14 522 -19 670 -15 428 -13 630 5 645 12 10
15 42 15 169 0 152 -1 158 -25 191 -21 29 -25 45 -25 107 0 86 -15 122 -63
152 -78 48 -316 72 -587 59z m-116 -2045 c-3 -27 -7 -53 -9 -59 -5 -18 12 -37
25 -29 8 5 11 23 7 52 -10 90 14 108 57 43 14 -22 29 -40 32 -40 3 0 4 17 2
38 -2 28 1 37 12 37 12 0 14 -12 11 -65 -2 -36 -5 -69 -8 -73 -3 -5 -18 6 -34
25 l-28 33 -1 -39 c0 -39 0 -39 -35 -33 -28 5 -35 2 -36 -11 0 -11 -3 -12 -6
-4 -2 6 -12 12 -21 12 -16 0 -18 27 -12 153 0 4 11 7 25 7 24 0 24 -2 19 -47z
m-67 20 c2 -6 -6 -13 -18 -16 -20 -5 -21 -11 -17 -61 4 -42 1 -56 -9 -56 -9 0
-13 18 -13 69 0 58 3 70 18 74 23 6 35 3 39 -10z m103 -283 c0 -5 -11 -10 -24
-10 -14 0 -28 5 -31 10 -4 6 7 10 24 10 17 0 31 -4 31 -10z m73 -323 c-2 -365
-7 -429 -42 -498 -26 -52 -28 -54 -66 -54 -44 0 -52 10 -79 106 -18 62 -21
227 -9 537 7 208 -6 188 123 191 l75 1 -2 -283z m887 -877 c0 -5 -2 -10 -4
-10 -3 0 -8 5 -11 10 -3 6 -1 10 4 10 6 0 11 -4 11 -10z m-1206 -770 c40 -17
46 -23 46 -50 0 -20 5 -30 15 -30 8 0 17 -12 20 -27 4 -16 9 -37 12 -48 12
-42 22 -211 29 -471 l6 -271 -23 -6 c-40 -10 -483 -20 -533 -13 -32 5 -44 11
-39 19 5 7 10 152 13 322 l6 310 31 65 c46 95 141 190 210 208 65 17 157 14
207 -8z m300 -1016 c25 -4 46 -10 46 -14 0 -13 -134 -20 -552 -27 -305 -4
-418 -3 -418 5 0 6 15 14 33 17 93 18 792 32 891 19z m-104 -84 c-80 -11 -724
-20 -713 -9 10 10 135 15 488 16 167 0 258 -3 225 -7z m130 -425 c0 -9 -9 -15
-22 -15 -21 0 -21 0 -2 15 24 18 24 18 24 0z m-127 -16 c12 -7 34 -12 50 -11
39 1 58 -17 43 -42 -8 -14 -8 -20 2 -23 6 -3 10 -9 6 -14 -7 -13 -264 -12
-264 1 0 6 6 10 13 10 6 0 34 20 62 45 55 49 57 50 88 34z m-663 -199 c0 -17
-3 -18 -26 -10 -14 6 -34 10 -45 10 -18 0 -19 -9 -19 -171 0 -98 4 -178 10
-190 9 -17 7 -19 -17 -19 l-28 0 1 173 c1 167 -5 213 -29 204 -46 -17 -57 -18
-57 -3 0 12 15 16 68 19 37 2 84 4 105 5 31 2 37 -1 37 -18z m1405 -40 c-28
-12 -45 -12 -45 0 0 6 15 10 33 9 27 0 29 -2 12 -9z m77 -161 c-2 -127 -6
-169 -15 -166 -9 3 -12 49 -12 170 0 142 2 167 15 167 13 0 15 -24 12 -171z
m83 161 c3 -5 -1 -10 -9 -10 -8 0 -18 5 -21 10 -3 6 1 10 9 10 8 0 18 -4 21
-10z m-1513 -165 c-4 -42 -2 -45 21 -45 13 0 30 7 37 15 15 19 5 65 -15 65 -8
0 -15 5 -15 10 0 17 28 11 55 -13 23 -19 25 -26 16 -49 -5 -14 -19 -29 -30
-33 -12 -3 -21 -12 -21 -18 0 -7 48 -58 107 -114 78 -74 102 -103 88 -103 -13
0 -61 41 -125 105 -58 58 -109 105 -114 105 -5 0 -6 -22 -4 -50 4 -43 3 -50
-13 -50 -16 0 -18 12 -21 110 -2 67 1 111 7 114 22 7 30 -7 27 -49z m230 43
c-13 -13 -17 -124 -6 -153 8 -20 56 -45 87 -45 13 0 36 9 51 21 23 18 26 27
26 85 0 36 -5 74 -10 85 -10 17 -7 19 20 19 27 0 30 -2 20 -19 -5 -11 -10 -49
-10 -86 0 -56 -4 -69 -24 -90 -45 -45 -127 -45 -172 0 -21 21 -24 33 -24 94 0
38 -3 76 -6 85 -5 13 1 16 27 16 26 0 30 -3 21 -12z m357 -74 c30 -46 60 -84
66 -84 6 0 31 32 55 71 68 107 68 107 73 89 3 -8 10 -49 16 -90 6 -41 14 -85
17 -97 5 -18 2 -23 -13 -23 -17 0 -21 10 -29 72 -5 39 -13 73 -19 74 -5 2 -29
-28 -53 -66 -24 -39 -47 -70 -52 -70 -4 0 -34 35 -66 77 l-59 78 -8 -45 c-4
-25 -6 -62 -5 -82 3 -34 1 -38 -19 -38 -22 0 -22 1 -8 48 8 26 18 70 21 97 6
60 11 75 21 74 4 0 33 -38 62 -85z m368 74 c-14 -11 -16 -29 -14 -110 2 -88 1
-98 -15 -98 -16 0 -18 11 -18 110 l0 110 32 0 c28 0 30 -2 15 -12z m95 -5 c10
-9 18 -26 18 -39 0 -26 -43 -64 -74 -64 -20 0 -20 1 3 13 13 6 29 20 35 30 13
21 0 46 -35 64 l-24 13 29 0 c16 0 38 -7 48 -17z m120 4 c-7 -8 -11 -52 -10
-108 1 -86 0 -94 -18 -97 -18 -3 -19 3 -14 93 3 53 1 103 -3 111 -6 11 -1 14
24 14 25 0 29 -3 21 -13z m108 3 c0 -13 -30 -13 -50 0 -11 7 -7 10 18 10 17 0
32 -4 32 -10z m303 -102 c-1 -77 -5 -104 -15 -106 -10 -2 -12 19 -10 103 2 72
7 105 15 105 9 0 12 -29 10 -102z m100 95 c-7 -2 -19 -2 -25 0 -7 3 -2 5 12 5
14 0 19 -2 13 -5z m87 -98 c0 -63 -4 -105 -10 -105 -6 0 -10 42 -10 105 0 63
4 105 10 105 6 0 10 -42 10 -105z m81 95 c20 -11 26 -54 9 -65 -6 -3 -10 4
-10 16 0 12 -7 31 -17 41 -18 20 -11 23 18 8z m-611 -90 c0 -5 -6 -10 -14 -10
-8 0 -18 5 -21 10 -3 6 3 10 14 10 12 0 21 -4 21 -10z m643 -107 c43 -58 75
-108 72 -111 -3 -3 -6 -3 -8 -1 -2 2 -40 52 -85 112 -46 59 -77 107 -70 107 7
-1 48 -48 91 -107z m-603 7 c0 -5 -12 -10 -26 -10 -14 0 -23 4 -19 10 3 6 15
10 26 10 10 0 19 -4 19 -10z m-965 -346 c0 -17 6 -38 14 -48 19 -23 5 -33 -17
-13 -22 20 -33 22 -29 6 1 -6 -4 -14 -10 -16 -10 -3 -13 11 -13 52 0 56 0 56
28 53 23 -3 27 -8 27 -34z m75 -1 c0 -21 5 -45 10 -53 17 -25 43 17 35 59 -5
25 -3 32 7 29 17 -6 15 -88 -3 -99 -17 -11 -56 -12 -62 -1 -3 4 -8 28 -11 55
-6 39 -5 47 8 47 12 0 16 -10 16 -37z m180 27 c0 -5 -6 -9 -12 -7 -9 1 -13
-13 -14 -42 -1 -62 -22 -65 -26 -4 -2 32 -7 47 -15 46 -7 -2 -13 2 -13 7 0 6
18 10 40 10 22 0 40 -4 40 -10z m63 -52 c-3 -26 -9 -45 -14 -42 -11 6 -12 88
-2 97 14 15 21 -10 16 -55z m88 34 c31 -37 32 -45 1 -23 -18 12 -32 27 -32 32
0 15 14 11 31 -9z m-165 -667 c9 -25 21 -45 26 -45 5 0 18 20 29 45 11 25 24
45 29 45 6 0 10 -27 10 -60 0 -33 0 -63 0 -67 0 -5 -6 -8 -12 -8 -9 0 -12 12
-10 38 4 47 -13 48 -29 2 -7 -19 -17 -35 -21 -35 -4 0 -17 18 -28 39 -11 22
-24 42 -30 46 -15 9 -12 45 4 45 8 0 22 -20 32 -45z m214 -27 c21 -46 25 -68
13 -68 -12 1 -50 84 -45 98 6 20 12 14 32 -30z m85 -8 c0 -28 -5 -50 -10 -50
-6 0 -10 20 -8 48 2 57 1 52 11 52 4 0 7 -22 7 -50z m104 0 c1 -28 -3 -50 -9
-50 -5 0 -10 23 -10 50 0 28 4 50 8 50 5 0 10 -22 11 -50z m46 2 c2 -23 -1
-42 -6 -42 -5 0 -9 8 -10 18 0 9 -2 29 -3 45 -1 15 2 26 7 24 5 -1 10 -22 12
-45z m62 -2 c0 -27 -4 -50 -8 -50 -5 0 -9 23 -9 50 0 28 4 50 9 50 4 0 8 -22
8 -50z m95 10 c-2 -17 2 -37 9 -47 12 -14 12 -16 -1 -11 -23 7 -36 54 -20 72
17 21 17 21 12 -14z m-632 -47 c0 -13 -4 -23 -10 -23 -5 0 -10 17 -10 38 0 27
3 33 10 22 5 -8 10 -25 10 -37z m190 -3 c-16 -31 -23 -18 -8 15 7 15 14 23 16
17 2 -6 -2 -21 -8 -32z m-486 -184 c-15 -12 -16 -17 -7 -27 10 -10 10 -16 1
-27 -10 -11 -8 -17 7 -28 18 -14 18 -14 -3 -14 -20 0 -22 5 -22 54 0 44 3 55
18 58 25 6 28 0 6 -16z m226 5 c17 -33 12 -78 -11 -95 -35 -24 -49 -10 -49 49
0 51 6 62 37 64 7 1 17 -8 23 -18z m-348 -29 c5 -18 13 -32 18 -32 6 0 10 -9
10 -20 0 -11 -4 -20 -10 -20 -5 0 -10 9 -10 19 0 11 -4 23 -10 26 -5 3 -10 1
-10 -4 0 -6 -3 -11 -7 -11 -5 0 -9 18 -11 41 -3 49 18 50 30 1z m61 26 c5 -18
-3 -48 -14 -48 -5 0 -9 14 -9 30 0 30 15 41 23 18z m154 -20 l17 -33 7 30 c5
24 7 20 8 -22 1 -57 -16 -72 -25 -23 -8 39 -24 39 -24 -1 0 -17 -4 -28 -10
-24 -12 7 -11 105 1 105 5 0 16 -15 26 -32z m238 -22 c0 -35 -4 -50 -15 -53
-12 -4 -12 -3 -2 5 21 14 12 86 -12 90 -17 4 -18 -1 -14 -47 3 -28 1 -48 -4
-45 -4 3 -8 28 -8 55 0 49 1 50 28 47 25 -3 27 -6 27 -52z m95 44 c0 -6 -7
-25 -16 -41 -8 -17 -13 -37 -10 -45 3 -8 -1 -14 -9 -14 -20 0 -19 19 4 56 14
23 16 35 8 43 -8 8 -7 11 6 11 9 0 17 -5 17 -10z m90 -10 c0 -21 -15 -27 -25
-10 -7 12 2 30 16 30 5 0 9 -9 9 -20z m130 -1 c0 -5 -4 -9 -10 -9 -5 0 -10 7
-10 16 0 8 5 12 10 9 6 -3 10 -10 10 -16z m376 -6 c-10 -10 -19 5 -10 18 6 11
8 11 12 0 2 -7 1 -15 -2 -18z m254 7 c0 -5 -2 -10 -4 -10 -3 0 -8 5 -11 10 -3
6 -1 10 4 10 6 0 11 -4 11 -10z m-553 -42 c-3 -7 -5 -2 -5 12 0 14 2 19 5 13
2 -7 2 -19 0 -25z m35 10 c-7 -7 -12 -8 -12 -2 0 14 12 26 19 19 2 -3 -1 -11
-7 -17z m-275 -35 c-17 -18 -22 -8 -11 22 5 12 10 13 17 6 8 -8 6 -16 -6 -28z
m53 -1 c0 -7 -4 -10 -10 -7 -5 3 -10 16 -10 28 0 18 2 19 10 7 5 -8 10 -21 10
-28z m75 0 c-15 -16 -16 -15 -4 12 7 15 15 23 17 16 3 -7 -3 -19 -13 -28z m55
8 c0 -5 -2 -10 -4 -10 -3 0 -8 5 -11 10 -3 6 -1 10 4 10 6 0 11 -4 11 -10z
m405 0 c3 -5 3 -15 -1 -21 -6 -11 -23 6 -24 24 0 10 18 9 25 -3z m245 -10 c0
-5 -4 -10 -10 -10 -5 0 -10 5 -10 10 0 6 5 10 10 10 6 0 10 -4 10 -10z m-1040
-499 c105 -6 62 -8 -195 -8 -181 -1 -319 3 -305 7 31 10 317 10 500 1z m241
-68 c8 -8 -5 -13 -55 -18 -85 -9 -823 0 -856 11 l-25 8 30 7 c53 13 893 6 906
-8z m-217 -109 c21 -4 34 -9 29 -13 -6 -4 -9 -637 -10 -1683 l0 -1676 -24 -30
c-30 -39 -77 -47 -218 -39 -122 7 -204 32 -237 73 -19 24 -22 38 -20 115 2 80
0 89 -16 89 -11 0 -18 7 -18 18 0 10 -5 23 -10 28 -16 16 -1 72 18 70 14 -1
16 46 13 493 -1 272 -4 524 -6 560 -3 36 -7 251 -9 476 -3 226 -8 538 -11 695
-3 157 -8 402 -10 544 -3 189 -8 262 -17 267 -13 8 11 16 72 23 47 5 425 -3
474 -10z m-728 -3111 c-12 -12 -29 15 -21 34 7 17 8 16 18 -5 5 -12 7 -25 3
-29z"/>
<path d="M5460 5215 c0 -8 5 -15 10 -15 6 0 10 7 10 15 0 8 -4 15 -10 15 -5 0
-10 -7 -10 -15z"/>
<path d="M5600 4255 c0 -45 12 -58 28 -29 12 22 2 74 -14 74 -10 0 -14 -13
-14 -45z"/>
</g>
</svg>
