<?xml version="1.0" standalone="no"?>
<!DOCTYPE svg PUBLIC "-//W3C//DTD SVG 20010904//EN"
 "http://www.w3.org/TR/2001/REC-SVG-20010904/DTD/svg10.dtd">
<svg version="1.0" xmlns="http://www.w3.org/2000/svg"
 width="471.000000pt" height="500.000000pt" viewBox="0 0 471.000000 500.000000"
 preserveAspectRatio="xMidYMid meet">

<g transform="translate(0.000000,500.000000) scale(0.100000,-0.100000)"
fill="#000000" stroke="none">
<path d="M536 4739 c-21 -17 -21 -21 -24 -464 l-3 -446 -24 -55 c-14 -31 -52
-85 -86 -122 -67 -73 -122 -174 -139 -256 -7 -35 -10 -439 -8 -1276 3 -1349
-1 -1261 65 -1306 36 -24 162 -43 318 -47 89 -2 90 -2 93 -28 2 -15 14 -37 28
-50 31 -29 113 -36 427 -38 l207 -1 0 -34 c0 -69 11 -98 44 -111 54 -23 205
-35 429 -35 l217 0 0 -42 c0 -48 26 -98 64 -123 43 -28 125 -44 287 -56 263
-20 482 8 561 71 27 21 48 79 48 133 l0 35 338 4 c270 3 343 7 367 19 l30 14
3 107 3 106 152 1 c209 0 341 20 418 63 70 39 67 16 79 619 5 299 17 820 26
1158 14 564 14 619 -1 686 -22 99 -69 174 -174 275 -98 95 -128 147 -142 243
-14 100 -27 667 -16 704 13 42 -10 198 -31 216 -10 8 -58 12 -153 12 -118 0
-141 -3 -156 -17 -15 -16 -17 -57 -17 -490 l-1 -473 -28 -60 c-21 -46 -50 -81
-123 -150 l-94 -90 -11 35 c-7 22 -12 214 -14 517 -2 306 -7 489 -14 501 -13
24 -57 32 -171 32 -117 0 -158 -8 -173 -34 -8 -15 -11 -113 -9 -361 1 -187 -2
-410 -6 -496 -11 -199 -27 -238 -128 -314 -37 -27 -86 -76 -109 -107 -48 -64
-52 -64 -94 19 -39 78 -43 124 -46 572 -3 385 -5 435 -19 450 -14 13 -41 16
-166 16 -163 0 -171 -3 -177 -57 -12 -109 -14 -161 -7 -176 8 -18 7 -78 -6
-472 -7 -226 -10 -262 -29 -312 -12 -32 -26 -60 -30 -62 -4 -3 -20 7 -37 22
-16 15 -55 48 -86 75 -97 81 -98 86 -112 577 -7 230 -9 423 -4 432 11 22 10
84 -2 122 -5 17 -12 43 -15 58 -8 40 -57 51 -198 47 -156 -5 -160 -9 -161
-146 -1 -246 -18 -835 -26 -900 -5 -45 -16 -86 -30 -109 l-23 -36 -94 94
c-148 147 -137 97 -139 665 -2 332 -6 488 -14 502 -10 19 -20 21 -106 21 -61
0 -93 -4 -89 -10 3 -5 15 -10 26 -10 34 0 21 -44 -16 -51 l-30 -6 30 -4 c29
-4 30 -5 29 -59 0 -49 -2 -55 -25 -60 -21 -5 -22 -7 -6 -13 10 -4 36 -7 56 -7
l38 0 2 -61 c2 -54 0 -60 -16 -57 -13 2 -19 14 -21 46 -2 23 -7 42 -11 42 -14
0 -21 -139 -12 -235 4 -49 9 -82 10 -72 1 20 24 47 39 47 16 0 21 -49 15 -137
l-6 -83 -36 -1 -36 -2 35 -6 c29 -6 22 -8 -44 -14 -43 -4 -99 -7 -124 -7 l-44
0 5 43 c4 23 7 141 9 262 1 121 6 226 11 233 6 8 5 12 -2 12 -7 0 -11 22 -11
60 0 33 3 60 8 60 4 0 7 18 7 40 0 40 -8 50 -21 29 -3 -6 -8 -180 -10 -387 -1
-208 -6 -428 -10 -490 l-7 -114 -54 54 c-29 29 -66 78 -81 108 l-27 55 -2 435
c-1 239 -2 447 -2 462 -1 38 -46 50 -177 47 -83 -2 -111 -6 -128 -20z m731
-225 c-3 -3 -12 -4 -19 -1 -8 3 -5 6 6 6 11 1 17 -2 13 -5z m6 -101 c-7 -2
-19 -2 -25 0 -7 3 -2 5 12 5 14 0 19 -2 13 -5z m-633 -276 c0 -14 -22 -29 -75
-51 l-37 -16 14 23 c13 20 72 57 91 57 4 0 7 -6 7 -13z m640 -7 c0 -5 -7 -10
-15 -10 -8 0 -15 5 -15 10 0 6 7 10 15 10 8 0 15 -4 15 -10z m-670 -275 l0
-115 -35 0 c-33 0 -34 1 -29 33 3 17 10 48 15 67 5 19 9 56 9 83 0 40 3 47 20
47 19 0 20 -7 20 -115z m1940 69 c0 -14 -12 -19 -23 -8 -9 9 4 35 14 28 5 -3
9 -12 9 -20z m683 9 c-4 -11 -3 -14 5 -9 7 4 12 5 12 2 0 -16 -21 -13 -30 4
-9 16 -8 20 4 20 10 0 13 -6 9 -17z m-729 -29 c3 -8 9 -13 14 -10 4 2 14 1 22
-5 10 -6 11 -9 3 -9 -7 0 -13 -9 -13 -20 0 -11 -5 -20 -11 -20 -6 0 -8 -7 -5
-16 5 -14 4 -15 -9 -4 -17 14 -18 6 -5 -25 6 -14 9 -15 10 -5 0 11 4 10 12 -5
14 -23 13 -30 -4 -30 -6 0 -13 -6 -16 -14 -3 -8 0 -11 5 -8 5 3 9 -3 9 -13 0
-12 -10 -21 -24 -25 -14 -3 -25 -5 -26 -3 0 2 -6 13 -13 24 -14 26 2 103 25
122 15 11 15 14 0 28 -13 13 -14 21 -5 35 14 23 23 24 31 3z m744 -11 c-10 -2
-26 -2 -35 0 -10 3 -2 5 17 5 19 0 27 -2 18 -5z m-35 -32 c3 8 6 -2 6 -21 0
-23 -2 -30 -8 -21 -7 11 -9 11 -14 0 -3 -8 -6 2 -6 21 0 23 2 30 8 21 7 -11 9
-11 14 0z m39 -21 c-2 -16 -5 -30 -7 -30 -2 0 -5 14 -7 30 -3 19 0 30 7 30 7
0 10 -11 7 -30z m652 4 c12 -32 6 -112 -10 -128 -22 -23 -51 -20 -60 7 -9 27
-9 111 0 126 11 17 63 13 70 -5z m-2137 -41 c-3 -10 -5 -4 -5 12 0 17 2 24 5
18 2 -7 2 -21 0 -30z m59 26 c4 -8 9 -7 15 2 6 10 9 7 9 -10 0 -16 -4 -22 -15
-17 -8 3 -15 0 -16 -7 -1 -7 -5 -1 -9 13 l-8 25 -1 -27 c-1 -38 -21 -36 -21 2
0 23 5 30 19 30 11 0 23 -5 27 -11z m724 -9 c0 -5 -4 -10 -10 -10 -5 0 -10 5
-10 10 0 6 5 10 10 10 6 0 10 -4 10 -10z m698 -27 c-10 -2 -26 -2 -35 0 -10 3
-2 5 17 5 19 0 27 -2 18 -5z m-1409 -168 c2 -101 -13 -181 -35 -189 -25 -10
-34 31 -34 158 0 110 2 125 18 128 45 10 50 1 51 -97z m711 55 c0 -5 -7 -7
-15 -4 -8 4 -12 10 -9 15 6 11 24 2 24 -11z m-1973 -76 l22 -6 -25 -48 c-40
-76 -54 -145 -54 -262 l0 -108 96 0 96 0 -7 -37 c-3 -20 -6 -69 -6 -110 0 -40
-4 -73 -9 -73 -5 0 -7 -7 -4 -15 4 -9 0 -15 -10 -15 -9 0 -16 -8 -16 -19 0
-11 -6 -22 -12 -24 -10 -4 -10 -6 -1 -6 7 -1 17 8 23 19 23 42 30 18 30 -101
0 -85 -3 -118 -11 -113 -8 5 -8 1 0 -14 14 -25 14 -43 1 -22 -6 9 -10 10 -10
3 0 -6 5 -15 10 -18 6 -4 10 -74 10 -177 0 -165 -1 -170 -20 -165 -28 7 -25
-2 4 -13 24 -9 24 -9 25 -189 l2 -181 -95 0 -96 0 -2 -437 c-2 -419 -3 -426
-8 -158 l-5 280 -7 -305 c-4 -168 -8 -319 -9 -337 0 -23 -6 -34 -20 -38 -12
-4 -23 -4 -26 -1 -4 4 -20 664 -23 944 l0 52 -34 0 c-18 0 -54 3 -80 6 l-46 7
0 622 0 622 37 7 c21 3 52 6 70 6 l31 0 4 143 c3 128 6 148 29 197 14 31 34
63 43 73 17 17 62 22 103 11z m3224 -215 c55 -25 69 -58 69 -162 0 -52 -4 -68
-17 -76 -10 -6 -16 -11 -13 -12 3 0 137 -4 298 -8 182 -5 297 -12 303 -18 7
-7 7 -124 0 -389 -6 -209 -13 -552 -16 -764 -3 -212 -8 -419 -10 -460 -2 -41
-4 -143 -5 -226 l0 -151 -37 -16 c-64 -28 -205 -46 -398 -52 l-185 -5 0 162
c0 182 6 238 26 238 7 0 25 5 41 12 15 6 31 11 35 10 10 -2 5 28 -6 46 -4 7
-14 11 -21 8 -7 -2 -16 2 -19 10 -6 16 -36 19 -36 3 0 -6 7 -9 15 -5 19 7 19
8 -5 -39 l-20 -39 0 126 0 127 53 -24 c28 -14 61 -25 72 -24 11 0 1 6 -22 13
-46 15 -103 52 -103 68 0 5 13 -1 30 -15 16 -14 46 -31 66 -37 36 -12 144 -9
175 4 10 5 16 2 16 -9 0 -11 -7 -14 -21 -10 -19 5 -19 5 2 -8 12 -7 19 -17 15
-22 -4 -4 -3 -5 3 -2 7 4 14 1 17 -7 7 -18 -24 -31 -34 -14 -7 10 -12 10 -26
1 -10 -6 -17 -16 -15 -22 3 -17 -132 -14 -175 4 -20 8 -38 13 -40 11 -12 -12
98 -40 156 -40 120 1 223 71 280 193 33 71 42 222 16 286 -8 22 -13 29 -10 15
3 -14 8 -46 12 -72 5 -44 4 -48 -16 -48 -14 0 -21 -6 -21 -20 0 -11 5 -20 10
-20 6 0 8 -12 6 -26 -4 -18 -1 -24 8 -21 10 4 11 -4 3 -39 -7 -27 -13 -40 -18
-32 -4 7 -6 15 -4 18 2 3 -5 6 -14 6 -11 0 -23 -12 -28 -27 -9 -22 -8 -26 3
-22 8 3 14 0 14 -7 0 -6 5 -8 10 -5 13 8 13 -1 -1 -27 -10 -19 -12 -18 -35 13
-13 18 -21 35 -16 38 12 10 32 50 32 65 0 8 5 18 10 21 7 4 9 -3 5 -22 -3 -15
-3 -23 1 -16 3 7 12 9 20 6 8 -3 14 0 14 7 0 6 -5 8 -11 4 -7 -4 -9 2 -7 17 2
14 -2 23 -8 22 -14 -3 -16 64 -3 73 5 3 9 11 9 17 0 7 -4 6 -10 -3 -8 -13 -10
-12 -10 3 0 9 7 17 15 17 9 0 12 6 8 16 -3 9 -1 19 5 23 7 4 8 12 2 21 -8 12
-10 11 -10 -5 0 -16 -2 -17 -9 -5 -6 8 -7 18 -5 22 3 4 1 8 -5 8 -5 0 -12 8
-16 19 -6 19 -38 61 -47 61 -3 0 -5 -7 -5 -15 0 -8 4 -12 8 -9 4 2 17 -11 28
-30 25 -39 27 -53 6 -36 -8 7 -15 18 -15 24 0 22 -100 77 -159 88 -49 9 -67 8
-112 -6 -30 -10 -62 -25 -71 -33 -17 -15 -18 -14 -18 10 0 15 5 27 11 27 5 0
7 -5 3 -12 -4 -7 -3 -8 5 -4 6 4 9 11 6 15 -5 9 55 27 112 35 38 5 123 -12
123 -25 0 -5 9 -9 20 -9 11 0 23 -7 26 -15 4 -8 10 -12 16 -9 12 7 -26 44 -45
44 -7 0 -17 3 -21 7 -4 5 -13 8 -19 8 -5 0 -12 6 -15 14 -3 8 0 11 7 7 6 -4 9
-2 5 7 -3 8 -19 14 -37 14 -29 0 -29 -1 -9 -10 25 -11 29 -27 7 -27 -8 0 -15
5 -15 11 0 8 -4 8 -14 0 -10 -9 -17 -7 -27 6 -12 15 -12 16 6 9 15 -5 17 -4 8
5 -14 14 -34 3 -27 -16 5 -11 -1 -15 -17 -14 -13 1 -41 -6 -61 -15 -47 -20
-43 -21 -46 9 -2 30 21 42 108 54 52 8 53 9 14 10 -23 0 -60 -6 -83 -14 l-41
-14 2 30 c1 17 9 36 18 42 13 11 13 10 1 -5 -7 -10 -9 -18 -4 -18 5 0 15 11
21 25 11 24 10 25 -13 19 l-24 -6 3 73 c2 41 4 149 5 242 1 187 5 195 60 127
17 -22 39 -40 48 -40 15 0 15 2 2 13 -41 35 -62 67 -52 79 35 43 16 98 -34 98
-20 0 -23 5 -23 43 0 129 -67 251 -195 356 -22 18 -35 30 -28 27 6 -3 35 10
64 29 62 41 77 42 140 14z m-2054 -351 c13 -25 18 -64 21 -154 l4 -121 -39 -6
c-21 -4 -66 -7 -100 -7 l-63 0 0 96 c0 53 5 114 12 136 14 48 67 88 115 88 26
0 36 -6 50 -32z m-407 -92 c0 -12 -35 -16 -202 -20 -112 -2 -225 -7 -253 -11
-27 -4 -70 -2 -93 3 l-44 10 7 -611 c5 -441 11 -622 20 -648 9 -27 9 -42 1
-55 -7 -12 -11 -81 -11 -180 l0 -162 60 -6 c33 -3 171 -9 308 -12 136 -4 247
-11 247 -16 0 -9 -499 -11 -578 -1 l-54 6 2 211 c1 116 0 267 -4 336 -3 69 -8
360 -11 648 l-6 522 306 0 c259 0 305 -2 305 -14z m2532 -62 c14 -31 1 -57
-31 -62 -19 -3 -21 1 -21 42 0 39 3 46 20 46 12 0 25 -10 32 -26z m-357 8
c-12 -8 -11 -3 -13 -171 l-2 -129 -35 -4 c-19 -2 -35 0 -35 6 0 5 -3 7 -6 3
-3 -3 6 -23 21 -44 16 -21 -7 -2 -49 42 l-78 80 82 -95 c85 -99 119 -150 100
-150 -7 0 -34 25 -61 54 -29 32 -56 53 -64 50 -7 -3 -16 -1 -20 5 -8 14 -25
14 -25 0 0 -5 4 -8 9 -4 18 11 21 -13 5 -44 -8 -17 -13 -35 -9 -41 3 -5 0 -10
-8 -10 -18 0 -26 -39 -15 -70 7 -18 11 -20 23 -10 24 20 18 -6 -7 -30 l-22
-20 -23 22 c-19 18 -27 20 -42 11 -14 -9 -18 -8 -18 5 0 10 4 23 10 30 5 7 7
15 4 19 -4 3 -12 -6 -18 -21 -11 -24 -17 -26 -70 -26 l-58 0 6 193 c5 186 -2
260 -32 340 -7 16 8 17 226 17 129 0 230 -4 224 -8z m-2612 -9 c-7 -2 -21 -2
-30 0 -10 3 -4 5 12 5 17 0 24 -2 18 -5z m-53 -25 c0 7 14 12 34 12 28 0 33
-3 32 -22 -1 -13 -7 -22 -15 -20 -7 1 -10 -2 -6 -8 10 -16 35 7 35 31 0 11 5
19 11 19 5 0 7 -4 4 -10 -3 -5 3 -10 15 -10 12 0 19 -4 16 -8 -6 -10 30 -9 40
1 4 4 45 7 90 7 67 0 82 -3 78 -14 -3 -7 -13 -13 -22 -12 -14 1 -16 -6 -14
-36 3 -35 2 -38 -23 -38 -15 0 -24 -4 -20 -10 3 -5 2 -10 -2 -10 -5 0 -9 -10
-9 -22 1 -28 3 -28 -95 -28 -78 0 -80 1 -74 23 5 19 4 20 -5 5 -6 -10 -16 -18
-23 -18 -7 0 -20 -14 -30 -32 -12 -21 -21 -28 -26 -20 -4 7 -11 4 -20 -11 -13
-20 -13 -21 2 -9 13 11 16 10 22 -7 3 -12 11 -21 17 -21 6 0 6 -6 -2 -15 -7
-8 -19 -15 -26 -15 -8 0 -14 -3 -14 -7 0 -5 -3 -19 -7 -33 -6 -23 -6 -24 10
-8 9 9 17 21 17 27 0 17 17 13 24 -5 3 -8 10 -12 16 -9 5 3 10 1 10 -5 0 -6
-8 -10 -17 -8 -43 7 -55 -30 -28 -82 9 -17 11 -30 5 -30 -5 0 -10 5 -10 10 0
6 -5 10 -10 10 -13 0 21 -49 34 -50 10 0 4 31 -15 76 -16 40 -6 72 17 54 11
-10 18 -10 27 -1 9 9 8 18 -5 41 -10 18 -13 32 -7 36 6 3 7 18 4 33 -4 19 -1
32 10 41 14 12 16 11 10 -13 -6 -23 -4 -25 15 -20 12 3 18 9 13 12 -19 14 -12
31 13 31 17 0 28 -6 31 -19 6 -24 49 -23 47 2 -2 14 1 15 12 6 8 -6 28 -9 47
-6 l32 6 -30 -14 c-26 -12 -27 -14 -8 -15 12 0 34 5 49 10 20 8 31 7 43 -4 20
-17 59 -16 71 3 7 12 13 13 35 3 14 -7 37 -12 50 -12 l24 0 0 -188 c0 -187 0
-188 -22 -188 -13 1 -23 -6 -25 -17 -2 -11 2 -18 10 -16 33 4 48 -2 48 -20 0
-16 -5 -18 -40 -14 -25 4 -46 1 -55 -7 -13 -10 -19 -10 -33 3 -19 17 -47 17
-78 0 -13 -7 -25 -8 -35 -2 -7 5 -25 8 -39 8 -25 0 -25 0 -2 -9 31 -13 28 -17
-8 -12 -17 2 -38 -2 -48 -9 -15 -12 -16 -12 -5 2 14 17 8 29 -14 29 -7 0 -13
-6 -13 -14 0 -35 -70 -24 -90 14 l-11 21 -20 -22 c-23 -27 -24 -24 3 -59 25
-34 57 -38 102 -15 17 9 49 17 72 19 38 3 42 1 42 -21 0 -18 -5 -23 -17 -18
-14 5 -14 4 1 -11 9 -9 26 -17 39 -18 15 -1 23 -8 25 -23 2 -13 -1 -23 -7 -23
-5 0 -7 -4 -4 -10 4 -6 -9 -10 -31 -10 -21 0 -46 -7 -57 -17 -13 -12 -21 -14
-24 -7 -3 8 -18 9 -51 2 -31 -5 -48 -5 -50 2 -2 5 -12 10 -22 10 -9 0 -25 10
-34 22 -15 22 -15 21 -11 -29 2 -29 1 -55 -4 -57 -11 -7 -11 -195 0 -202 5 -3
9 -26 9 -52 1 -37 3 -43 11 -29 5 9 18 17 29 17 10 0 20 5 22 12 3 8 11 9 24
3 27 -12 68 -13 75 -2 4 5 16 0 28 -12 19 -19 19 -21 4 -21 -15 0 -16 -2 -3
-10 8 -5 19 -5 25 -1 22 18 153 33 162 19 2 -5 23 -8 46 -8 35 -1 39 -3 26
-13 -9 -7 -14 -18 -11 -26 4 -11 -3 -13 -32 -8 -26 4 -36 2 -36 -8 0 -8 8 -11
23 -8 70 14 107 27 107 36 0 19 14 -3 17 -28 3 -21 -2 -26 -39 -36 -24 -7 -51
-12 -60 -11 -10 0 -18 -5 -18 -11 0 -7 -4 -6 -10 3 -9 13 -10 13 -10 0 0 -8
-3 -26 -7 -39 -6 -23 -5 -24 33 -17 78 14 102 24 107 44 2 9 4 -12 3 -48 l-1
-65 -87 -3 c-76 -2 -87 -1 -82 13 3 8 3 23 0 32 -6 15 -8 15 -16 3 -5 -8 -7
-22 -4 -31 4 -14 -7 -18 -70 -24 -54 -5 -80 -3 -95 7 -17 10 -25 10 -41 0 -31
-19 -43 -15 -38 13 3 13 1 22 -3 19 -5 -3 -9 1 -9 8 0 10 -2 10 -9 -1 -5 -7
-14 -10 -20 -7 -6 4 -11 2 -11 -3 0 -6 9 -11 20 -11 11 0 20 -4 20 -10 0 -5
-6 -10 -14 -10 -8 0 -23 -3 -33 -6 -15 -5 -15 -4 -3 5 13 9 8 15 -11 13 -4 -1
-5 7 -2 17 4 15 0 18 -21 14 -21 -4 -25 -2 -20 11 3 9 0 24 -7 33 -8 9 -9 14
-3 10 13 -8 41 20 30 30 -3 3 -6 1 -6 -5 0 -21 -28 -13 -34 11 -10 37 -7 50 9
43 8 -3 15 -1 15 5 0 5 -6 12 -13 15 -10 4 -14 47 -15 187 -1 100 -5 262 -8
360 -4 129 -3 177 5 177 8 0 9 5 1 19 -17 32 -13 61 8 55 16 -5 16 -5 0 6 -19
12 -25 36 -7 24 6 -3 15 0 20 7 15 24 10 37 -11 32 -18 -5 -19 0 -18 85 0 67
4 92 14 96 8 3 14 11 14 18 0 10 -2 10 -9 -1 -11 -17 -18 -4 -22 40 -2 20 3
44 10 53 8 9 12 32 9 54 -3 35 -1 38 14 28 13 -7 14 -12 5 -18 -7 -4 -7 -8 -2
-8 6 0 17 5 25 10 10 6 11 10 3 10 -7 0 -13 7 -13 16 0 8 -4 13 -9 9 -5 -3
-12 -1 -16 5 -3 5 1 10 10 10 10 0 14 5 10 13 -4 6 1 3 9 -7 9 -11 16 -14 16
-8z m2957 -45 c-2 -16 -4 -5 -4 22 0 28 2 40 4 28 2 -13 2 -35 0 -50z m-2811
41 c18 -14 18 -14 -6 -3 -31 14 -36 19 -24 19 6 0 19 -7 30 -16z m344 -57 l0
-53 -40 4 c-42 4 -53 25 -28 50 13 13 7 22 -18 26 -10 2 -20 8 -22 14 -2 8 14
12 52 12 l56 0 0 -53z m499 -81 c-2 -2 -76 -7 -164 -10 -111 -5 -155 -4 -145
3 14 10 319 16 309 7z m-212 -32 c-3 -3 -12 -4 -19 -1 -8 3 -5 6 6 6 11 1 17
-2 13 -5z m958 -60 c13 -9 28 -13 33 -10 12 7 37 -21 37 -43 0 -14 20 -16 177
-13 l177 3 36 -70 c19 -39 35 -76 35 -83 0 -7 -15 16 -33 52 -40 78 -33 76
-247 63 l-145 -8 175 -5 175 -5 28 -50 27 -50 -6 -250 -6 -250 -33 -75 -32
-75 -64 -8 c-88 -11 -616 -14 -712 -4 l-79 9 -19 41 c-19 41 -20 38 -4 -12 6
-21 5 -23 -14 -18 -11 3 -21 2 -21 -3 0 -13 40 -19 210 -31 158 -11 618 -6
718 7 l42 6 0 -60 c0 -43 -4 -61 -15 -65 -46 -18 -260 -31 -495 -31 -236 0
-356 9 -440 30 -17 5 -22 3 -15 -4 20 -20 154 -33 410 -39 253 -6 496 6 552
28 17 6 21 5 17 -5 -10 -27 -222 -46 -519 -46 -219 0 -435 17 -465 35 -15 9
-13 212 2 217 8 3 7 16 -5 49 -12 34 -17 104 -22 310 l-7 266 31 68 31 68 170
-5 c157 -5 171 -4 168 12 -4 24 20 50 48 50 12 0 26 5 29 10 9 15 42 12 70 -6z
m1212 -226 c-1 -46 -3 -11 -3 77 0 88 2 125 3 83 2 -42 2 -114 0 -160z m-1973
127 c4 -12 -3 -15 -36 -15 -35 0 -39 2 -28 15 7 8 23 15 35 15 13 0 25 -7 29
-15z m1560 -24 c3 -5 -1 -12 -10 -15 -20 -8 -29 -1 -19 13 8 13 22 14 29 2z
m-1846 -93 l-2 -73 -3 67 c-3 53 -7 68 -21 71 -12 3 -11 5 6 6 21 1 22 -2 20
-71z m1851 45 c0 -25 -1 -26 -9 -8 -12 27 -12 35 0 35 6 0 10 -12 9 -27z m-57
-55 c-9 -9 -12 -7 -12 12 0 19 3 21 12 12 9 -9 9 -15 0 -24z m-1742 7 c0 -8 5
-15 11 -15 6 0 9 7 5 15 -3 8 -1 15 5 15 7 0 9 -10 5 -23 -4 -18 2 -31 24 -52
17 -16 30 -33 30 -39 0 -5 -18 7 -39 28 -34 33 -40 36 -43 20 -3 -11 -6 0 -9
24 -2 23 -1 42 3 42 5 0 8 -7 8 -15z m74 -27 c4 -17 13 -28 24 -29 11 0 12 -2
4 -6 -21 -8 -42 17 -41 51 1 32 3 29 13 -16z m66 22 c0 -11 -2 -20 -4 -20 -2
0 -6 9 -9 20 -3 11 -1 20 4 20 5 0 9 -9 9 -20z m80 -45 c0 -5 -11 4 -25 20
-13 17 -24 35 -25 40 0 6 11 -3 25 -20 13 -16 24 -34 25 -40z m52 30 c2 -19 0
-35 -4 -35 -4 0 -8 6 -8 13 0 6 -3 22 -6 35 -4 12 -2 22 4 22 5 0 12 -16 14
-35z m45 -17 c-2 -13 -4 -5 -4 17 -1 22 1 32 4 23 2 -10 2 -28 0 -40z m43 38
c0 -8 -4 -17 -8 -20 -4 -2 -8 4 -8 15 0 10 4 19 8 19 4 0 8 -6 8 -14z m27 -38
c-2 -13 -4 -5 -4 17 -1 22 1 32 4 23 2 -10 2 -28 0 -40z m1422 36 c16 10 14
-42 -3 -59 -9 -10 -16 -11 -24 -3 -14 14 -4 38 14 31 8 -3 14 -1 14 5 0 5 -7
12 -15 16 -8 3 -15 11 -15 18 0 10 2 10 9 -1 5 -7 14 -10 20 -7z m41 -44 c0
-5 -5 -10 -11 -10 -5 0 -7 5 -4 10 3 6 8 10 11 10 2 0 4 -4 4 -10z m-292 -37
c-10 -2 -28 -2 -40 0 -13 2 -5 4 17 4 22 1 32 -1 23 -4z m-18 -108 c0 -72 -12
-84 -30 -29 -10 29 -10 38 0 44 7 4 10 15 7 23 -3 8 -3 18 0 21 17 16 23 0 23
-59z m88 47 c2 -7 -3 -12 -12 -12 -12 0 -16 -11 -16 -50 0 -27 -4 -50 -10 -50
-5 0 -10 23 -10 50 0 37 -4 50 -15 50 -8 0 -12 6 -9 14 7 17 66 15 72 -2z m71
-44 c6 -28 8 -54 5 -57 -4 -3 -9 0 -11 7 -7 18 -30 15 -42 -5 -23 -42 -21 21
5 104 8 27 31 0 43 -49z m121 2 c0 -40 -4 -51 -21 -60 -25 -14 -41 -3 -16 11
12 7 17 22 17 50 0 24 -4 38 -10 34 -5 -3 -10 -1 -10 4 0 6 9 11 20 11 17 0
20 -7 20 -50z m40 6 c0 -25 5 -48 11 -51 16 -10 19 -3 20 48 1 26 6 47 11 47
5 0 8 -24 6 -52 -3 -49 -5 -53 -28 -53 -23 0 -25 5 -30 53 -3 28 -2 52 2 52 5
0 8 -20 8 -44z m87 -13 c-3 -10 -5 -4 -5 12 0 17 2 24 5 18 2 -7 2 -21 0 -30z
m-1840 12 c0 -8 -6 -15 -12 -15 -6 0 -12 7 -12 15 0 8 6 15 12 15 6 0 12 -7
12 -15z m20 -7 c-3 -8 -6 -5 -6 6 -1 11 2 17 5 13 3 -3 4 -12 1 -19z m50 0
c-3 -8 -6 -5 -6 6 -1 11 2 17 5 13 3 -3 4 -12 1 -19z m1770 -50 c-3 -8 -6 -5
-6 6 -1 11 2 17 5 13 3 -3 4 -12 1 -19z m-2627 -17 c0 -5 3 -18 7 -28 6 -16 5
-16 -10 -4 -19 15 -23 41 -7 41 6 0 10 -4 10 -9z m3073 -3 c4 -10 8 -9 16 2 8
12 11 12 17 -3 4 -12 13 -16 26 -11 13 4 18 2 14 -4 -9 -16 13 -25 28 -13 11
9 22 3 50 -25 20 -20 36 -41 36 -47 0 -6 -3 -7 -7 -4 -3 4 -12 2 -18 -3 -9 -8
-14 -6 -19 5 -3 9 0 15 10 15 8 0 12 5 9 10 -5 8 -11 8 -20 0 -16 -13 -28 1
-19 23 3 8 1 18 -5 22 -6 3 -11 -1 -11 -10 0 -14 -3 -14 -30 0 -16 8 -37 15
-47 14 -10 0 -1 -7 19 -16 21 -8 36 -18 34 -22 -8 -12 10 -32 30 -36 10 -2 21
-4 24 -4 3 -1 -2 -6 -10 -12 -13 -9 -12 -10 3 -5 9 3 17 1 17 -4 0 -6 -6 -10
-12 -10 -9 0 -8 -4 2 -10 8 -5 11 -10 5 -10 -5 0 -3 -4 4 -9 9 -6 22 -6 32 0
24 12 29 11 29 -6 0 -12 -9 -15 -33 -12 -32 4 -33 3 -29 -31 5 -36 -30 -122
-49 -122 -6 0 -7 -5 -4 -10 5 -8 12 -7 23 2 10 7 6 0 -7 -15 -14 -15 -20 -27
-14 -27 6 0 16 7 23 15 13 15 30 12 30 -6 0 -5 -8 -9 -17 -7 -10 2 -18 -3 -19
-9 -3 -26 -5 -28 -14 -13 -5 8 -23 15 -41 16 -21 1 -27 -1 -18 -7 8 -5 10 -9
4 -9 -5 0 -27 -4 -47 -9 -22 -5 -38 -5 -38 0 0 5 12 9 26 9 14 0 22 4 19 10
-4 6 -19 5 -41 -5 -18 -7 -34 -11 -34 -8 0 4 -6 -1 -13 -12 -9 -11 -19 -15
-27 -10 -10 6 -10 10 2 19 13 9 8 16 -26 40 -23 16 -35 22 -29 14 12 -14 8
-28 -8 -28 -4 0 -5 64 -3 143 3 139 4 143 29 165 26 22 40 26 80 23 15 -1 17
0 7 7 -11 7 -8 11 11 14 20 4 24 1 20 -11 -3 -12 -2 -12 7 2 6 9 15 15 21 12
5 -4 9 -1 9 6 0 16 -86 3 -128 -20 -15 -8 -21 -7 -26 4 -3 8 -1 17 4 20 6 4
10 0 10 -7 1 -9 5 -7 14 5 8 10 20 15 30 11 9 -3 16 -1 16 6 0 7 8 9 20 5 11
-4 20 -2 20 4 0 15 27 14 33 -1z m-196 -195 c-2 -37 -3 -9 -3 62 0 72 1 102 3
68 2 -34 2 -93 0 -130z m-2427 122 c0 -33 -7 -40 -37 -36 -6 1 -14 -3 -18 -9
-4 -6 6 -10 24 -10 27 0 31 -4 31 -27 0 -21 -3 -24 -12 -15 -7 7 -29 12 -49
12 -38 0 -49 12 -49 52 0 17 5 20 29 15 31 -7 51 7 51 35 0 10 7 18 15 18 10
0 15 -11 15 -35z m1788 28 c-10 -2 -28 -2 -40 0 -13 2 -5 4 17 4 22 1 32 -1
23 -4z m96 1 c9 -3 13 -11 9 -18 -3 -6 3 -3 14 7 36 31 75 20 92 -26 10 -25 8
-32 -19 -59 -29 -28 -32 -29 -54 -15 -36 24 -46 5 -14 -27 15 -16 28 -24 28
-17 0 6 5 11 11 11 5 0 7 -4 4 -10 -3 -5 -1 -10 4 -10 6 0 11 5 11 10 0 19 28
10 33 -10 5 -20 27 -28 27 -10 0 6 5 10 12 10 24 0 -20 -32 -46 -33 -22 -2
-40 -27 -18 -27 4 0 14 6 21 13 11 10 11 8 2 -10 -20 -39 -12 -34 55 37 44 46
74 70 88 69 20 -1 20 -2 1 -6 -33 -8 -39 -21 -8 -17 15 2 20 1 11 -2 -10 -3
-18 -10 -18 -15 0 -6 6 -7 13 -3 7 4 9 3 4 -2 -5 -5 -13 -10 -18 -10 -5 -1
-12 -2 -17 -3 -4 0 -13 -11 -21 -23 -14 -23 -14 -23 8 -4 11 11 21 15 21 9 0
-12 -35 -45 -41 -38 -3 2 -5 -5 -6 -15 -1 -11 2 -20 7 -20 4 0 6 -9 3 -19 -3
-14 0 -19 14 -18 17 2 18 -7 17 -118 -1 -77 3 -123 10 -127 6 -4 -4 -8 -21 -8
-18 0 -33 -4 -33 -10 0 -5 15 -10 33 -11 17 0 26 -3 20 -6 -9 -3 -13 -31 -13
-89 0 -80 -1 -84 -22 -84 -22 0 -23 -4 -23 -72 0 -40 5 -76 10 -80 6 -5 4 -8
-5 -9 -8 -1 0 -4 19 -8 33 -6 34 -7 17 -24 -17 -16 -16 -17 11 -19 58 -3 -157
-16 -286 -17 l-134 -1 6 183 c4 100 10 316 13 480 l7 297 54 0 c29 0 53 4 53
9 0 5 8 12 18 14 9 3 18 5 19 6 1 0 8 -2 17 -5z m174 -18 c20 -12 14 -64 -7
-76 -11 -5 -24 -10 -30 -10 -19 0 -12 17 9 23 29 7 37 37 15 53 -10 7 -21 11
-26 9 -4 -3 -10 -1 -13 4 -7 10 35 8 52 -3z m422 -1 c0 -1 -7 -8 -15 -15 -13
-10 -15 -9 -15 8 0 15 5 20 15 16 8 -4 15 -7 15 -9z m255 -16 c11 -16 1 -19
-13 -3 -7 8 -8 14 -3 14 5 0 13 -5 16 -11z m123 -52 c5 -24 -15 -21 -21 4 -3
13 -1 19 6 16 7 -2 13 -11 15 -20z m-41 0 c-5 -15 -29 -16 -34 -2 -2 6 6 11
18 12 12 1 19 -3 16 -10z m-2396 -19 c11 -21 11 -22 -4 -9 -10 7 -17 17 -17
22 0 15 9 10 21 -13z m29 0 c0 -18 -2 -20 -9 -8 -6 8 -7 18 -5 22 9 14 14 9
14 -14z m44 -4 c3 -8 2 -12 -4 -9 -6 3 -10 10 -10 16 0 14 7 11 14 -7z m1446
-26 c0 -12 -6 -9 -26 13 -19 22 -19 22 4 8 12 -8 22 -17 22 -21z m30 2 c0 -5
-2 -10 -4 -10 -3 0 -8 5 -11 10 -3 6 -1 10 4 10 6 0 11 -4 11 -10z m58 -13
c-8 -16 -12 -17 -19 -6 -13 21 -11 25 10 25 16 0 18 -4 9 -19z m802 -24 c0 -7
-7 -13 -15 -13 -8 0 -15 6 -15 13 0 8 7 14 15 14 8 0 15 -6 15 -14z m77 -23
c1 -17 -2 -30 -7 -30 -5 0 -7 6 -4 14 3 8 1 17 -5 21 -15 9 -14 25 2 25 6 0
13 -14 14 -30z m-77 -20 c0 -6 -7 -13 -15 -16 -9 -4 -13 -13 -10 -24 3 -11 0
-17 -10 -17 -11 0 -14 6 -9 16 3 9 7 23 9 31 2 8 4 16 4 18 3 7 31 0 31 -8z
m-3152 -62 c-1 -51 -2 -51 -5 -10 -2 23 -8 42 -14 42 -5 0 -10 -19 -11 -42
l-1 -43 -7 45 -7 45 -1 -42 c-1 -24 -6 -43 -12 -43 -11 0 -13 24 -4 69 6 26
11 31 35 31 28 0 29 -1 27 -52z m68 -8 c1 -25 0 -33 -3 -17 -2 15 -8 27 -13
27 -5 0 -11 -12 -13 -27 -2 -17 -5 -9 -6 20 -1 41 2 48 17 45 13 -2 17 -14 18
-48z m54 -30 c4 0 11 6 13 13 3 7 6 5 6 -5 1 -12 -6 -18 -19 -18 -17 0 -20 6
-18 43 l1 42 4 -37 c2 -21 8 -38 13 -38z m80 60 c7 11 10 4 10 -27 0 -24 -4
-43 -9 -43 -4 0 -6 12 -3 27 4 21 2 25 -12 20 -12 -5 -16 -1 -16 16 0 18 2 19
10 7 9 -13 11 -13 20 0z m1801 -17 c-12 -20 -14 -14 -5 12 4 9 9 14 11 11 3
-2 0 -13 -6 -23z m1112 -19 c11 -11 -3 -24 -18 -18 -8 4 -12 10 -9 15 6 11 18
12 27 3z m-1107 -17 c9 3 14 -1 14 -14 0 -14 -8 -19 -30 -21 -29 -2 -29 -1
-18 24 7 14 14 22 16 16 2 -6 10 -8 18 -5z m1188 -13 c9 -24 8 -26 -14 -14
-11 6 -18 15 -15 21 9 14 22 11 29 -7z m-376 -36 c-6 -16 -21 -14 -24 4 -1 11
3 15 12 11 8 -3 13 -10 12 -15z m307 -9 c-4 -5 0 -9 8 -9 8 0 18 -7 21 -16 7
-17 -55 -84 -77 -84 -7 0 -6 4 3 10 13 8 12 10 -2 10 -10 0 -18 5 -18 11 0 5
6 7 13 4 6 -4 5 -1 -3 7 -22 19 -19 31 15 60 28 24 53 29 40 7z m-105 -14 c0
-8 -4 -15 -9 -15 -5 0 -11 7 -15 15 -3 9 0 15 9 15 8 0 15 -7 15 -15z m-2393
-1 c-3 -3 -12 -4 -19 -1 -8 3 -5 6 6 6 11 1 17 -2 13 -5z m2350 -9 c0 -8 -6
-15 -14 -15 -17 0 -17 17 0 23 6 3 12 6 13 6 0 1 1 -6 1 -14z m-82 -5 c-3 -5
-10 -10 -16 -10 -5 0 -9 5 -9 10 0 6 7 10 16 10 8 0 12 -4 9 -10z m35 -5 c0
-8 -4 -15 -10 -15 -5 0 -10 7 -10 15 0 8 5 15 10 15 6 0 10 -7 10 -15z m-2160
-5 c15 -5 -31 -8 -117 -9 -89 -1 -143 3 -143 9 0 12 223 12 260 0z m-444 -57
c-10 -10 -19 5 -10 18 6 11 8 11 12 0 2 -7 1 -15 -2 -18z m389 21 c20 -5 20
-13 18 -576 -1 -315 -5 -578 -7 -585 -6 -16 -92 -18 -130 -3 -21 8 -26 16 -26
43 0 19 -2 36 -5 38 -2 3 -7 243 -11 534 -3 292 -8 533 -10 537 -2 3 2 9 8 11
18 7 138 8 163 1z m2315 -60 c0 -2 -9 -4 -21 -4 -11 0 -18 4 -14 10 5 8 35 3
35 -6z m-293 -116 c-2 -13 -4 -3 -4 22 0 25 2 35 4 23 2 -13 2 -33 0 -45z
m108 22 c3 -5 1 -10 -4 -10 -6 0 -11 5 -11 10 0 6 2 10 4 10 3 0 8 -4 11 -10z
m-422 -182 c-10 -17 -11 -79 -1 -100 5 -11 5 -18 -1 -18 -14 0 -21 27 -21 81
0 38 4 49 16 49 10 0 12 -4 7 -12z m-2946 -350 c-3 -8 -6 -5 -6 6 -1 11 2 17
5 13 3 -3 4 -12 1 -19z m0 -60 c-3 -7 -5 -2 -5 12 0 14 2 19 5 13 2 -7 2 -19
0 -25z"/>
<path d="M658 2984 c-3 -3 -4 -14 -1 -25 5 -18 6 -19 19 -2 7 10 14 21 14 26
0 8 -24 10 -32 1z"/>
<path d="M553 2665 c0 -27 2 -38 4 -22 2 15 2 37 0 50 -2 12 -4 0 -4 -28z"/>
<path d="M663 2655 c0 -22 2 -30 4 -17 2 12 2 30 0 40 -3 9 -5 -1 -4 -23z"/>
<path d="M3989 2891 c-39 -39 -40 -89 -1 -131 44 -50 142 -53 142 -4 0 10 -7
7 -21 -7 -43 -43 -124 10 -123 81 2 53 26 80 73 80 40 0 55 -8 64 -30 3 -9 6
-4 6 13 1 26 0 27 -55 27 -48 0 -59 -4 -85 -29z"/>
<path d="M4170 2834 c4 -71 9 -88 25 -100 33 -24 68 -14 87 26 22 42 25 160 6
160 -10 0 -12 -19 -10 -70 5 -101 -29 -149 -71 -102 -13 14 -17 38 -17 95 0
55 -4 77 -12 77 -10 0 -12 -21 -8 -86z"/>
<path d="M4343 2908 c-21 -27 -20 -47 3 -84 25 -42 31 -79 12 -90 -6 -4 -17 1
-25 11 -11 16 -13 17 -13 3 0 -22 16 -31 40 -23 27 9 27 69 0 110 -11 17 -20
38 -20 47 0 23 20 34 31 17 7 -11 9 -10 9 4 0 20 -23 23 -37 5z"/>
<path d="M3973 2503 c9 -2 23 -2 30 0 6 3 -1 5 -18 5 -16 0 -22 -2 -12 -5z"/>
<path d="M4113 2501 c17 -6 17 -8 -3 -33 -16 -21 -33 -28 -78 -35 -31 -4 -68
-6 -82 -5 -14 2 -22 1 -18 -3 8 -8 158 -12 153 -5 -2 4 5 11 16 18 11 7 19 8
19 2 0 -5 5 -10 10 -10 14 0 12 27 -2 33 -8 4 -5 8 9 12 30 9 18 35 -16 34
-21 0 -22 -2 -8 -8z"/>
<path d="M3830 2444 c0 -9 10 -14 30 -14 17 0 30 2 30 4 0 2 -13 9 -30 15 -24
8 -30 7 -30 -5z"/>
<path d="M3828 2403 c7 -3 16 -2 19 1 4 3 -2 6 -13 5 -11 0 -14 -3 -6 -6z"/>
<path d="M4010 2390 c-11 -7 -11 -11 -1 -24 19 -23 6 -33 -44 -34 -27 -1 -43
3 -40 8 3 6 17 10 30 10 13 0 27 5 31 12 5 8 -2 9 -26 5 -18 -4 -36 -7 -40 -7
-12 0 -20 -28 -14 -45 7 -17 44 -21 44 -5 0 16 50 12 56 -5 4 -8 15 -15 26
-15 18 0 20 4 13 33 -4 17 -8 40 -9 49 -3 24 -9 28 -26 18z"/>
<path d="M4158 2393 c-16 -2 -28 -9 -28 -14 0 -14 42 -10 70 6 22 12 22 14 5
13 -11 0 -32 -3 -47 -5z"/>
<path d="M3885 2369 c-4 -6 -5 -12 -2 -15 2 -3 7 2 10 11 7 17 1 20 -8 4z"/>
<path d="M4198 2360 c-26 -24 -22 -34 16 -46 26 -8 33 -8 29 2 -6 16 -32 26
-46 17 -7 -4 -6 1 2 10 13 17 16 16 38 -5 13 -12 31 -38 40 -56 15 -32 16 -32
30 -12 8 11 19 18 24 15 13 -9 -8 -45 -26 -45 -19 0 -19 -1 1 -50 18 -44 41
-50 59 -15 11 21 12 81 3 91 -12 12 -19 -38 -8 -51 7 -8 9 -15 5 -15 -4 0 -13
8 -20 17 -11 14 -8 23 13 55 20 31 23 41 13 51 -10 9 -11 8 -6 -4 9 -24 -9
-31 -31 -13 -19 15 -19 15 1 9 16 -5 18 -4 8 6 -15 15 -17 33 -3 24 6 -3 10 1
10 9 0 21 -10 20 -40 -5 -18 -15 -20 -19 -6 -15 14 5 17 2 12 -10 -3 -8 -6
-20 -6 -25 0 -15 -29 2 -35 20 -3 10 -18 26 -33 38 -25 18 -28 19 -44 3z m149
-177 c-8 -7 -37 9 -31 19 3 5 12 4 20 -3 8 -6 13 -14 11 -16z"/>
<path d="M4106 2362 c-10 -9 -7 -72 3 -72 19 0 54 37 49 52 -7 16 -43 30 -52
20z m31 -36 c-5 -16 -27 -19 -27 -3 0 7 7 14 15 14 9 0 14 -5 12 -11z"/>
<path d="M4147 2292 c-3 -4 3 -13 14 -20 10 -7 19 -8 19 -3 0 13 -28 33 -33
23z"/>
<path d="M4200 2290 c0 -5 4 -10 9 -10 11 0 57 -68 66 -99 6 -18 4 -22 -6 -16
-8 5 -5 -2 6 -16 11 -13 21 -26 24 -29 15 -21 -17 77 -41 123 -27 50 -58 76
-58 47z"/>
<path d="M4085 2240 c22 -10 31 -18 20 -17 -11 2 -26 6 -32 10 -8 5 -13 3 -13
-7 0 -9 7 -17 15 -17 8 -1 21 -2 28 -3 6 -1 15 3 19 9 5 6 11 6 20 -3 9 -9 9
-12 -2 -12 -12 0 -12 -2 -2 -9 8 -4 12 -12 10 -16 -1 -5 5 -9 15 -11 18 -2 18
-2 1 17 -9 10 -12 19 -6 19 12 0 72 -69 72 -83 0 -4 -6 -5 -12 -1 -7 4 -9 3
-5 -1 4 -5 14 -10 22 -11 40 -6 -59 106 -119 135 -23 12 -49 21 -57 21 -8 0 4
-9 26 -20z"/>
<path d="M4140 2245 c7 -8 16 -12 21 -9 13 8 1 24 -18 24 -13 0 -13 -3 -3 -15z"/>
<path d="M3890 2239 c0 -5 5 -7 10 -4 6 3 10 8 10 11 0 2 -4 4 -10 4 -5 0 -10
-5 -10 -11z"/>
<path d="M3826 2208 c3 -5 10 -6 15 -3 13 9 11 12 -6 12 -8 0 -12 -4 -9 -9z"/>
<path d="M4200 2205 c0 -8 5 -15 10 -15 6 0 10 7 10 15 0 8 -4 15 -10 15 -5 0
-10 -7 -10 -15z"/>
<path d="M4374 2168 c3 -10 -1 -24 -10 -32 -9 -9 -10 -17 -4 -21 6 -3 13 2 17
12 3 10 7 20 9 23 1 3 -2 12 -8 20 -8 12 -9 12 -4 -2z"/>
<path d="M4326 2117 c3 -10 9 -15 12 -12 3 3 0 11 -7 18 -10 9 -11 8 -5 -6z"/>
<path d="M4330 2080 c0 -5 9 -19 20 -30 11 -11 20 -16 20 -11 0 5 -7 14 -15
21 -8 7 -12 16 -9 21 3 5 0 9 -5 9 -6 0 -11 -4 -11 -10z"/>
<path d="M4315 2030 c3 -5 8 -10 11 -10 2 0 4 5 4 10 0 6 -5 10 -11 10 -5 0
-7 -4 -4 -10z"/>
<path d="M4345 2010 c-3 -6 -11 -7 -17 -4 -8 5 -9 1 -5 -9 9 -22 15 -44 10
-35 -2 4 -11 4 -19 1 -24 -9 -17 -67 11 -91 23 -20 24 -24 10 -38 -16 -17 -20
-34 -7 -34 11 0 39 50 44 76 1 12 -6 32 -17 45 -11 12 -15 19 -8 15 12 -7 18
7 25 58 3 21 -16 33 -27 16z"/>
<path d="M4350 1795 c-7 -9 -8 -15 -2 -15 5 0 12 7 16 15 3 8 4 15 2 15 -2 0
-9 -7 -16 -15z"/>
<path d="M4277 1760 c-14 -22 -22 -40 -16 -40 5 0 9 5 9 12 0 6 2 9 5 6 6 -6
-34 -85 -57 -112 -16 -17 -16 -22 -4 -41 11 -16 12 -25 4 -33 -19 -19 20 -26
47 -8 13 9 30 16 36 16 7 0 18 8 26 18 14 16 14 16 7 -3 -3 -11 -6 -33 -5 -50
0 -16 -2 -25 -6 -20 -5 6 -15 11 -23 12 -12 2 -15 -10 -16 -55 -1 -31 1 -48 3
-37 6 26 23 44 23 25 0 -9 6 -6 16 8 22 32 38 28 31 -8 -5 -22 -3 -30 8 -30
21 0 21 78 0 86 -18 7 -20 40 -2 48 10 5 10 7 0 12 -7 3 -13 13 -13 21 0 13 3
13 15 3 12 -10 15 -10 15 3 0 23 -24 39 -38 25 -9 -9 -12 -9 -12 -1 0 6 5 13
12 15 8 3 5 12 -10 28 -29 32 -44 87 -31 112 20 37 2 28 -24 -12z m-7 -194 c0
-3 -4 -8 -10 -11 -5 -3 -10 -1 -10 4 0 6 5 11 10 11 6 0 10 -2 10 -4z m51 -81
c5 4 6 -1 3 -9 -8 -20 -24 -11 -23 12 0 11 2 12 6 4 2 -6 9 -10 14 -7z"/>
<path d="M4339 1748 c0 -13 -3 -17 -6 -10 -8 20 -22 14 -16 -8 3 -11 9 -18 13
-15 4 3 10 -4 13 -15 5 -20 27 -28 27 -10 0 6 -4 10 -10 10 -5 0 -10 7 -10 16
0 8 5 12 10 9 6 -4 10 5 10 19 0 33 -30 36 -31 4z"/>
<path d="M3883 1646 c11 -8 25 -12 33 -9 18 7 16 9 -21 17 -28 6 -29 5 -12 -8z"/>
<path d="M3996 1644 c15 -6 35 -9 46 -6 33 8 19 17 -28 17 -43 0 -44 -1 -18
-11z"/>
<path d="M3940 1629 c0 -5 5 -7 10 -4 6 3 10 8 10 11 0 2 -4 4 -10 4 -5 0 -10
-5 -10 -11z"/>
<path d="M3880 1626 c0 -2 8 -10 18 -17 15 -13 16 -12 3 4 -13 16 -21 21 -21
13z"/>
<path d="M3968 1608 c5 -5 16 -8 23 -6 8 3 3 7 -10 11 -17 4 -21 3 -13 -5z"/>
<path d="M4139 1605 c-1 -3 -2 -8 -3 -12 -7 -35 -27 -48 -73 -48 -42 0 -48 -3
-51 -22 -4 -28 14 -30 30 -3 16 26 32 26 18 1 -16 -30 -13 -34 25 -29 26 3 34
1 31 -9 -3 -7 -1 -13 4 -13 6 0 10 11 10 25 0 14 9 34 20 45 21 21 27 50 9 50
-5 0 -7 5 -4 10 3 6 1 10 -4 10 -6 0 -12 -2 -12 -5z"/>
<path d="M4180 1590 c0 -5 5 -10 11 -10 5 0 7 5 4 10 -3 6 -8 10 -11 10 -2 0
-4 -4 -4 -10z"/>
<path d="M3855 1570 c-3 -5 -1 -10 4 -10 6 0 11 5 11 10 0 6 -2 10 -4 10 -3 0
-8 -4 -11 -10z"/>
<path d="M4065 1570 c-3 -5 1 -10 9 -10 8 0 18 5 21 10 3 6 -1 10 -9 10 -8 0
-18 -4 -21 -10z"/>
<path d="M3900 1545 c-10 -13 -10 -15 6 -15 10 0 28 -10 41 -22 22 -20 25 -21
40 -5 21 20 15 26 -27 32 -18 2 -36 9 -40 15 -5 7 -11 6 -20 -5z"/>
<path d="M3950 1556 c0 -9 30 -14 35 -6 4 6 -3 10 -14 10 -12 0 -21 -2 -21 -4z"/>
<path d="M4176 1544 c-10 -26 -7 -66 5 -59 5 4 8 12 6 18 -2 7 0 22 4 35 5 12
5 22 0 22 -5 0 -12 -7 -15 -16z"/>
<path d="M4285 1540 c-3 -5 1 -10 9 -10 9 0 16 5 16 10 0 6 -4 10 -9 10 -6 0
-13 -4 -16 -10z"/>
<path d="M4253 1514 c3 -4 0 -13 -8 -21 -8 -8 -15 -20 -15 -26 1 -14 40 30 40
44 0 5 -5 9 -12 9 -6 0 -9 -3 -5 -6z"/>
<path d="M4143 1465 c-10 -10 -9 -14 2 -19 17 -6 31 12 19 24 -5 5 -14 2 -21
-5z"/>
<path d="M3903 1434 c-12 -18 -18 -36 -13 -39 4 -3 11 2 14 11 4 9 9 14 12 11
4 -3 13 0 20 8 8 7 22 11 33 8 10 -3 22 1 26 8 5 8 4 10 -3 5 -7 -4 -12 -3
-12 3 0 5 -8 8 -17 6 -10 -1 -22 1 -28 5 -6 4 -20 -7 -32 -26z"/>
<path d="M4227 1439 c7 -7 15 -10 18 -7 3 3 -2 9 -12 12 -14 6 -15 5 -6 -5z"/>
<path d="M4067 1433 c-4 -3 -7 -13 -7 -22 1 -13 3 -13 11 2 11 19 8 33 -4 20z"/>
<path d="M4162 1419 c-19 -30 -11 -32 11 -3 10 13 14 24 10 24 -5 0 -14 -9
-21 -21z"/>
<path d="M4112 1410 c-7 -11 -9 -20 -4 -20 4 0 13 9 20 20 7 11 9 20 4 20 -4
0 -13 -9 -20 -20z"/>
<path d="M3950 1408 c0 -4 6 -8 14 -8 8 0 17 4 20 8 2 4 -4 8 -15 8 -10 0 -19
-4 -19 -8z"/>
<path d="M4000 1410 c0 -5 5 -10 10 -10 6 0 10 5 10 10 0 6 -4 10 -10 10 -5 0
-10 -4 -10 -10z"/>
<path d="M3300 2581 c0 -16 5 -33 10 -36 6 -4 10 5 10 19 0 14 0 29 1 33 0 4
-4 9 -10 11 -6 2 -11 -9 -11 -27z"/>
<path d="M3355 2560 c3 -5 8 -10 11 -10 2 0 4 5 4 10 0 6 -5 10 -11 10 -5 0
-7 -4 -4 -10z"/>
<path d="M3231 2492 c-14 -26 -4 -72 15 -72 9 0 14 -11 14 -32 0 -19 4 -28 9
-22 5 5 6 27 1 49 -4 22 -8 34 -9 28 -2 -25 -21 -13 -21 13 0 14 4 23 10 19
12 -8 13 5 1 24 -7 11 -11 9 -20 -7z"/>
<path d="M3305 2480 c-3 -5 -1 -10 4 -10 6 0 11 5 11 10 0 6 -2 10 -4 10 -3 0
-8 -4 -11 -10z"/>
<path d="M860 2845 c-9 -10 -9 -15 -1 -15 6 0 11 4 11 9 0 5 8 12 18 14 14 4
14 5 1 6 -9 0 -22 -6 -29 -14z"/>
<path d="M921 2767 c-13 -21 -12 -21 5 -5 10 10 16 20 13 22 -3 3 -11 -5 -18
-17z"/>
<path d="M889 2744 c6 -12 7 -24 4 -28 -3 -3 -1 -6 5 -6 16 0 15 12 -4 36 -15
18 -15 18 -5 -2z"/>
<path d="M840 2670 c0 -5 5 -10 11 -10 5 0 7 5 4 10 -3 6 -8 10 -11 10 -2 0
-4 -4 -4 -10z"/>
<path d="M1210 2454 c0 -15 4 -23 10 -19 6 4 15 -7 21 -24 6 -17 15 -31 20
-31 5 0 9 2 9 4 0 7 -52 96 -56 96 -2 0 -4 -12 -4 -26z"/>
<path d="M1287 2443 c-14 -30 -14 -34 -2 -19 14 19 15 18 15 -17 0 -20 5 -37
10 -37 6 0 10 25 10 55 0 30 -4 55 -8 55 -5 0 -16 -17 -25 -37z"/>
<path d="M1135 2455 c4 -11 12 -32 17 -47 5 -16 14 -28 18 -28 10 0 -17 70
-32 85 -8 7 -9 4 -3 -10z"/>
<path d="M827 2339 c-4 -16 -3 -18 8 -9 10 8 18 6 34 -11 25 -27 35 -21 22 15
-13 33 -56 37 -64 5z"/>
<path d="M828 2298 c7 -7 12 -21 12 -31 0 -16 -2 -17 -15 -7 -9 7 -18 10 -22
6 -3 -3 -2 -6 4 -6 18 0 33 -56 20 -70 -9 -10 -9 -11 3 -8 8 3 14 12 14 21 -1
9 4 13 11 10 16 -5 35 26 35 56 0 33 -17 25 -25 -11 -6 -25 -9 -28 -12 -13 -2
11 -6 30 -9 43 -2 12 -10 22 -16 22 -9 0 -9 -3 0 -12z"/>
<path d="M797 2243 c-3 -5 -1 -17 4 -28 7 -17 8 -17 8 8 1 27 -4 34 -12 20z"/>
<path d="M1035 2235 c-27 -13 -28 -14 -7 -16 26 -1 59 -2 68 0 8 1 -16 31 -25
30 -3 0 -19 -7 -36 -14z"/>
<path d="M1174 1606 c-6 -26 1 -46 16 -46 12 0 22 34 14 54 -9 23 -23 20 -30
-8z"/>
<path d="M829 1593 c15 -30 14 -43 -4 -43 -8 0 -15 -8 -15 -17 0 -11 3 -14 8
-8 4 6 18 12 31 12 13 1 29 7 35 14 8 9 8 10 -1 5 -7 -4 -13 -2 -13 4 0 6 -4
8 -10 5 -5 -3 -10 -2 -10 2 0 5 -7 18 -16 29 -15 18 -15 18 -5 -3z"/>
<path d="M860 1586 c0 -2 7 -7 16 -10 8 -3 12 -2 9 4 -6 10 -25 14 -25 6z"/>
<path d="M1135 1580 c-3 -5 1 -10 10 -10 9 0 13 5 10 10 -3 6 -8 10 -10 10 -2
0 -7 -4 -10 -10z"/>
<path d="M1305 1565 c-22 -8 -31 -14 -20 -14 11 0 34 6 50 14 38 17 22 17 -30
0z"/>
<path d="M988 1548 c-3 -7 -1 -24 4 -37 11 -30 31 -15 26 20 -3 25 -23 36 -30
17z"/>
<path d="M1178 1543 c7 -3 16 -2 19 1 4 3 -2 6 -13 5 -11 0 -14 -3 -6 -6z"/>
<path d="M903 1534 c9 -3 17 -10 17 -15 0 -12 -7 -11 -31 1 -13 7 -19 7 -19 0
0 -5 6 -10 13 -10 6 0 12 -11 12 -25 0 -16 -5 -23 -12 -21 -7 3 -15 0 -19 -6
-4 -6 -3 -8 4 -4 6 3 14 1 18 -5 5 -8 9 -7 14 2 7 10 11 10 24 0 15 -13 23 -2
9 13 -4 3 -7 21 -7 39 -1 24 -6 32 -21 34 -16 1 -16 1 -2 -3z m17 -43 c0 -6
-4 -12 -8 -15 -5 -3 -9 1 -9 9 0 8 4 15 9 15 4 0 8 -4 8 -9z"/>
<path d="M1051 1528 c-1 -23 9 -48 20 -48 5 0 8 11 7 24 -1 14 -5 23 -9 20 -4
-2 -10 2 -12 8 -4 8 -6 7 -6 -4z"/>
<path d="M1090 1500 c0 -16 3 -30 8 -30 4 0 7 14 7 30 0 17 -3 30 -7 30 -5 0
-8 -13 -8 -30z"/>
<path d="M1181 1521 c-9 -6 -10 -10 -2 -16 7 -3 9 -15 6 -26 -8 -23 13 -26 22
-3 9 23 -9 55 -26 45z"/>
<path d="M1122 1495 c1 -14 6 -25 10 -25 4 0 8 11 8 25 0 14 -4 25 -10 25 -5
0 -9 -11 -8 -25z"/>
<path d="M1163 1473 c-1 -24 -1 -25 7 -8 11 26 12 35 2 35 -4 0 -8 -12 -9 -27z"/>
<path d="M1277 1453 c-32 -9 -56 -18 -53 -20 6 -7 119 18 131 29 13 11 -9 9
-78 -9z"/>
<path d="M1128 1433 c7 -3 16 -2 19 1 4 3 -2 6 -13 5 -11 0 -14 -3 -6 -6z"/>
<path d="M2077 2475 c-15 -31 -27 -61 -26 -68 0 -6 13 15 28 48 l28 60 169 -1
c156 -2 161 -1 64 6 -58 4 -134 8 -170 9 l-66 1 -27 -55z"/>
<path d="M2560 2495 c-11 -13 -10 -14 4 -9 9 3 16 10 16 15 0 13 -6 11 -20 -6z"/>
<path d="M2595 2490 c-3 -5 -1 -10 4 -10 6 0 11 5 11 10 0 6 -2 10 -4 10 -3 0
-8 -4 -11 -10z"/>
<path d="M2960 2461 c0 -6 4 -13 10 -16 6 -3 7 1 4 9 -7 18 -14 21 -14 7z"/>
<path d="M2673 2444 c-3 -9 -12 -13 -21 -9 -23 9 -33 -16 -14 -33 10 -8 5 -7
-11 2 -25 15 -30 15 -49 1 -20 -14 -21 -15 -4 -15 11 0 16 -3 13 -7 -4 -3 0
-15 10 -25 15 -17 15 -18 -7 -18 -13 0 -31 7 -40 15 -14 13 -16 12 -16 -5 0
-16 9 -19 64 -22 60 -3 66 -1 83 24 16 22 26 26 65 25 45 0 46 -1 20 -14 -14
-7 -30 -22 -36 -32 -6 -12 -17 -17 -29 -14 -10 2 -34 -4 -52 -14 l-34 -18 48
-3 c33 -2 52 2 63 12 8 9 32 16 53 16 30 0 42 6 59 30 27 36 34 37 72 8 28
-20 29 -23 14 -39 -25 -27 -46 -127 -32 -153 15 -28 12 -75 -6 -95 -14 -15
-14 -19 -1 -38 10 -14 12 -24 5 -28 -5 -3 -10 -14 -10 -25 0 -27 -27 -32 -44
-8 -9 12 -19 19 -22 15 -4 -4 1 -16 11 -28 35 -38 -17 -79 -56 -43 -10 9 -40
23 -66 30 -46 11 -47 12 -23 22 21 9 22 11 5 11 -11 0 -45 -22 -75 -49 -52
-47 -54 -50 -28 -50 15 0 30 -4 33 -10 8 -13 -38 -13 -51 0 -7 7 -21 6 -43 -3
-28 -12 -30 -15 -17 -27 9 -7 16 -9 16 -5 0 5 9 0 20 -10 11 -10 20 -13 20 -8
0 6 8 13 18 17 9 3 23 9 30 12 7 3 12 -1 12 -9 0 -13 6 -14 30 -7 17 5 30 6
30 3 0 -3 11 2 25 11 22 15 25 15 25 1 0 -9 8 -25 18 -35 18 -20 19 -20 42 2
l23 22 -6 -23 c-5 -19 -3 -21 11 -9 9 7 20 17 24 22 4 6 13 4 22 -3 9 -8 16
-9 16 -4 0 5 7 18 15 29 11 14 14 15 9 3 -3 -10 -1 -20 5 -24 6 -3 11 1 11 11
0 16 1 16 14 -1 14 -19 15 -19 26 5 6 14 24 33 39 41 27 16 28 20 21 57 -4 22
-3 47 1 54 5 7 8 27 7 43 -1 17 2 41 6 54 5 13 4 21 0 18 -10 -5 -7 78 3 103
3 8 5 20 4 25 -19 75 -24 135 -11 135 6 0 8 5 5 10 -4 6 -11 8 -16 5 -5 -4 -9
8 -9 25 0 18 -5 30 -11 28 -12 -4 -12 -7 -3 -44 4 -15 2 -30 -6 -37 -10 -10
-12 -7 -7 11 3 14 1 22 -8 22 -7 0 -11 10 -10 23 2 14 -5 28 -16 35 -23 15
-25 6 -4 -15 17 -17 11 -33 -12 -33 -9 0 -14 3 -10 6 10 11 -37 51 -66 56 -26
5 -27 4 -13 -16 8 -11 19 -20 25 -18 17 3 13 -15 -4 -22 -21 -8 -46 4 -39 18
3 6 -2 2 -11 -9 -17 -20 -17 -19 -12 8 2 15 0 30 -5 33 -4 3 -7 0 -6 -8 2 -9
-6 -12 -24 -10 -23 2 -27 -1 -22 -15 3 -10 -2 -7 -10 7 -8 14 -16 21 -16 15 0
-5 -5 -2 -11 8 -12 21 -28 22 -36 1z m259 -224 c-2 -17 -8 -30 -13 -30 -10 0
-11 25 -2 58 8 32 21 9 15 -28z m28 -99 c0 -10 -7 -24 -15 -31 -16 -13 -18 -8
-9 28 8 27 24 29 24 3z m5 -121 c0 -22 -23 -23 -35 -1 -9 19 -8 21 12 17 13
-1 23 -9 23 -16z m-245 -112 c0 -5 -9 -4 -20 2 -10 6 -24 9 -31 8 -6 -2 -13 2
-16 9 -6 17 40 21 55 4 6 -8 12 -19 12 -23z m289 -2 c-14 -15 -22 0 -13 26 7
22 7 22 14 3 4 -11 4 -24 -1 -29z m-334 -26 c3 -5 -4 -6 -15 -3 -11 3 -22 9
-25 13 -3 5 4 6 15 3 11 -3 22 -9 25 -13z"/>
<path d="M2210 2431 c0 -10 -8 -25 -17 -32 -10 -9 -14 -9 -10 -2 5 8 -1 8 -19
-2 -15 -7 -30 -19 -35 -26 -6 -10 -11 -10 -25 2 -16 13 -16 12 -7 -6 6 -11 7
-29 2 -40 -11 -27 -11 -165 0 -165 5 0 9 -11 9 -25 0 -14 -5 -25 -10 -25 -6 0
-6 -5 1 -14 8 -10 8 -21 0 -45 -9 -25 -9 -38 0 -55 7 -12 14 -34 15 -49 4 -34
26 -63 36 -46 6 8 9 8 14 0 4 -6 1 -14 -7 -17 -16 -6 -12 -44 5 -44 5 0 6 -6
3 -12 -4 -7 3 -2 14 11 15 16 20 33 17 56 -3 27 -1 33 11 28 12 -5 12 -7 1
-14 -10 -7 -9 -9 5 -9 9 0 17 -5 17 -11 0 -5 5 -7 11 -3 7 4 10 -3 7 -22 -2
-17 2 -29 11 -32 9 -3 11 0 6 9 -5 8 3 3 18 -10 14 -12 30 -20 37 -16 6 3 10
3 9 -2 -3 -20 2 -22 19 -5 10 9 17 22 15 28 -3 7 0 15 6 18 5 4 12 -2 15 -11
4 -14 16 -18 48 -18 36 0 43 3 43 20 0 11 10 25 23 31 22 11 22 11 -18 48 -46
41 -48 46 -18 46 12 0 19 3 15 6 -10 10 -58 -6 -52 -16 4 -6 -4 -14 -17 -19
-22 -9 -22 -10 6 -10 25 -1 28 -4 22 -27 -6 -23 -4 -26 13 -21 14 3 18 1 14
-9 -6 -17 -44 -19 -41 -2 5 23 -32 19 -55 -6 -29 -31 -33 -32 -33 -6 0 12 7
20 17 20 16 0 34 38 23 49 -2 3 -17 -5 -32 -16 -19 -15 -27 -29 -26 -50 l2
-30 -34 35 c-25 26 -33 41 -28 56 5 17 4 18 -6 9 -10 -9 -17 -3 -34 30 -19 37
-20 45 -8 64 12 19 12 27 1 53 -16 36 -25 38 -35 8 l-6 -21 -13 24 c-8 13 -17
23 -21 21 -5 -2 -10 2 -13 10 -2 7 0 10 4 5 5 -4 17 0 26 9 17 16 19 16 25 0
12 -30 23 -16 30 40 4 37 2 69 -6 95 -15 45 -43 74 -61 63 -8 -4 -10 -3 -5 4
4 7 13 12 20 12 27 0 71 45 71 73 1 15 -3 27 -7 27 -4 0 -8 -8 -8 -19z m-12
-220 c-4 -30 -28 -41 -28 -13 0 31 -11 52 -25 52 -8 0 -16 4 -19 9 -3 4 5 6
18 4 13 -3 27 1 31 8 11 17 27 -26 23 -60z m-81 -28 c-3 -10 -5 -2 -5 17 0 19
2 27 5 18 2 -10 2 -26 0 -35z m75 -141 c-1 -7 -3 -20 -5 -30 -6 -37 -21 -49
-45 -33 -21 13 11 84 35 79 10 -2 17 -10 15 -16z"/>
<path d="M2420 2445 c-1 -5 -2 -14 -1 -19 1 -4 -3 -14 -10 -22 -13 -15 -3 -37
13 -28 7 4 8 2 4 -5 -14 -22 14 -41 58 -40 30 2 33 3 14 6 -16 2 -28 8 -28 12
0 14 36 41 56 42 17 0 16 2 -4 11 -17 9 -28 8 -47 -2 -30 -16 -42 -8 -20 13
15 16 4 34 -14 23 -5 -4 -12 0 -14 6 -3 7 -6 9 -7 3z"/>
<path d="M2156 2432 c-3 -5 1 -9 9 -9 8 0 15 4 15 9 0 4 -4 8 -9 8 -6 0 -12
-4 -15 -8z"/>
<path d="M2275 2398 c5 -13 1 -16 -16 -13 -21 4 -21 4 -3 -16 13 -14 28 -19
56 -17 44 2 47 5 16 17 -15 6 -29 5 -38 -3 -13 -10 -13 -9 -1 7 10 12 22 16
38 12 13 -3 23 -1 23 5 0 5 -5 10 -11 10 -5 0 -8 4 -5 8 2 4 -11 8 -30 8 -28
0 -33 -3 -29 -18z"/>
<path d="M2370 2400 c0 -5 5 -10 11 -10 5 0 7 5 4 10 -3 6 -8 10 -11 10 -2 0
-4 -4 -4 -10z"/>
<path d="M3031 2343 c0 -4 4 -17 9 -28 8 -19 9 -19 9 2 1 12 -3 25 -9 28 -5 3
-10 3 -9 -2z"/>
<path d="M2310 2325 c-24 -14 -24 -14 12 -8 30 4 39 2 50 -16 10 -17 23 -21
61 -21 32 0 46 4 42 11 -4 6 -24 9 -46 8 -29 -3 -44 2 -59 19 -24 26 -27 26
-60 7z"/>
<path d="M3035 2280 c3 -5 8 -10 11 -10 2 0 4 5 4 10 0 6 -5 10 -11 10 -5 0
-7 -4 -4 -10z"/>
<path d="M2290 2140 c0 -38 3 -70 8 -70 4 0 7 31 7 70 0 38 -3 70 -7 70 -5 0
-8 -31 -8 -70z"/>
<path d="M2333 2190 c8 -15 9 -25 1 -37 -8 -13 -6 -25 10 -50 27 -42 41 -43
16 0 -12 20 -16 37 -11 46 11 17 3 48 -15 55 -11 4 -12 2 -1 -14z"/>
<path d="M2805 2138 c0 -32 4 -58 10 -58 6 0 10 26 10 58 0 33 -4 59 -10 59
-6 0 -10 -26 -10 -59z"/>
<path d="M2402 2155 c-2 -19 2 -44 8 -55 12 -22 58 -28 65 -7 9 27 12 97 4 97
-4 0 -9 -21 -11 -47 -3 -40 -6 -48 -25 -51 -26 -4 -38 25 -28 68 4 17 3 30 -2
30 -5 0 -10 -16 -11 -35z"/>
<path d="M2528 2183 c22 -4 24 -9 20 -54 -2 -28 1 -49 7 -49 6 0 9 21 7 49 -4
45 -2 50 20 54 12 2 1 4 -27 4 -27 0 -39 -2 -27 -4z"/>
<path d="M2625 2135 c0 -37 4 -55 13 -55 8 0 12 18 12 55 0 37 -4 55 -12 55
-9 0 -13 -18 -13 -55z"/>
<path d="M2685 2135 c0 -30 3 -55 8 -55 4 0 7 21 7 47 l0 48 34 -48 34 -48 4
56 c1 30 0 55 -4 55 -5 0 -8 -17 -8 -37 l0 -38 -27 38 c-36 51 -48 47 -48 -18z"/>
<path d="M2461 2024 c0 -11 3 -14 6 -6 3 7 2 16 -1 19 -3 4 -6 -2 -5 -13z"/>
<path d="M2600 2030 c0 -5 5 -10 11 -10 5 0 7 5 4 10 -3 6 -8 10 -11 10 -2 0
-4 -4 -4 -10z"/>
<path d="M2405 2020 c-3 -5 -1 -10 4 -10 6 0 11 5 11 10 0 6 -2 10 -4 10 -3 0
-8 -4 -11 -10z"/>
<path d="M2635 2020 c3 -5 8 -10 11 -10 2 0 4 5 4 10 0 6 -5 10 -11 10 -5 0
-7 -4 -4 -10z"/>
<path d="M2680 2015 c0 -9 5 -13 10 -10 6 3 10 2 10 -2 0 -5 9 -9 20 -10 11
-1 20 3 20 9 0 6 -3 8 -7 5 -3 -4 -17 0 -30 8 -21 14 -23 14 -23 0z"/>
<path d="M2603 1973 c9 -2 25 -2 35 0 9 3 1 5 -18 5 -19 0 -27 -2 -17 -5z"/>
<path d="M2536 1952 c-3 -5 -1 -14 3 -20 6 -10 10 -10 20 1 9 12 8 16 -3 20
-9 4 -17 3 -20 -1z"/>
<path d="M2544 1898 l-19 -23 23 19 c12 11 22 21 22 23 0 8 -8 2 -26 -19z"/>
<path d="M2070 1875 c0 -5 5 -17 10 -25 5 -8 10 -10 10 -5 0 6 -5 17 -10 25
-5 8 -10 11 -10 5z"/>
<path d="M2990 1723 c0 -5 6 -15 13 -22 6 -8 7 -11 2 -8 -7 3 -11 -8 -11 -29
0 -22 5 -34 13 -34 20 0 27 27 17 62 -9 29 -34 52 -34 31z"/>
<path d="M2908 1693 c7 -3 16 -2 19 1 4 3 -2 6 -13 5 -11 0 -14 -3 -6 -6z"/>
<path d="M2925 1670 c-7 -12 12 -12 40 0 18 8 17 9 -7 9 -15 1 -30 -3 -33 -9z"/>
<path d="M2850 1661 c0 -5 9 -7 20 -4 11 3 20 7 20 9 0 2 -9 4 -20 4 -11 0
-20 -4 -20 -9z"/>
<path d="M2895 1640 l-30 -8 33 -1 c17 0 32 4 32 9 0 6 -1 9 -2 9 -2 -1 -16
-5 -33 -9z"/>
<path d="M2950 1640 c0 -5 7 -7 15 -4 8 4 15 8 15 10 0 2 -7 4 -15 4 -8 0 -15
-4 -15 -10z"/>
<path d="M3255 2217 c-4 -10 -5 -21 -1 -24 10 -10 18 4 13 24 -4 17 -4 17 -12
0z"/>
<path d="M3938 1993 c-10 -2 -18 -9 -18 -15 0 -5 7 -7 16 -4 9 3 20 6 25 6 5
0 9 5 9 10 0 10 -3 11 -32 3z"/>
<path d="M3898 1953 c-6 -74 16 -98 88 -94 28 1 61 65 45 85 -6 7 -8 16 -4 19
3 4 -2 7 -12 7 -14 0 -15 -3 -5 -15 7 -8 10 -25 6 -40 -13 -52 -87 -56 -104
-5 -7 18 -7 31 0 38 6 6 6 12 -1 16 -6 4 -12 -1 -13 -11z"/>
<path d="M4045 1779 c-11 -17 0 -20 21 -4 17 13 17 14 2 15 -9 0 -20 -5 -23
-11z"/>
<path d="M3295 2061 c5 -18 4 -22 -6 -16 -11 6 -12 5 -1 -6 9 -10 15 -10 23
-2 9 9 7 16 -6 29 -17 17 -17 17 -10 -5z"/>
<path d="M3323 2035 c-6 -14 -7 -25 -2 -25 11 0 22 25 17 39 -1 6 -8 -1 -15
-14z"/>
<path d="M3299 1876 c-3 -26 -1 -50 3 -52 13 -8 29 7 21 19 -4 7 -6 20 -5 29
2 10 -1 25 -6 35 -7 12 -11 5 -13 -31z"/>
<path d="M3359 1803 l-24 -28 28 24 c25 23 32 31 24 31 -2 0 -14 -12 -28 -27z"/>
<path d="M3094 1466 c-10 -26 0 -51 21 -51 16 0 20 7 20 30 0 33 -30 49 -41
21z m31 -6 c3 -5 -1 -10 -9 -10 -9 0 -16 5 -16 10 0 6 4 10 9 10 6 0 13 -4 16
-10z m5 -30 c0 -5 -7 -10 -15 -10 -8 0 -15 5 -15 10 0 6 7 10 15 10 8 0 15 -4
15 -10z"/>
<path d="M3157 1473 c-3 -5 -4 -19 -3 -33 1 -19 7 -25 26 -27 14 -1 18 0 8 3
-21 6 -24 24 -5 24 8 0 7 4 -3 10 -13 9 -13 11 0 20 13 8 13 10 -2 10 -9 0
-19 -3 -21 -7z"/>
<path d="M3220 1465 c-18 -21 -3 -57 23 -53 11 2 23 10 25 18 5 13 3 13 -12 1
-12 -10 -20 -11 -28 -3 -15 15 -1 45 18 38 8 -3 12 -2 9 4 -9 14 -21 12 -35
-5z"/>
<path d="M3256 1292 c-3 -5 1 -9 9 -9 8 0 12 4 9 9 -3 4 -7 8 -9 8 -2 0 -6 -4
-9 -8z"/>
<path d="M3294 1286 c-4 -10 -2 -22 4 -28 8 -8 13 -7 18 6 4 10 2 22 -4 28 -8
8 -13 7 -18 -6z"/>
<path d="M3339 1298 c-8 -34 -7 -48 4 -48 15 0 20 37 6 45 -5 4 -9 5 -10 3z"/>
<path d="M3370 1270 c0 -11 5 -20 10 -20 6 0 10 9 10 20 0 11 -4 20 -10 20 -5
0 -10 -9 -10 -20z"/>
<path d="M3380 1190 c-13 -8 -12 -10 3 -10 9 0 17 5 17 10 0 12 -1 12 -20 0z"/>
<path d="M4131 1726 c-8 -9 -10 -16 -6 -16 4 0 2 -7 -5 -15 -7 -9 -8 -15 -2
-15 5 0 12 7 16 15 7 20 26 19 26 -1 0 -9 -5 -12 -12 -8 -7 4 -8 3 -4 -4 4 -7
2 -12 -3 -12 -6 0 -11 -5 -11 -12 0 -6 11 -2 23 10 13 12 24 29 24 37 0 8 -3
13 -5 10 -3 -3 -10 2 -17 11 -10 14 -12 14 -24 0z"/>
</g>
</svg>
