<?xml version="1.0" standalone="no"?>
<!DOCTYPE svg PUBLIC "-//W3C//DTD SVG 20010904//EN"
 "http://www.w3.org/TR/2001/REC-SVG-20010904/DTD/svg10.dtd">
<svg version="1.0" xmlns="http://www.w3.org/2000/svg"
 width="724.000000pt" height="958.000000pt" viewBox="0 0 724.000000 958.000000"
 preserveAspectRatio="xMidYMid meet">

<g transform="translate(0.000000,958.000000) scale(0.100000,-0.100000)"
fill="#000000" stroke="none">
<path d="M3171 9543 c-5 -21 -22 -92 -36 -158 -47 -210 -137 -570 -338 -1345
-107 -415 -220 -858 -251 -985 -30 -126 -70 -285 -88 -352 -18 -67 -30 -124
-27 -127 2 -3 75 18 160 45 121 39 159 55 167 72 7 12 28 101 48 197 48 235
202 841 258 1016 79 246 125 417 136 499 6 44 22 112 35 150 13 39 60 192 104
340 52 177 109 341 165 478 l85 207 -204 0 -204 0 -10 -37z m-20 -1280 c-8
-15 -10 -15 -11 -2 0 17 10 32 18 25 2 -3 -1 -13 -7 -23z"/>
<path d="M2530 6590 c-174 -51 -404 -130 -397 -136 2 -2 64 16 137 41 74 25
137 45 140 45 3 -1 -11 -10 -30 -20 l-35 -20 39 6 c21 4 37 3 34 -2 -2 -5 -9
-20 -16 -34 -14 -30 -93 -405 -121 -576 -38 -234 -92 -503 -146 -734 -54 -231
-60 -257 -69 -303 -2 -12 -20 -85 -40 -162 -50 -194 -52 -202 -45 -245 1 -8 1
-28 1 -43 l-2 -28 -40 43 c-22 24 -40 50 -40 59 0 21 -47 105 -56 101 -4 -1
-8 8 -10 20 -6 55 -54 118 -54 71 0 -36 13 -92 20 -88 8 5 37 -116 51 -220 6
-44 13 -83 16 -88 10 -16 15 -279 5 -273 -12 7 -24 -36 -16 -61 5 -16 4 -16
-10 1 -16 19 -16 19 -16 -3 0 -13 7 -50 16 -83 20 -78 11 -88 -10 -11 -9 32
-23 74 -31 93 -8 19 -17 45 -20 58 -4 12 -15 27 -26 32 -10 6 -19 20 -19 31 0
28 -56 286 -81 376 -11 40 -22 112 -25 159 -5 106 -14 124 -14 28 0 -79 29
-291 65 -474 13 -69 31 -177 41 -240 30 -211 130 -575 214 -779 127 -308 269
-531 474 -739 179 -184 425 -361 661 -477 225 -111 359 -154 590 -189 116 -18
236 -72 317 -145 50 -45 125 -144 146 -195 7 -16 16 -26 19 -22 4 4 15 -8 26
-26 10 -18 15 -24 11 -13 -59 172 -58 189 18 230 76 42 243 67 222 34 -3 -5 2
-6 10 -3 19 7 37 -26 51 -96 10 -51 11 -45 10 80 0 176 14 266 45 285 6 3 22
30 36 58 18 35 71 96 163 187 193 191 333 402 360 540 15 84 38 152 69 215 27
54 59 153 98 305 37 145 30 183 -15 90 -13 -28 -26 -49 -27 -47 -1 1 6 32 16
69 48 172 62 305 49 453 -16 188 -19 270 -10 250 9 -19 10 -18 10 5 2 84 -46
288 -127 535 -46 139 -68 193 -72 177 -4 -18 -10 -9 -29 45 -13 37 -37 97 -53
132 -32 71 -31 94 2 34 37 -69 11 6 -51 142 -70 156 -242 492 -259 508 -7 7
15 -42 49 -108 87 -169 213 -437 207 -442 -2 -2 -26 42 -52 99 -68 146 -240
482 -317 618 -49 86 -69 114 -82 112 -12 -2 -16 1 -12 12 3 8 -1 20 -9 27 -12
10 -19 9 -36 -8 l-21 -21 37 -71 c20 -38 36 -74 36 -78 -1 -4 -14 18 -31 50
-43 84 -50 79 -69 -51 l-12 -80 -26 14 c-22 11 -29 11 -43 -2 -27 -24 -42 -97
-36 -167 4 -34 3 -89 -2 -122 -8 -52 -5 -70 16 -135 24 -71 25 -83 19 -209 -4
-74 -11 -153 -16 -175 -4 -23 -8 -84 -7 -136 2 -87 5 -102 38 -168 l35 -73 -2
-130 c-2 -110 1 -135 17 -169 11 -22 36 -91 56 -153 34 -105 36 -120 36 -242
0 -71 -1 -139 -2 -150 -1 -11 -2 -60 -1 -110 0 -49 -4 -124 -10 -165 -6 -41
-15 -109 -20 -151 -5 -41 -13 -86 -19 -100 -5 -13 -13 -50 -16 -81 -3 -31 -13
-62 -21 -69 -8 -6 -14 -25 -14 -42 0 -19 -9 -38 -26 -54 -20 -18 -23 -27 -15
-37 9 -10 6 -17 -14 -30 -13 -9 -32 -31 -41 -49 -35 -69 -125 -161 -193 -198
-58 -31 -78 -37 -161 -43 -107 -7 -99 -7 -163 0 -26 4 -69 1 -95 -6 -54 -14
-180 -14 -197 0 -6 5 -36 14 -66 21 -30 6 -59 17 -64 23 -15 19 -84 52 -137
65 -46 11 -178 87 -178 103 0 4 -5 8 -12 8 -7 0 -37 24 -67 54 -31 30 -123
120 -205 201 -92 90 -154 144 -163 141 -8 -3 -26 5 -41 19 -15 14 -30 25 -34
25 -5 0 -11 0 -15 0 -5 1 -21 14 -38 29 -16 16 -43 33 -60 38 -17 6 -31 18
-33 29 -2 10 -15 29 -28 42 -13 13 -38 51 -55 85 -17 34 -37 69 -44 77 -7 8
-22 44 -34 80 -17 53 -19 75 -12 113 5 31 5 44 -2 40 -7 -4 -8 9 -3 38 16 97
21 181 21 327 -1 83 3 152 7 152 4 0 8 5 8 11 0 5 -4 7 -10 4 -5 -3 -10 1 -10
9 0 9 3 16 8 16 4 0 8 19 9 42 3 41 40 126 71 161 8 9 12 20 9 24 -4 3 -1 13
7 22 7 9 16 36 19 61 8 58 25 141 34 160 3 8 7 24 9 35 1 11 11 61 22 110 73
327 160 760 207 1025 19 113 47 257 62 320 14 63 38 180 53 260 15 80 31 153
35 164 7 17 4 18 -28 14 -44 -5 -48 4 -9 19 64 25 -14 8 -168 -37z m2044
-1047 c20 -40 34 -73 31 -73 -5 0 -75 136 -75 146 0 12 6 1 44 -73z m139 -283
c263 -549 390 -911 438 -1250 14 -96 15 -383 2 -448 -5 -29 -8 33 -8 185 0
242 -8 303 -61 522 -66 267 -251 737 -433 1098 -22 46 -41 86 -41 90 1 14 22
-27 103 -197z m534 -1092 c-3 -8 -6 -5 -6 6 -1 11 2 17 5 13 3 -3 4 -12 1 -19z
m10 -65 c-3 -10 -5 -4 -5 12 0 17 2 24 5 18 2 -7 2 -21 0 -30z m10 -55 c-3 -8
-6 -5 -6 6 -1 11 2 17 5 13 3 -3 4 -12 1 -19z m-3400 -290 c-3 -8 -6 -5 -6 6
-1 11 2 17 5 13 3 -3 4 -12 1 -19z m2463 -1800 c-183 -53 -353 -121 -405 -162
-34 -27 2 -19 140 29 70 25 135 44 144 43 9 -2 -19 -17 -62 -32 -42 -16 -76
-31 -73 -33 2 -2 41 5 86 17 45 12 85 19 87 16 5 -5 -215 -76 -299 -97 -26 -6
-54 -9 -62 -6 -8 3 -16 1 -18 -4 -2 -6 -12 -7 -27 -1 -23 8 -22 9 23 54 36 37
68 55 149 87 126 49 294 100 327 99 21 0 19 -2 -10 -10z m-181 -578 c0 -10 -3
-8 -9 5 -12 27 -12 43 0 25 5 -8 9 -22 9 -30z"/>
<path d="M4501 1414 c0 -11 3 -14 6 -6 3 7 2 16 -1 19 -3 4 -6 -2 -5 -13z"/>
<path d="M4511 1354 c0 -11 3 -14 6 -6 3 7 2 16 -1 19 -3 4 -6 -2 -5 -13z"/>
</g>
</svg>
