<?xml version="1.0" standalone="no"?>
<!DOCTYPE svg PUBLIC "-//W3C//DTD SVG 20010904//EN"
 "http://www.w3.org/TR/2001/REC-SVG-20010904/DTD/svg10.dtd">
<svg version="1.0" xmlns="http://www.w3.org/2000/svg"
 width="300.000000pt" height="300.000000pt" viewBox="0 0 300.000000 300.000000"
 preserveAspectRatio="xMidYMid meet">

<g transform="translate(0.000000,300.000000) scale(0.100000,-0.100000)"
fill="#000000" stroke="none">
<path d="M1395 2879 c-11 -16 -2 -17 25 -2 24 12 24 13 3 13 -12 0 -25 -5 -28
-11z"/>
<path d="M1502 2884 c4 -3 28 -11 55 -18 46 -13 47 -14 21 -21 -24 -6 -28 -12
-28 -45 0 -35 -3 -39 -32 -46 l-33 -7 28 -9 28 -10 -3 -169 c-2 -102 1 -169 7
-169 5 0 4 -5 -3 -12 -7 -7 -41 -12 -82 -12 l-70 0 0 -84 c0 -123 -13 -161
-81 -238 -82 -93 -102 -139 -107 -245 l-4 -86 33 -6 c19 -4 114 -7 212 -7 98
0 186 -4 195 -10 10 -5 12 -10 5 -10 -6 0 -10 -8 -8 -17 1 -10 -5 -29 -15 -43
-9 -14 -17 -42 -19 -64 -2 -35 0 -38 21 -34 18 3 23 0 23 -18 0 -14 -5 -20
-15 -17 -8 3 -4 -4 9 -15 23 -19 23 -20 5 -25 -14 -3 -12 -5 8 -6 19 -1 27 -6
26 -18 0 -10 2 -32 5 -50 3 -27 1 -32 -19 -37 -32 -8 -44 -54 -19 -72 9 -7 14
-17 10 -23 -9 -15 -23 -14 -21 2 0 6 -2 12 -5 12 -4 0 -16 8 -26 18 -19 17
-21 16 -47 -4 -18 -14 -26 -28 -23 -40 3 -11 1 -19 -4 -19 -5 0 -9 12 -10 28
0 15 -3 21 -6 14 -8 -21 6 -64 19 -56 6 4 21 8 32 10 12 1 26 3 31 4 6 1 16 2
23 1 22 -2 -8 -27 -36 -29 -34 -3 -37 -8 -18 -27 9 -9 16 -24 16 -34 0 -22
-73 -31 -252 -31 -102 0 -118 -2 -118 -16 0 -12 5 -15 23 -9 12 4 79 9 148 12
l127 5 3 -50 4 -50 -43 -6 c-26 -3 -52 -15 -68 -31 -32 -32 -57 -32 -78 0 -15
23 -15 26 -1 31 8 4 14 14 13 23 -2 12 4 15 26 14 35 -3 22 15 -14 19 -20 2
-25 -1 -24 -19 0 -16 -5 -23 -17 -23 -10 0 -21 -5 -24 -10 -3 -6 -22 -10 -41
-10 l-34 0 0 -64 c0 -36 4 -67 8 -70 5 -3 83 -10 173 -16 246 -16 266 -19 266
-37 0 -9 -8 -18 -18 -20 -25 -7 -33 -33 -10 -33 25 0 33 -24 13 -37 -38 -23
-284 -23 -365 1 -30 9 -58 16 -61 16 -6 0 3 -544 10 -578 3 -16 20 -30 52 -45
43 -20 63 -22 222 -22 175 0 233 8 275 39 18 13 20 33 26 348 4 183 9 581 11
883 l3 550 -29 55 c-16 30 -51 79 -78 107 -82 88 -80 79 -77 472 2 190 0 352
-4 359 -5 7 -31 12 -69 12 -34 0 -59 -3 -56 -6z m158 -1254 c0 -5 -4 -10 -10
-10 -5 0 -10 -9 -10 -20 0 -25 17 -26 23 -2 3 9 5 3 6 -15 1 -26 -2 -30 -18
-26 -13 3 -21 -1 -25 -14 -3 -10 -3 5 0 32 3 28 8 53 11 58 6 10 23 9 23 -3z
m-30 -470 c0 -5 -2 -10 -4 -10 -3 0 -8 5 -11 10 -3 6 -1 10 4 10 6 0 11 -4 11
-10z m-54 -89 c-10 -16 -46 -20 -46 -5 0 8 10 14 26 14 14 0 23 -4 20 -9z m21
-31 c-3 -12 0 -20 7 -20 7 0 13 -6 13 -14 0 -11 -4 -12 -19 -3 -20 13 -25 57
-7 57 6 0 9 -9 6 -20z"/>
<path d="M1382 2820 c0 -14 2 -19 5 -12 2 6 2 18 0 25 -3 6 -5 1 -5 -13z"/>
<path d="M1390 2717 c4 -41 5 -41 8 -8 2 18 0 37 -5 42 -5 5 -6 -11 -3 -34z"/>
<path d="M1391 2404 c0 -11 3 -14 6 -6 3 7 2 16 -1 19 -3 4 -6 -2 -5 -13z"/>
<path d="M1556 1615 c-9 -26 -7 -32 5 -12 6 10 9 21 6 23 -2 3 -7 -2 -11 -11z"/>
<path d="M1496 1589 c-10 -47 -12 -89 -6 -89 4 0 10 24 13 53 5 55 1 76 -7 36z"/>
<path d="M1406 1585 c-9 -26 -7 -32 5 -12 6 10 9 21 6 23 -2 3 -7 -2 -11 -11z"/>
<path d="M1356 1570 c11 -42 24 -73 29 -68 3 3 -4 25 -15 49 -11 24 -17 33
-14 19z"/>
<path d="M1570 1542 c0 -18 5 -32 10 -32 6 0 8 11 4 28 -10 39 -14 40 -14 4z"/>
<path d="M1272 1503 c-2 -54 0 -63 16 -63 11 0 13 3 5 8 -6 4 -13 32 -16 62
l-3 55 -2 -62z"/>
<path d="M1522 1533 c2 -9 8 -18 15 -20 7 -3 9 3 6 16 -6 25 -26 28 -21 4z"/>
<path d="M1510 1346 c0 -8 -7 -16 -15 -20 -22 -8 -18 -26 5 -26 16 0 20 7 20
30 0 17 -2 30 -5 30 -3 0 -5 -6 -5 -14z"/>
<path d="M1240 1335 c0 -8 8 -15 18 -15 13 0 14 2 3 9 -11 7 -11 9 0 14 10 4
9 6 -3 6 -10 1 -18 -6 -18 -14z"/>
<path d="M1311 1336 c-16 -9 -20 -15 -12 -21 7 -4 13 -5 14 -4 2 2 9 12 16 22
16 20 14 21 -18 3z"/>
<path d="M1250 1271 c11 -22 30 -37 30 -24 -1 11 -26 43 -34 43 -4 0 -2 -9 4
-19z"/>
<path d="M1500 1280 c-13 -8 -12 -10 3 -10 9 0 17 5 17 10 0 12 -1 12 -20 0z"/>
<path d="M1242 1015 c0 -16 2 -22 5 -12 2 9 2 23 0 30 -3 6 -5 -1 -5 -18z"/>
<path d="M1217 779 c-6 -22 3 -33 31 -37 16 -2 22 2 23 15 0 15 2 14 9 -4 6
-15 17 -23 32 -22 13 0 17 3 11 6 -7 2 -13 12 -13 22 0 11 -13 20 -44 27 -39
9 -45 8 -49 -7z"/>
<path d="M1540 740 c-13 -8 -13 -10 2 -10 9 0 20 5 23 10 8 13 -5 13 -25 0z"/>
</g>
</svg>
