<?xml version="1.0" standalone="no"?>
<!DOCTYPE svg PUBLIC "-//W3C//DTD SVG 20010904//EN"
 "http://www.w3.org/TR/2001/REC-SVG-20010904/DTD/svg10.dtd">
<svg version="1.0" xmlns="http://www.w3.org/2000/svg"
 width="300.000000pt" height="300.000000pt" viewBox="0 0 300.000000 300.000000"
 preserveAspectRatio="xMidYMid meet">
<metadata>
Created by potrace 1.16, written by Peter Selinger 2001-2019
</metadata>
<g transform="translate(0.000000,300.000000) scale(0.100000,-0.100000)"
fill="#000000" stroke="none">
<path d="M1451 2886 c-7 -8 -12 -23 -11 -33 1 -10 3 -114 6 -230 4 -185 2
-213 -11 -213 -8 0 -15 -7 -15 -15 0 -8 7 -15 15 -15 17 0 21 -35 5 -45 -5 -3
-10 -27 -10 -53 0 -26 -5 -54 -10 -62 -6 -10 -10 46 -12 170 l-2 185 -5 -175
c-7 -196 -7 -196 -86 -281 -29 -30 -65 -80 -81 -110 l-28 -54 -8 -450 c-5
-247 -7 -643 -6 -880 4 -519 -4 -488 122 -504 149 -19 240 -22 336 -11 135 15
136 16 162 68 l23 47 7 840 c4 558 3 853 -4 880 -15 60 -41 104 -97 167 -84
93 -84 92 -87 428 -2 162 -6 305 -9 318 -3 12 -17 27 -31 32 -40 16 -150 12
-163 -4z m-146 -965 c-4 -61 -10 -111 -14 -111 -3 0 -6 -64 -6 -142 0 -135 1
-143 20 -148 14 -4 20 -14 20 -35 0 -23 -4 -30 -20 -30 -20 1 -20 -6 -23 -635
-2 -519 -5 -637 -16 -649 -12 -11 -16 -10 -27 10 -10 18 -15 105 -20 344 -10
481 -10 1285 0 1285 4 0 10 30 13 68 3 40 13 84 26 109 19 36 40 56 51 47 2
-2 0 -53 -4 -113z m439 -523 c-5 -8 -2 -9 10 -5 17 7 23 -1 29 -38 1 -11 6
-25 10 -32 4 -6 3 -15 -3 -18 -6 -4 -8 -16 -4 -27 5 -17 3 -20 -10 -15 -11 4
-15 3 -11 -4 4 -5 1 -16 -5 -24 -15 -18 -45 -20 -34 -3 4 7 3 8 -4 4 -7 -4
-12 -2 -12 4 0 6 -4 9 -9 6 -13 -8 -17 12 -15 64 1 25 3 57 3 73 1 23 5 27 32
27 20 0 28 -4 23 -12z"/>
</g>
</svg>
