<?xml version="1.0" standalone="no"?>
<!DOCTYPE svg PUBLIC "-//W3C//DTD SVG 20010904//EN"
 "http://www.w3.org/TR/2001/REC-SVG-20010904/DTD/svg10.dtd">
<svg version="1.0" xmlns="http://www.w3.org/2000/svg"
 width="506.000000pt" height="1056.000000pt" viewBox="0 0 506.000000 1056.000000"
 preserveAspectRatio="xMidYMid meet">

<g transform="translate(0.000000,1056.000000) scale(0.100000,-0.100000)"
fill="#000000" stroke="none">
<path d="M2484 10019 c-3 -6 -2 -14 3 -18 17 -11 22 -50 8 -61 -8 -7 -58 -10
-131 -8 l-119 3 0 42 c0 38 -2 42 -20 36 -11 -4 -30 -7 -42 -7 -12 -1 -25 -5
-29 -9 -5 -4 -1 -5 9 -1 13 4 17 1 17 -15 0 -12 5 -21 11 -21 29 0 -23 -29
-57 -32 -35 -3 -39 -6 -42 -33 -2 -16 -13 -39 -24 -49 -20 -18 -20 -26 -14
-180 7 -142 10 -164 28 -183 20 -21 20 -28 14 -871 -4 -495 -10 -872 -16 -904
-13 -71 -61 -167 -108 -214 -20 -22 -89 -78 -153 -126 -242 -181 -398 -391
-469 -627 -42 -143 -53 -258 -46 -511 31 -1165 46 -1735 71 -2715 39 -1509 54
-2057 65 -2394 9 -284 10 -295 34 -335 46 -78 103 -118 231 -161 195 -65 492
-97 915 -97 405 0 657 35 835 117 94 43 148 85 179 137 29 50 27 15 51 1108
15 666 26 1158 45 1970 58 2447 59 2578 25 2765 -20 112 -76 282 -117 355 -88
158 -251 324 -387 394 -18 10 -68 52 -110 94 -137 137 -166 233 -160 527 2 88
0 456 -5 817 l-8 657 21 27 c19 25 21 39 21 184 0 154 -1 158 -25 184 -17 19
-25 38 -25 65 0 64 -12 72 -146 87 -149 16 -320 18 -330 3z m73 -5101 c-3 -7
-5 -2 -5 12 0 14 2 19 5 13 2 -7 2 -19 0 -25z m-26 9 c-1 -12 -15 -9 -19 4 -3
6 1 10 8 8 6 -3 11 -8 11 -12z m-24 -19 c-15 -40 -17 -57 -7 -63 5 -3 10 -16
10 -27 0 -20 -1 -20 -19 -4 -11 10 -22 13 -25 8 -11 -18 23 -35 59 -29 26 4
35 2 35 -8 0 -8 -5 -17 -11 -21 -6 -3 -9 -17 -6 -30 5 -31 -4 -30 -33 1 -16
17 -34 25 -56 25 -31 0 -63 24 -50 37 4 4 11 1 15 -6 6 -9 11 -10 15 -2 4 6 0
14 -8 17 -22 9 -21 54 2 56 9 0 24 2 32 2 8 1 14 7 12 14 -2 14 18 41 32 42 4
0 6 -6 3 -12z m-47 -18 c0 -5 -4 -10 -10 -10 -5 0 -10 5 -10 10 0 6 5 10 10
10 6 0 10 -4 10 -10z m100 -1 c0 -4 -5 -11 -11 -15 -6 -3 -9 -15 -6 -25 3 -10
1 -21 -3 -24 -10 -6 -24 50 -16 63 6 11 36 11 36 1z m-64 -151 c5 -7 2 -9 -7
-4 -8 4 -6 1 4 -7 9 -8 17 -23 17 -33 0 -15 2 -16 9 -5 7 11 11 10 20 -5 10
-18 12 -18 25 -1 21 28 28 20 11 -14 -11 -20 -21 -29 -31 -25 -9 3 -22 6 -30
6 -8 0 -28 12 -44 28 -17 15 -37 33 -46 41 -13 11 -14 15 -2 22 19 13 66 11
74 -3z m80 -14 c-4 -9 -9 -15 -11 -12 -3 3 -3 13 1 22 4 9 9 15 11 12 3 -3 3
-13 -1 -22z m-162 -1273 c3 -5 -1 -12 -10 -15 -15 -6 -15 -9 -2 -24 16 -19 48
-88 48 -102 0 -6 -11 -10 -25 -10 -16 0 -25 6 -25 15 0 8 -7 15 -15 15 -8 0
-14 -6 -12 -12 1 -7 -8 -14 -20 -16 -29 -4 -29 5 1 73 14 30 22 55 19 55 -3 0
0 7 7 15 14 17 26 19 34 6z m-414 -35 c-17 -21 -9 -60 14 -64 17 -4 18 1 13
37 -5 38 -3 41 18 41 21 0 23 -3 18 -42 -7 -54 -18 -68 -54 -68 -30 0 -30 1
-43 78 -5 29 -3 32 20 32 22 0 24 -2 14 -14z m1150 7 c-1 -25 -14 -53 -26 -53
-15 0 -19 -12 -7 -23 3 -4 12 -2 20 4 10 9 13 8 13 -5 0 -11 -9 -16 -32 -16
-33 0 -33 0 -33 50 0 50 0 50 33 50 17 0 32 -3 32 -7z m-950 -28 c7 -14 17
-25 22 -25 11 0 10 18 -2 25 -18 11 -10 25 14 25 27 0 42 -15 26 -25 -5 -3
-10 -24 -10 -46 0 -47 -18 -52 -51 -11 l-22 27 7 -27 c6 -25 4 -28 -18 -28
-27 0 -42 15 -26 25 14 9 13 58 -2 73 -9 9 -5 12 18 12 22 0 34 -7 44 -25z
m441 -31 c-4 -68 -16 -76 -52 -34 l-30 35 3 -30 c2 -24 -1 -31 -17 -33 -18 -2
-20 3 -20 53 0 53 1 55 28 55 15 0 27 -4 27 -8 0 -5 7 -17 16 -28 15 -18 15
-18 11 8 -4 26 7 39 28 34 5 -1 8 -25 6 -52z m134 1 c0 -48 -2 -55 -20 -55
-18 0 -20 7 -20 55 0 48 2 55 20 55 18 0 20 -7 20 -55z m147 23 l12 -33 8 33
c7 25 14 32 32 32 19 0 23 -4 19 -20 -3 -11 0 -33 5 -50 10 -27 9 -30 -9 -30
-14 0 -19 7 -19 28 l-1 27 -15 -27 c-18 -35 -32 -35 -44 -3 -12 32 -24 32 -18
1 3 -16 0 -27 -10 -31 -22 -8 -24 -2 -14 43 7 27 6 44 -1 51 -8 8 -3 11 17 11
22 0 29 -6 38 -32z m-903 -160 c10 -27 -4 -49 -25 -41 -26 10 -17 54 14 62 1
1 6 -9 11 -21z m83 -18 c4 -25 1 -30 -16 -30 -16 0 -21 7 -23 30 -2 23 2 30
16 30 13 0 20 -9 23 -30z m87 -10 c8 -24 7 -30 -5 -30 -7 0 -14 6 -14 13 0 8
-3 7 -10 -3 -14 -22 -22 -6 -11 24 14 34 27 33 40 -4z m77 13 c13 -17 14 -17
8 0 -3 9 -1 17 5 17 6 0 11 -13 11 -30 0 -34 -13 -39 -30 -12 -11 16 -11 16
-6 0 3 -11 0 -18 -9 -18 -9 0 -13 11 -13 30 1 34 14 39 34 13z m138 0 c3 -10
9 -24 12 -30 3 -7 2 -13 -4 -13 -7 0 -32 42 -32 55 0 13 18 3 24 -12z m23 -5
c-3 -8 -6 -5 -6 6 -1 11 2 17 5 13 3 -3 4 -12 1 -19z m-361 -156 c-32 -2 -63
1 -67 5 -4 4 22 6 59 3 l67 -5 -59 -3z m158 -86 c-3 -9 -10 -16 -15 -16 -6 0
-5 9 1 21 13 24 24 20 14 -5z m92 -1 c1 -8 -2 -17 -7 -21 -5 -3 -9 7 -9 22 0
27 12 26 16 -1z m-11 -160 c6 -2 -27 -4 -72 -4 -45 -1 -84 3 -87 7 -5 8 135 5
159 -3z m161 -399 c18 6 18 6 2 -11 -19 -20 -48 -14 -48 11 0 13 3 14 14 5 7
-6 22 -8 32 -5z m-188 -140 c11 -19 18 -37 14 -40 -3 -4 -12 4 -18 16 l-13 23
-11 -25 -11 -25 6 25 c2 14 5 33 5 43 0 25 5 21 28 -17z m56 -14 c4 -29 3 -41
-4 -37 -5 3 -10 15 -10 26 0 11 -4 17 -10 14 -13 -8 -13 1 1 27 13 25 15 23
23 -30z m84 5 c18 -49 14 -57 -8 -17 -21 39 -24 50 -12 50 4 0 13 -15 20 -33z
m-34 -21 c-3 -9 -10 -16 -15 -16 -5 0 -4 9 3 20 14 22 21 20 12 -4z"/>
<path d="M3115 3409 c-4 -6 -5 -13 -2 -16 7 -7 27 6 27 18 0 12 -17 12 -25 -2z"/>
<path d="M1990 3215 c0 -8 5 -15 10 -15 6 0 10 7 10 15 0 8 -4 15 -10 15 -5 0
-10 -7 -10 -15z"/>
</g>
</svg>
