<?xml version="1.0" standalone="no"?>
<!DOCTYPE svg PUBLIC "-//W3C//DTD SVG 20010904//EN"
 "http://www.w3.org/TR/2001/REC-SVG-20010904/DTD/svg10.dtd">
<svg version="1.0" xmlns="http://www.w3.org/2000/svg"
 width="1200.000000pt" height="1200.000000pt" viewBox="0 0 1200.000000 1200.000000"
 preserveAspectRatio="xMidYMid meet">

<g transform="translate(0.000000,1200.000000) scale(0.100000,-0.100000)"
fill="#000000" stroke="none">
<path d="M5785 11859 c-55 -5 -123 -16 -152 -24 -47 -14 -53 -19 -69 -60 -12
-34 -15 -61 -11 -106 6 -49 3 -67 -13 -99 -16 -31 -20 -68 -26 -211 -6 -169
-6 -175 15 -193 26 -24 27 -66 6 -616 -31 -810 -34 -909 -35 -1070 -1 -358
-27 -516 -114 -695 -63 -127 -125 -207 -251 -320 -397 -357 -535 -558 -615
-895 -39 -169 -45 -294 -32 -757 28 -979 52 -1906 66 -2493 9 -344 18 -695 21
-780 3 -85 17 -607 30 -1160 49 -2000 44 -1881 91 -1979 93 -189 287 -266 809
-323 167 -18 1048 -18 1200 0 246 30 378 64 522 134 95 47 162 109 198 183 53
107 51 74 95 1755 6 212 15 547 20 745 10 357 16 591 45 1775 28 1168 50 1918
66 2265 15 347 -6 555 -77 774 -82 250 -241 471 -489 681 -297 250 -434 520
-459 900 -3 47 -9 330 -12 630 -3 300 -9 694 -13 875 l-7 330 25 38 c24 37 24
39 17 209 -3 94 -10 176 -15 182 -5 6 -11 52 -13 102 -8 187 -46 204 -458 209
-146 2 -310 -1 -365 -6z m215 -940 c0 -20 4 -29 13 -26 6 2 12 14 11 26 0 11
3 21 8 21 4 0 8 -10 8 -23 0 -12 7 -33 16 -45 13 -19 13 -22 0 -22 -8 0 -17 6
-20 13 -3 6 -4 3 -1 -8 2 -11 1 -24 -3 -30 -15 -21 -71 -54 -77 -46 -3 6 2 14
12 20 17 9 17 10 -1 30 -12 13 -16 26 -11 38 8 17 8 17 12 1 5 -20 18 -23 29
-7 3 6 0 15 -7 20 -8 5 -10 9 -5 9 5 0 3 6 -3 14 -12 14 -5 46 10 46 5 0 9
-14 9 -31z m-103 -98 c11 -31 56 -71 68 -61 6 5 28 7 49 3 30 -5 36 -9 34 -27
-2 -16 -11 -22 -35 -24 -35 -3 -40 -11 -21 -30 8 -8 8 -15 -1 -26 -7 -8 -10
-20 -6 -26 9 -14 52 -13 58 3 4 9 6 9 6 -1 1 -18 -48 -35 -64 -22 -12 10 -22
8 -64 -17 -2 -2 3 -11 12 -21 21 -23 16 -55 -11 -57 -13 -1 -22 6 -26 19 -7
25 2 35 14 16 5 -8 12 -11 16 -8 10 11 -25 41 -41 34 -19 -7 -19 -46 -2 -70
12 -16 24 -18 85 -13 40 3 72 1 72 -4 0 -9 -36 -14 -77 -10 -13 1 -23 -3 -23
-8 0 -22 42 -105 48 -96 4 6 25 26 47 45 21 19 4 -4 -38 -52 -49 -53 -74 -89
-67 -93 6 -4 9 -14 6 -22 -15 -38 11 -30 60 18 29 29 56 50 59 47 4 -3 -16
-27 -44 -53 -27 -26 -48 -52 -45 -60 7 -18 80 -49 95 -40 8 5 10 4 5 -3 -4 -7
-16 -12 -28 -12 -19 0 -20 -1 -4 -25 23 -36 20 -40 -13 -13 -20 16 -26 27 -18
36 6 8 6 12 -3 12 -6 0 -14 -9 -17 -20 -3 -11 -9 -20 -14 -20 -17 0 -22 30 -8
46 16 20 -2 33 -37 26 -17 -3 -24 0 -24 12 0 9 -4 16 -10 16 -5 0 -10 -6 -10
-14 0 -16 -37 -46 -56 -46 -20 0 -54 34 -57 58 -2 12 -11 28 -22 35 -15 11
-17 23 -13 67 3 30 10 56 16 58 8 2 8 8 0 21 -15 25 -2 68 23 76 17 6 19 12
14 42 -4 26 0 42 16 64 11 16 25 29 30 29 5 0 18 9 29 20 11 11 16 20 10 20
-17 0 -90 77 -90 94 0 10 11 19 30 23 27 5 44 33 20 33 -13 0 -13 23 1 37 14
14 59 4 66 -16z m200 -67 c-3 -3 -12 -4 -19 -1 -8 3 -5 6 6 6 11 1 17 -2 13
-5z m18 -34 c-3 -5 -10 -10 -16 -10 -5 0 -9 5 -9 10 0 6 7 10 16 10 8 0 12 -4
9 -10z m-67 -172 c3 -24 0 -28 -20 -28 -39 0 -52 14 -38 39 17 32 54 24 58
-11z m42 -198 c0 -5 -5 -10 -11 -10 -5 0 -7 5 -4 10 3 6 8 10 11 10 2 0 4 -4
4 -10z m24 -55 c3 -8 1 -15 -4 -15 -6 0 -10 7 -10 15 0 8 2 15 4 15 2 0 6 -7
10 -15z m-44 -29 c0 -3 -4 -8 -10 -11 -5 -3 -10 -1 -10 4 0 6 5 11 10 11 6 0
10 -2 10 -4z m12 -28 c-7 -7 -12 -8 -12 -2 0 14 12 26 19 19 2 -3 -1 -11 -7
-17z m18 -62 c0 -3 -4 -8 -10 -11 -5 -3 -10 -1 -10 4 0 6 5 11 10 11 6 0 10
-2 10 -4z m28 -3126 c31 -22 54 -30 86 -30 37 0 53 -7 96 -41 46 -36 51 -44
44 -67 -4 -15 -8 -38 -8 -52 l-1 -24 335 2 c184 1 418 5 520 8 l185 6 50 -88
c61 -110 110 -212 137 -283 20 -52 20 -62 9 -420 -6 -201 -16 -541 -22 -756
l-11 -390 -49 -145 c-27 -80 -49 -149 -49 -153 0 -5 20 -5 44 -2 l44 7 -4
-269 c-3 -147 -7 -287 -10 -310 -5 -39 -8 -43 -42 -52 -79 -21 -133 -30 -292
-50 -91 -12 -181 -23 -200 -26 -104 -15 -651 -35 -960 -35 -483 0 -834 19
-1130 60 -106 14 -283 51 -296 62 -8 6 -12 103 -13 318 -1 171 -1 310 1 310 2
0 18 -4 35 -9 18 -5 35 -6 38 -1 3 5 -15 68 -40 140 l-45 132 -14 516 c-9 284
-18 632 -22 772 l-6 255 27 75 c15 41 57 137 93 213 l66 138 120 -7 c198 -10
857 -20 869 -12 8 5 6 17 -6 43 -20 43 -16 52 43 99 37 29 53 36 92 36 34 0
54 6 75 24 64 53 139 55 211 6z"/>
<path d="M5895 10770 c3 -5 11 -10 16 -10 6 0 7 5 4 10 -3 6 -11 10 -16 10 -6
0 -7 -4 -4 -10z"/>
<path d="M5860 10749 c0 -5 5 -7 10 -4 6 3 10 8 10 11 0 2 -4 4 -10 4 -5 0
-10 -5 -10 -11z"/>
<path d="M5820 10730 c0 -5 5 -10 11 -10 5 0 7 5 4 10 -3 6 -8 10 -11 10 -2 0
-4 -4 -4 -10z"/>
<path d="M5900 10720 c0 -5 5 -10 10 -10 6 0 10 5 10 10 0 6 -4 10 -10 10 -5
0 -10 -4 -10 -10z"/>
<path d="M5845 10701 c-6 -11 9 -23 19 -14 9 9 7 23 -3 23 -6 0 -12 -4 -16 -9z"/>
<path d="M5930 10654 c-18 -17 -20 -24 -10 -24 9 0 23 9 33 20 32 38 15 41
-23 4z"/>
<path d="M5810 10511 c0 -16 12 -41 20 -41 4 0 5 11 2 25 -4 23 -22 36 -22 16z"/>
<path d="M5893 10473 c-18 -6 -16 -30 2 -37 8 -3 15 -12 15 -21 0 -8 4 -15 10
-15 10 0 3 60 -9 71 -3 4 -12 4 -18 2z"/>
<path d="M5795 10452 c-11 -2 -24 -8 -30 -14 -6 -6 -4 -7 8 -2 13 5 28 -3 53
-27 23 -22 34 -28 34 -17 0 24 -43 64 -65 60z"/>
<path d="M5787 10383 c-13 -13 -7 -21 13 -16 11 3 17 9 14 14 -6 11 -18 12
-27 2z"/>
<path d="M5932 10379 c2 -7 -9 -26 -25 -42 -21 -21 -26 -32 -18 -40 8 -8 18
-4 37 14 42 39 48 56 23 70 -17 9 -20 8 -17 -2z"/>
<path d="M5806 10334 c-9 -8 -16 -23 -16 -32 1 -15 3 -14 15 2 8 11 20 23 26
27 7 4 8 9 1 13 -6 3 -18 -1 -26 -10z"/>
<path d="M5757 10333 c-4 -3 -7 -11 -7 -17 0 -6 5 -5 12 2 6 6 9 14 7 17 -3 3
-9 2 -12 -2z"/>
<path d="M5830 10250 c13 -24 4 -44 -16 -36 -8 3 -11 0 -7 -10 7 -19 16 -18
37 5 15 16 15 22 4 40 -16 27 -32 28 -18 1z"/>
<path d="M6010 10550 c0 -5 7 -10 15 -10 8 0 15 5 15 10 0 6 -7 10 -15 10 -8
0 -15 -4 -15 -10z"/>
<path d="M6100 7033 c0 -19 68 -53 107 -53 28 0 46 -6 59 -21 10 -12 33 -31
49 -42 l30 -21 -20 24 c-42 48 -95 79 -126 73 -22 -4 -37 1 -64 21 -19 15 -35
23 -35 19z"/>
<path d="M6110 6985 c32 -21 67 -35 85 -35 22 0 40 -10 63 -33 18 -18 29 -37
25 -42 -5 -4 -2 -5 5 -1 21 12 13 30 -30 64 -29 23 -50 32 -77 32 -24 0 -49 9
-71 25 -19 14 -38 25 -44 25 -6 0 14 -16 44 -35z"/>
<path d="M6020 6965 c0 -8 7 -15 15 -15 9 0 12 6 9 15 -4 8 -10 15 -15 15 -5
0 -9 -7 -9 -15z"/>
<path d="M6057 6889 c4 -13 9 -17 15 -11 11 11 3 32 -12 32 -4 0 -6 -9 -3 -21z"/>
<path d="M6135 6900 c3 -5 11 -10 16 -10 6 0 7 5 4 10 -3 6 -11 10 -16 10 -6
0 -7 -4 -4 -10z"/>
<path d="M6090 6852 c0 -6 -7 -18 -16 -27 -9 -9 -14 -18 -11 -21 3 -3 13 6 23
20 9 15 14 29 10 33 -3 3 -6 1 -6 -5z"/>
<path d="M6120 6824 c0 -8 5 -12 10 -9 6 4 8 11 5 16 -9 14 -15 11 -15 -7z"/>
<path d="M6281 6820 c0 -8 4 -24 9 -35 5 -13 9 -14 9 -5 0 8 -4 24 -9 35 -5
13 -9 14 -9 5z"/>
<path d="M6133 6783 c-15 -5 -17 -23 -4 -23 5 0 11 7 15 15 3 8 4 15 3 14 -1
0 -8 -3 -14 -6z"/>
<path d="M4723 6744 c-11 -16 -52 -103 -92 -193 l-73 -164 6 -201 c4 -111 9
-257 11 -326 3 -69 10 -305 15 -525 6 -220 13 -413 16 -428 3 -15 37 -105 76
-200 82 -204 83 -207 70 -207 -6 0 -37 7 -68 15 -32 8 -60 12 -63 9 -6 -5 -2
-456 4 -462 8 -9 281 -55 395 -67 285 -30 474 -37 1035 -40 577 -3 691 0 1025
30 174 16 409 51 422 64 3 3 9 113 13 244 l7 237 -23 -8 c-13 -5 -46 -12 -74
-16 -27 -4 -58 -10 -68 -12 -14 -5 -8 15 31 93 46 91 105 228 130 298 6 17 16
179 22 360 5 182 12 377 15 435 15 363 17 688 5 725 -25 75 -119 261 -170 335
l-15 22 -510 -11 c-280 -7 -511 -13 -513 -16 -3 -2 -2 -12 2 -21 6 -16 40 -17
484 -10 262 3 487 9 499 12 27 7 49 -25 146 -216 l69 -135 -6 -165 c-4 -91
-11 -302 -16 -470 -24 -782 -26 -811 -57 -885 -48 -119 -166 -354 -180 -359
-7 -3 -134 -16 -281 -28 -242 -20 -332 -22 -957 -23 -588 0 -722 3 -905 18
-118 11 -246 24 -285 30 l-70 12 -29 60 c-15 33 -55 129 -87 212 l-58 153 -11
362 c-5 200 -14 487 -20 638 -13 354 -14 440 -5 465 42 110 146 328 163 339 4
2 105 0 226 -4 120 -5 334 -10 475 -11 230 -2 256 0 259 15 3 14 -9 16 -90 16
-51 1 -136 3 -188 5 -52 2 -202 7 -333 10 -131 3 -265 8 -296 12 -55 5 -59 4
-78 -23z m232 -2308 c284 -30 442 -37 980 -43 357 -4 643 -2 815 6 279 12 618
43 695 62 25 6 47 10 48 8 4 -6 -14 -373 -19 -378 -10 -11 -236 -44 -419 -61
-322 -30 -579 -40 -1044 -40 -622 0 -1047 30 -1311 93 l-55 13 -5 190 c-3 104
-4 192 -3 195 1 3 42 -3 90 -13 48 -10 151 -24 228 -32z"/>
<path d="M4730 4429 c47 -10 96 -18 110 -17 14 0 -15 9 -65 19 -49 10 -99 18
-110 18 -11 -1 18 -9 65 -20z"/>
<path d="M7355 4428 c-66 -10 -138 -22 -160 -27 -35 -8 -31 -9 25 -5 143 8
277 32 260 47 -3 2 -59 -5 -125 -15z"/>
<path d="M4898 4403 c7 -3 16 -2 19 1 4 3 -2 6 -13 5 -11 0 -14 -3 -6 -6z"/>
<path d="M7350 4394 c-11 -3 -16 -22 -17 -77 -1 -40 -5 -100 -8 -134 -5 -42
-3 -63 4 -63 6 0 11 21 11 49 0 62 10 112 21 105 12 -7 11 -94 -1 -94 -11 0
-14 -43 -4 -53 4 -3 22 0 40 8 19 8 34 11 34 8 0 -3 7 0 15 7 12 10 15 36 15
116 0 60 -4 104 -10 104 -5 0 -8 -17 -7 -37 2 -29 -2 -38 -16 -41 -16 -3 -17
3 -15 50 3 50 2 53 -22 55 -14 0 -32 -1 -40 -3z m40 -60 c0 -20 -5 -34 -12
-34 -11 0 -14 21 -9 73 1 5 6 5 11 2 6 -3 10 -22 10 -41z"/>
<path d="M7273 4363 c-24 -5 -30 -18 -13 -28 6 -3 10 -1 10 4 0 6 7 11 15 11
8 0 15 5 15 10 0 6 -1 9 -2 9 -2 -1 -13 -4 -25 -6z"/>
<path d="M6050 4350 c0 -5 5 -10 10 -10 6 0 10 5 10 10 0 6 -4 10 -10 10 -5 0
-10 -4 -10 -10z"/>
<path d="M6110 4349 c-15 -5 37 -7 134 -4 88 3 162 7 164 10 9 9 -272 3 -298
-6z"/>
<path d="M7110 4350 c0 -18 20 -50 30 -50 18 0 10 39 -10 50 -14 8 -20 8 -20
0z"/>
<path d="M7193 4349 c-6 -6 -8 -19 -6 -30 4 -15 8 -17 19 -8 15 12 19 49 6 49
-4 0 -13 -5 -19 -11z"/>
<path d="M7056 4342 c-10 -9 -7 -34 3 -27 6 3 13 0 18 -7 9 -15 43 -20 43 -7
0 5 -4 9 -10 9 -5 0 -10 6 -10 14 0 14 -34 28 -44 18z"/>
<path d="M6890 4332 c0 -15 11 -21 27 -15 12 5 12 7 1 14 -17 11 -28 11 -28 1z"/>
<path d="M6940 4306 c0 -24 4 -26 43 -26 25 0 37 4 29 8 -7 5 -10 16 -6 25 5
13 1 17 -17 16 -13 0 -19 -3 -12 -5 7 -3 9 -12 6 -20 -7 -18 -23 -18 -23 0 0
8 -4 18 -10 21 -6 4 -10 -5 -10 -19z"/>
<path d="M7265 4320 c-18 -8 -17 -9 8 -9 15 -1 27 4 27 9 0 12 -8 12 -35 0z"/>
<path d="M6610 4288 c0 -29 2 -31 15 -17 9 9 13 23 9 32 -10 28 -24 19 -24
-15z"/>
<path d="M6761 4303 c-1 -12 4 -25 9 -28 12 -7 12 2 0 30 -8 19 -9 19 -9 -2z"/>
<path d="M6785 4310 c3 -5 8 -10 11 -10 2 0 4 5 4 10 0 6 -5 10 -11 10 -5 0
-7 -4 -4 -10z"/>
<path d="M6840 4301 c0 -12 5 -21 10 -21 6 0 10 6 10 14 0 8 -4 18 -10 21 -5
3 -10 -3 -10 -14z"/>
<path d="M6111 4294 c0 -11 3 -14 6 -6 3 7 2 16 -1 19 -3 4 -6 -2 -5 -13z"/>
<path d="M6203 4272 c0 -20 2 -29 4 -19 3 9 7 17 10 17 3 0 12 -8 19 -17 7
-10 14 -13 14 -7 0 6 -11 23 -24 37 l-24 26 1 -37z"/>
<path d="M6280 4282 c0 -18 4 -32 9 -32 5 0 7 12 5 27 -7 39 -14 42 -14 5z"/>
<path d="M6680 4296 c0 -8 6 -16 14 -19 10 -4 12 0 9 14 -6 22 -23 26 -23 5z"/>
<path d="M7153 4265 c-13 -5 -23 -18 -23 -28 0 -17 7 -18 80 -14 44 2 83 6 86
10 3 3 3 14 0 25 -5 16 -15 19 -64 18 -31 0 -67 -5 -79 -11z m37 -25 c0 -5 -4
-10 -10 -10 -5 0 -10 5 -10 10 0 6 5 10 10 10 6 0 10 -4 10 -10z m30 6 c0 -3
-4 -8 -10 -11 -5 -3 -10 -1 -10 4 0 6 5 11 10 11 6 0 10 -2 10 -4z"/>
<path d="M6995 4250 c-3 -5 -1 -10 4 -10 6 0 11 -8 11 -17 0 -14 -4 -13 -24 7
-18 16 -30 20 -43 15 -10 -5 -20 -8 -23 -7 -3 0 -6 -8 -6 -19 0 -10 3 -19 7
-19 4 0 15 -3 24 -6 13 -5 15 -2 9 20 -3 15 -2 26 4 26 5 0 12 -8 15 -19 3
-15 14 -19 53 -19 54 -1 74 10 67 38 -8 30 -43 26 -43 -5 0 -14 -4 -25 -10
-25 -5 0 -10 6 -10 14 0 19 -26 40 -35 26z m85 -20 c0 -5 -4 -10 -10 -10 -5 0
-10 5 -10 10 0 6 5 10 10 10 6 0 10 -4 10 -10z"/>
<path d="M6854 4238 c12 -10 17 -21 13 -32 -5 -12 -3 -16 5 -14 16 5 24 48 10
48 -6 0 -19 3 -29 6 -17 6 -17 6 1 -8z"/>
<path d="M6725 4230 c3 -5 8 -10 11 -10 2 0 4 5 4 10 0 6 -5 10 -11 10 -5 0
-7 -4 -4 -10z"/>
<path d="M6768 4213 c6 -30 22 -30 22 0 1 19 2 20 11 5 5 -10 18 -22 28 -27
16 -9 17 -7 13 14 -2 14 -12 25 -21 26 -9 0 -25 2 -37 3 -17 2 -20 -2 -16 -21z"/>
<path d="M6610 4214 c0 -8 7 -14 15 -14 8 0 15 -5 15 -12 0 -18 14 0 15 21 1
13 -5 19 -22 19 -13 0 -23 -7 -23 -14z"/>
<path d="M6692 4210 c0 -14 2 -19 5 -12 2 6 2 18 0 25 -3 6 -5 1 -5 -13z"/>
<path d="M7218 4186 c-16 -11 -26 -46 -14 -46 2 0 12 -3 21 -6 13 -5 15 -2 10
17 -5 20 -2 24 20 25 14 1 25 -2 25 -7 0 -5 -4 -9 -10 -9 -5 0 -10 -4 -10 -10
0 -5 7 -10 16 -10 11 0 14 8 12 28 -2 20 -9 28 -28 29 -14 2 -33 -3 -42 -11z"/>
<path d="M7116 4182 c-12 -12 -5 -21 12 -15 13 5 14 3 6 -6 -10 -10 -17 -10
-35 0 -28 15 -59 19 -59 7 0 -4 7 -8 16 -8 14 0 14 -1 0 -16 -24 -23 -20 -25
32 -20 26 3 55 5 66 5 12 1 16 6 12 16 -3 8 -1 15 4 15 5 0 7 6 5 13 -5 12
-49 19 -59 9z"/>
<path d="M6945 4159 c-4 -6 -5 -12 -2 -15 2 -3 7 2 10 11 7 17 1 20 -8 4z"/>
<path d="M6974 4158 c-4 -7 -3 -8 4 -4 6 3 16 -3 22 -14 14 -25 30 -26 30 -1
0 27 -42 42 -56 19z"/>
<path d="M6685 4150 c-3 -5 -1 -10 4 -10 6 0 11 5 11 10 0 6 -2 10 -4 10 -3 0
-8 -4 -11 -10z"/>
<path d="M6770 4150 c0 -5 5 -10 11 -10 5 0 7 5 4 10 -3 6 -8 10 -11 10 -2 0
-4 -4 -4 -10z"/>
<path d="M6648 4130 c-7 -24 -3 -38 8 -28 3 4 4 17 2 30 l-3 23 -7 -25z"/>
<path d="M6740 4133 c0 -13 5 -23 10 -23 13 0 13 11 0 30 -8 12 -10 11 -10 -7z"/>
<path d="M6810 4130 c0 -16 7 -20 30 -20 23 0 30 4 30 20 0 25 -20 27 -20 3
-1 -17 -1 -17 -14 0 -17 22 -26 22 -26 -3z"/>
<path d="M4656 4131 c11 -12 203 -52 244 -50 30 2 30 1 -117 30 -56 10 -110
22 -120 26 -13 4 -15 3 -7 -6z"/>
<path d="M6614 4129 c-3 -6 -1 -16 5 -22 8 -8 11 -5 11 11 0 24 -5 28 -16 11z"/>
<path d="M6970 4131 c0 -5 5 -13 10 -16 6 -3 10 -2 10 4 0 5 -4 13 -10 16 -5
3 -10 2 -10 -4z"/>
<path d="M7380 4112 c-41 -8 -99 -19 -128 -24 -83 -15 -53 -22 40 -9 112 16
178 31 178 42 0 5 -3 8 -7 8 -5 -1 -42 -8 -83 -17z"/>
<path d="M6185 4090 c3 -5 8 -10 11 -10 2 0 4 5 4 10 0 6 -5 10 -11 10 -5 0
-7 -4 -4 -10z"/>
<path d="M6128 4023 c39 -2 105 -2 145 0 39 1 7 3 -73 3 -80 0 -112 -2 -72 -3z"/>
<path d="M6363 4023 c9 -2 23 -2 30 0 6 3 -1 5 -18 5 -16 0 -22 -2 -12 -5z"/>
<path d="M6160 6750 c0 -5 5 -10 10 -10 6 0 10 5 10 10 0 6 -4 10 -10 10 -5 0
-10 -4 -10 -10z"/>
<path d="M4778 6693 c17 -2 47 -2 65 0 17 2 3 4 -33 4 -36 0 -50 -2 -32 -4z"/>
<path d="M6098 6693 c-9 -2 -36 -23 -60 -45 l-43 -41 55 37 c35 24 45 28 27
11 -46 -42 -26 -49 26 -9 56 44 54 63 -5 47z"/>
<path d="M7268 6683 c12 -2 30 -2 40 0 9 3 -1 5 -23 4 -22 0 -30 -2 -17 -4z"/>
<path d="M7350 6684 c0 -6 7 -19 16 -30 14 -18 14 -18 3 6 -14 31 -19 36 -19
24z"/>
<path d="M6180 6670 c0 -5 5 -10 10 -10 18 0 11 -18 -10 -25 -29 -9 -25 -21 8
-20 15 1 35 -3 45 -7 23 -12 22 -3 -4 20 -17 17 -18 20 -5 25 27 10 18 27 -14
27 -16 0 -30 -4 -30 -10z"/>
<path d="M7390 6625 c1 -12 130 -253 130 -243 0 10 -81 174 -108 218 -12 19
-22 31 -22 25z"/>
<path d="M4860 6581 c-16 -31 -12 -37 10 -13 22 23 25 32 10 32 -5 0 -14 -9
-20 -19z"/>
<path d="M6150 6588 c0 -6 -7 -20 -17 -30 -15 -17 -15 -18 5 -18 12 0 22 6 22
14 0 8 7 16 15 18 13 2 12 6 -5 16 -15 9 -20 9 -20 0z"/>
<path d="M6437 6583 c-4 -6 -5 -17 -2 -25 3 -7 -8 -20 -26 -31 -20 -11 -29
-22 -25 -32 4 -13 -2 -14 -37 -9 -23 4 -45 12 -49 18 -6 8 -10 8 -15 0 -12
-17 -116 -84 -130 -84 -7 0 -22 -9 -33 -20 -11 -11 -20 -15 -20 -10 0 15 -40
-8 -40 -23 0 -7 -18 -25 -40 -41 -44 -33 -47 -38 -25 -56 19 -16 19 -44 1 -59
-10 -8 -186 -23 -186 -15 0 0 9 11 20 24 11 12 16 28 13 34 -5 7 -9 5 -11 -6
-2 -10 -10 -18 -17 -18 -11 0 -12 6 -5 26 19 48 29 62 54 68 14 3 30 15 36 26
14 26 35 25 53 0 14 -20 14 -20 30 4 l16 24 -75 27 c-41 15 -78 25 -81 21 -4
-3 -1 -6 6 -6 9 0 9 -5 1 -20 -6 -11 -17 -20 -25 -20 -8 0 -15 -3 -15 -7 0 -5
-23 -9 -50 -11 -28 -2 -50 1 -50 6 0 12 24 22 51 22 10 0 19 5 19 11 0 6 -6 9
-14 6 -20 -8 -27 3 -11 19 7 8 15 19 18 26 6 19 19 3 21 -25 1 -30 26 -24 26
7 0 26 -89 91 -104 76 -17 -17 -32 -11 -42 15 l-9 25 -32 -28 c-38 -32 -40
-38 -14 -45 14 -3 17 0 14 13 -3 9 1 20 9 22 10 4 13 -7 14 -44 1 -35 -3 -48
-11 -44 -13 4 -30 -48 -21 -63 3 -4 -7 -6 -22 -5 -37 2 -39 3 -22 14 12 8 9
10 -11 10 -15 0 -32 7 -39 15 -16 20 -32 9 -24 -17 5 -17 3 -18 -14 -9 -28 15
-42 14 -42 -4 0 -8 -4 -15 -10 -15 -5 0 -7 7 -4 15 4 9 0 15 -9 15 -8 0 -17
-6 -20 -12 -2 -7 -3 11 -2 40 2 34 -1 52 -9 52 -17 0 -43 -34 -38 -49 4 -11
-3 -13 -27 -8 -29 6 -31 5 -21 -13 7 -13 7 -20 1 -20 -6 0 -13 11 -17 25 -3
14 -12 25 -19 25 -7 0 -16 10 -20 23 -6 22 -7 21 -17 -5 -5 -16 -16 -28 -24
-28 -8 0 -14 -7 -14 -16 0 -10 6 -13 19 -9 22 7 36 -29 21 -54 -8 -14 -9 -14
-10 2 0 9 -4 17 -9 17 -5 0 -16 7 -25 15 -13 14 -15 12 -12 -12 1 -16 8 -27
14 -26 7 2 12 -2 12 -8 0 -21 -34 -3 -40 21 -4 17 -8 21 -13 12 -6 -9 -15 -9
-37 3 -31 16 -46 51 -37 85 3 11 2 20 -3 20 -4 0 -5 11 -3 24 4 17 10 23 22
19 12 -4 12 -1 -3 11 -19 15 -18 16 5 25 22 9 22 10 3 10 -11 1 -27 -5 -35
-11 -20 -16 -44 -92 -36 -112 4 -9 3 -15 -1 -13 -4 1 -18 -8 -32 -20 -29 -27
-50 -31 -27 -5 22 24 21 32 -3 32 -11 0 -24 -8 -27 -17 -4 -10 -13 -24 -20
-31 -7 -7 -13 -20 -13 -28 0 -26 -17 -15 -35 22 -13 29 -15 42 -6 61 13 28 14
43 3 43 -15 0 -30 -57 -26 -96 5 -39 4 -41 -20 -41 -15 0 -29 3 -32 8 -7 12
-24 11 -24 -2 0 -5 4 -8 9 -4 5 3 17 -5 25 -17 15 -21 14 -24 -11 -45 -17 -15
-29 -20 -33 -13 -4 6 -18 17 -32 24 -25 13 -25 13 -15 -14 7 -19 16 -26 26
-22 11 4 13 1 8 -12 -4 -10 -10 -30 -13 -44 -4 -15 -12 -34 -19 -42 -19 -22
-35 -89 -24 -96 11 -7 1 -51 -19 -82 -12 -18 -13 -25 -3 -31 8 -5 10 -19 6
-37 -5 -21 -4 -25 4 -14 14 20 20 10 14 -23 -4 -18 -10 -26 -19 -23 -10 4 -11
1 -4 -12 10 -18 25 -109 21 -129 -1 -7 7 -13 19 -13 12 0 20 -7 20 -17 0 -9 3
-14 6 -10 8 7 11 48 14 152 1 52 4 73 9 60 13 -31 24 -175 14 -175 -15 0 -45
-79 -37 -98 4 -9 8 -20 8 -24 1 -3 5 -10 10 -15 5 -5 6 -3 2 5 -4 6 -2 12 4
12 6 0 10 -8 8 -17 -2 -10 -11 -17 -21 -17 -9 1 -17 -4 -17 -12 0 -8 -6 -11
-15 -8 -20 8 -19 -15 1 -37 17 -18 28 -99 14 -99 -5 0 -13 8 -19 17 -5 10 -12
15 -16 11 -4 -3 1 -17 10 -31 9 -15 12 -28 6 -31 -5 -3 -9 -36 -9 -73 1 -54 4
-71 19 -81 18 -13 20 -49 4 -99 -5 -15 -3 -23 4 -23 6 0 11 7 11 15 0 8 4 15
9 15 12 0 20 -35 11 -50 -4 -6 -4 -30 0 -53 5 -22 7 -45 6 -51 -2 -6 -1 -8 1
-3 9 14 27 6 54 -24 24 -27 26 -33 15 -61 -10 -27 -9 -32 19 -54 29 -24 29
-25 11 -39 -16 -12 -17 -17 -6 -30 7 -8 21 -13 30 -10 12 4 19 -1 23 -15 3
-13 0 -20 -10 -20 -18 0 -12 -24 8 -28 15 -3 59 80 59 109 0 21 22 30 41 18
26 -16 34 -8 11 11 -13 11 -22 27 -20 35 4 19 24 16 22 -2 -2 -17 11 -16 26 2
14 17 60 20 60 4 0 -5 10 2 23 16 l22 26 -2 -60 c-1 -40 -7 -67 -17 -77 -9 -8
-16 -27 -16 -40 0 -14 -4 -22 -10 -19 -5 3 -10 14 -10 25 0 16 -3 17 -24 7
-32 -15 -23 -47 13 -45 49 2 63 9 58 29 -3 10 -1 22 4 25 5 3 9 0 9 -6 0 -6 7
-18 15 -26 8 -9 15 -11 15 -5 0 6 10 11 23 12 12 0 16 3 9 6 -10 4 -9 9 5 20
13 10 15 16 6 19 -14 6 -18 24 -5 24 5 0 16 -16 25 -35 9 -19 12 -35 7 -35 -6
0 -10 -5 -10 -11 0 -6 7 -8 16 -5 8 3 13 2 10 -3 -3 -5 4 -11 15 -14 14 -4 20
-11 16 -20 -4 -11 0 -13 16 -9 12 2 28 9 35 15 8 7 12 5 12 -8 0 -9 9 -28 20
-42 l19 -25 7 25 c3 14 3 36 -1 49 -6 22 -5 22 9 -2 9 -14 15 -19 16 -12 0 8
5 10 13 6 6 -4 3 2 -7 14 -23 26 -14 42 9 18 21 -21 29 -20 21 2 -5 14 -4 14
9 -2 24 -31 30 -10 10 34 -10 22 -16 42 -14 43 33 24 59 35 64 28 3 -6 -2 -14
-11 -19 -19 -11 -11 -32 13 -32 11 0 14 -8 11 -30 -4 -25 -2 -30 11 -24 9 4
25 7 36 8 11 1 26 5 33 9 8 6 12 0 12 -20 l1 -28 15 28 c16 30 26 33 43 13 7
-8 27 -17 46 -20 18 -4 36 -12 38 -19 6 -14 10 17 7 51 -1 19 2 23 17 18 13
-4 21 2 30 19 10 24 9 25 -17 25 -16 0 -32 5 -35 11 -4 6 -19 7 -37 4 -23 -6
-29 -4 -23 5 6 10 -4 12 -49 7 -38 -4 -54 -2 -50 5 20 32 194 79 194 52 0 -22
20 -26 45 -10 26 17 75 22 75 7 0 -5 -6 -11 -12 -14 -7 -2 -10 -8 -6 -12 4 -4
14 -1 22 6 8 8 46 39 84 69 39 30 71 61 71 68 1 13 -71 -37 -85 -59 -3 -5 -10
-7 -15 -4 -5 4 -9 0 -9 -8 0 -13 -20 -27 -39 -27 -4 0 -37 28 -72 63 -36 34
-96 89 -132 122 -41 37 -62 62 -55 66 6 4 17 5 25 2 18 -7 63 5 63 18 0 12
-61 10 -115 -4 -52 -14 -52 -13 -22 -38 29 -22 36 -49 13 -49 -8 0 -64 -16
-124 -36 -93 -30 -115 -41 -152 -79 -90 -92 -79 -215 16 -173 41 18 44 27 18
53 -35 35 -30 45 22 42 33 -1 48 2 54 13 4 8 12 24 17 35 6 12 14 35 17 53 4
17 12 35 18 38 27 17 178 0 177 -20 0 -6 -10 -31 -22 -56 -17 -35 -28 -46 -50
-48 -15 -2 -27 2 -27 8 0 11 -34 6 -80 -11 -14 -5 -41 -32 -60 -59 -39 -54
-94 -86 -133 -76 -14 3 -47 33 -73 66 -27 33 -59 63 -72 66 -29 8 -42 33 -42
81 0 47 46 144 71 150 9 3 19 16 22 29 3 19 0 24 -15 24 -13 0 -18 -5 -15 -14
5 -12 -39 -80 -79 -123 -27 -29 -89 -63 -114 -63 -32 0 -70 33 -70 62 0 18 5
16 33 -17 l33 -38 41 23 41 23 -29 52 c-16 29 -29 62 -29 74 0 11 -11 36 -24
55 l-23 35 -34 -30 c-19 -17 -52 -40 -73 -51 -39 -20 -40 -20 -54 -2 -7 11
-17 18 -21 17 -14 -3 -5 93 15 146 23 64 53 89 89 73 15 -7 26 -8 30 -2 4 6
12 10 18 10 22 0 18 -54 -7 -118 -14 -34 -21 -62 -17 -62 24 0 111 136 111
174 0 8 -11 31 -24 50 -13 19 -26 52 -30 74 -5 34 -9 40 -31 40 -28 0 -47 -28
-59 -85 -4 -17 -13 -37 -20 -43 -11 -8 -15 -3 -20 25 -4 19 -11 35 -16 35 -6
0 -10 11 -10 25 0 27 -17 34 -26 10 -4 -8 -14 -15 -23 -15 -14 1 -14 2 2 14
23 17 22 24 -5 28 -12 2 -23 9 -26 17 -3 10 3 13 25 9 24 -3 32 1 42 21 34 74
76 89 88 30 4 -20 14 -34 31 -40 32 -12 35 -8 39 47 1 26 10 63 20 83 16 31
18 50 11 136 -15 199 -63 316 -149 361 -36 18 -61 7 -89 -39 -13 -21 -20 -26
-20 -15 0 30 56 84 102 97 56 17 107 44 136 71 13 12 37 26 53 30 27 8 38 4
86 -31 30 -22 56 -46 59 -53 3 -9 26 -13 67 -13 34 0 70 -4 80 -8 11 -5 25 -1
37 10 11 10 22 16 23 14 31 -39 57 -78 57 -84 0 -14 -39 26 -45 46 -4 11 -11
19 -16 19 -15 0 -10 -32 8 -52 9 -11 11 -18 5 -18 -7 0 -17 8 -23 19 -11 16
-15 17 -38 5 -14 -8 -34 -14 -43 -14 -10 0 -18 -4 -18 -10 0 -5 8 -6 18 -3 15
6 15 5 3 -10 -7 -9 -22 -17 -32 -17 -10 0 -21 -5 -25 -11 -8 -13 9 -11 114 12
58 12 65 12 73 -4 6 -9 15 -17 22 -17 12 -1 77 -55 77 -65 0 -3 -9 -5 -20 -5
-11 0 -20 -4 -20 -8 0 -5 90 -7 200 -5 110 2 199 7 197 11 -1 4 -21 5 -45 4
-30 -3 -49 1 -62 13 -20 18 -88 23 -181 12 -67 -8 -73 -3 -139 113 -54 93 -56
94 -115 114 l-48 17 -49 -30 c-45 -28 -57 -30 -40 -5 4 5 24 18 45 28 25 12
37 23 33 32 -3 8 -1 14 4 14 6 0 10 -7 10 -15 0 -12 15 -15 78 -14 42 0 71 3
64 6 -6 2 -10 9 -6 14 8 13 24 11 24 -4 0 -8 14 -11 46 -9 53 5 66 -4 134 -96
l46 -62 279 -5 c154 -3 299 -9 322 -13 38 -8 43 -7 62 19 12 16 21 32 21 38 0
5 21 32 47 61 47 52 47 52 92 45 25 -5 85 -8 133 -9 47 -1 90 -4 94 -8 4 -5
-2 -8 -14 -8 -34 0 -108 -38 -142 -73 -16 -17 -30 -34 -30 -37 0 -4 -18 -31
-40 -60 -22 -29 -40 -49 -40 -44 0 5 7 18 15 28 8 11 15 27 15 35 0 13 -2 14
-9 2 -5 -8 -16 -11 -24 -8 -11 4 -14 1 -10 -9 3 -7 0 -14 -6 -14 -6 0 -11 5
-11 11 0 8 -6 7 -16 -2 -15 -12 -16 -11 -10 7 5 15 2 24 -9 28 -10 3 -13 2
-10 -5 9 -13 -13 -39 -34 -39 -11 0 -12 3 -4 8 8 5 9 13 3 22 -7 12 -10 12
-16 -3 -4 -10 -12 -16 -19 -13 -7 2 -26 -10 -41 -27 -25 -27 -25 -29 -3 -9 35
30 48 28 15 -3 -15 -14 -31 -23 -36 -20 -5 3 -20 -1 -34 -10 -13 -9 -36 -15
-52 -13 -15 2 -29 -2 -31 -8 -2 -7 45 -11 154 -13 87 -1 168 -4 181 -8 20 -5
23 -2 20 15 -2 15 11 31 46 58 l49 37 90 -11 c49 -6 94 -9 99 -6 4 3 19 27 33
53 37 74 165 172 165 127 0 -10 9 -16 21 -16 16 0 20 -5 16 -20 -3 -13 0 -20
9 -20 8 0 14 -4 14 -10 0 -5 11 -10 25 -10 14 0 25 -4 25 -9 0 -5 12 -13 26
-18 l26 -9 -51 -64 c-50 -62 -67 -95 -34 -69 15 13 15 12 4 -9 -9 -17 -16 -20
-30 -13 -31 17 -46 40 -33 53 7 7 12 18 12 26 0 12 -3 12 -15 2 -23 -19 -18
-46 15 -80 29 -30 41 -58 18 -44 -8 5 -9 0 -5 -16 3 -12 1 -33 -4 -47 -5 -14
-12 -42 -14 -62 -3 -20 -8 -55 -11 -79 -4 -24 -2 -53 4 -65 71 -151 69 -236
-9 -329 -44 -53 -46 -58 -21 -58 12 0 14 -2 4 -8 -9 -6 -3 -20 23 -55 l36 -47
-21 -22 c-11 -12 -20 -33 -20 -46 0 -20 -4 -23 -21 -19 -15 4 -19 2 -15 -10 3
-8 6 -17 6 -20 0 -3 6 0 14 6 11 9 12 6 8 -14 -2 -14 -14 -30 -25 -36 -18 -10
-19 -9 -13 15 10 39 -9 32 -21 -8 -8 -24 -7 -38 0 -45 6 -6 8 -13 6 -16 -9 -8
-109 98 -109 115 0 8 -9 21 -21 28 -24 15 -35 10 -23 -10 5 -7 7 -21 6 -30 -2
-11 3 -18 13 -18 36 0 78 -120 55 -159 -6 -10 -10 -11 -10 -3 0 17 -20 15 -20
-2 0 -8 -9 -17 -19 -21 -11 -3 -22 -12 -25 -20 -4 -13 -11 -12 -41 5 -34 19
-46 15 -24 -7 6 -6 9 -19 7 -29 -4 -16 -7 -13 -17 11 -40 98 -125 145 -303
170 -52 7 -54 10 -36 50 11 26 32 33 43 15 9 -15 35 -12 35 3 0 9 -31 19 -97
30 -132 22 -253 31 -253 17 0 -5 8 -10 18 -10 10 0 22 -3 25 -7 4 -3 28 -8 55
-9 109 -7 147 -13 150 -23 2 -6 -2 -11 -10 -11 -12 0 -58 -40 -183 -158 -22
-21 -56 -51 -76 -65 -67 -50 -203 -112 -221 -101 -17 11 -7 -24 12 -41 22 -20
26 -45 9 -62 -8 -8 -16 -6 -31 9 -24 24 -49 9 -46 -28 2 -25 12 -31 23 -14 3
6 1 10 -4 10 -6 0 -11 7 -11 15 0 8 7 15 15 15 8 0 15 -6 15 -14 0 -29 17 -25
61 14 24 22 46 40 49 40 3 0 14 -14 25 -30 11 -16 23 -30 28 -30 4 0 7 -8 7
-17 0 -12 7 -9 28 14 19 22 35 30 57 29 23 -1 30 4 35 22 7 32 25 24 24 -10
-1 -16 2 -28 7 -28 5 0 9 14 9 31 0 29 21 58 44 59 5 0 6 -24 4 -53 -3 -38 0
-57 10 -67 12 -11 13 -10 8 6 -9 28 25 47 59 34 20 -8 30 -6 41 5 9 8 20 15
25 15 5 0 9 7 9 15 0 8 4 15 10 15 13 0 30 -34 30 -63 0 -13 9 -32 19 -41 19
-17 21 -17 50 0 33 20 33 35 0 27 -16 -5 -20 -2 -17 8 3 8 12 13 19 11 11 -3
11 -1 2 8 -19 20 -35 1 -27 -33 6 -32 6 -32 -14 -14 -15 13 -21 31 -20 58 0
37 7 47 22 32 3 -4 15 -8 26 -10 15 -2 22 6 30 37 11 41 29 51 49 26 8 -10 9
-16 1 -21 -15 -9 -12 -67 5 -89 12 -16 17 -17 30 -6 13 10 15 9 15 -7 0 -11 7
-35 17 -53 15 -30 17 -32 29 -16 7 10 17 15 22 12 6 -3 13 1 16 9 3 9 17 20
31 25 14 5 25 16 25 24 0 9 9 20 19 26 27 14 34 13 28 -4 -3 -8 1 -20 8 -26
12 -10 9 -16 -16 -37 -16 -14 -28 -28 -25 -30 10 -10 108 62 122 89 16 31 37
38 32 11 -2 -11 2 -17 11 -15 7 2 26 -11 41 -28 33 -37 39 -38 32 -5 -8 43 36
125 68 125 15 0 12 -10 -10 -28 -14 -12 -18 -24 -14 -40 5 -18 9 -20 20 -11
19 15 28 6 19 -20 -3 -12 -15 -21 -26 -21 -20 0 -26 -15 -9 -25 12 -8 60 39
60 59 0 9 9 20 19 25 16 9 20 7 25 -14 10 -39 56 -25 56 16 0 9 7 23 17 30 9
8 22 29 30 47 7 17 18 32 23 32 6 0 10 7 10 15 0 36 23 114 33 112 6 -1 16 18
22 42 13 52 27 61 42 28 9 -19 8 -26 -8 -35 -23 -15 -25 -38 -3 -50 24 -13 0
-56 -27 -49 -23 6 -54 -34 -45 -59 8 -22 28 -7 24 19 -2 17 2 21 16 19 10 -2
29 6 41 18 19 18 22 29 18 56 -3 19 -1 39 5 46 6 8 7 32 2 63 -6 36 -4 58 6
77 18 34 18 34 -7 57 -12 11 -16 21 -10 25 5 4 12 2 16 -4 13 -21 26 -9 21 18
-3 15 -7 51 -8 80 -1 29 -7 57 -15 63 -17 15 -17 29 2 29 19 0 35 31 35 69 0
20 5 31 14 31 9 0 12 7 9 20 -6 24 -11 25 -35 3 -14 -13 -18 -13 -18 -2 0 8 7
22 14 32 13 17 10 67 -4 67 -4 0 -4 19 0 42 5 24 6 46 4 50 -3 5 -2 14 3 20 7
13 8 18 11 71 2 20 10 31 30 39 20 8 23 12 10 15 -9 2 -15 10 -12 17 3 7 -4
30 -15 50 -20 34 -20 38 -5 61 9 14 21 25 27 25 6 0 7 3 4 7 -4 3 -2 12 4 20
9 9 8 13 0 13 -6 0 -11 5 -11 11 0 6 -14 27 -31 47 -25 29 -30 40 -25 67 5 22
2 36 -9 45 -10 8 -12 17 -5 29 5 10 7 27 4 38 -8 31 14 38 26 9 6 -17 6 -35 0
-51 -5 -14 -5 -27 0 -30 4 -3 11 -24 15 -47 8 -44 24 -68 47 -68 10 0 10 2 -1
9 -8 5 -11 16 -8 24 3 9 1 18 -6 21 -9 3 -9 5 1 5 6 1 12 6 12 12 0 5 -4 7
-10 4 -5 -3 -10 -3 -11 2 0 4 -2 22 -4 38 -3 17 -6 45 -9 63 -5 47 -30 71 -56
54 -11 -6 -21 -12 -23 -12 -2 0 -2 48 0 108 2 104 2 106 -15 80 -18 -30 -27
-34 -37 -18 -9 15 -25 12 -25 -5 0 -8 -6 -12 -13 -10 -6 3 -21 -6 -31 -20 -29
-38 -41 -30 -16 11 18 28 21 46 18 90 -5 61 -13 74 -31 55 -9 -10 -9 -15 -1
-18 7 -2 10 -12 7 -22 -3 -10 0 -22 6 -25 5 -4 8 -13 6 -21 -3 -8 -7 -22 -10
-30 -3 -11 -15 -4 -45 26 -22 22 -40 47 -40 55 0 8 -5 14 -11 14 -8 0 -10 -14
-6 -45 4 -25 3 -45 -2 -45 -4 0 -12 -14 -17 -31 -12 -42 -27 -41 -37 4 -5 21
-14 36 -21 34 -6 -2 -19 9 -28 24 -20 33 -68 46 -109 29 -33 -14 -62 0 -52 26
3 8 1 14 -5 14 -14 0 -23 -28 -11 -35 5 -4 8 -12 7 -18 -4 -18 32 -67 48 -67
22 0 16 -28 -7 -35 -14 -5 -28 0 -45 16 -13 12 -27 20 -30 16 -4 -4 4 -15 16
-25 13 -11 20 -24 16 -30 -11 -19 -29 -14 -21 6 5 14 4 15 -6 5 -7 -7 -18 -13
-23 -13 -6 0 -4 5 4 10 12 7 12 12 2 22 -6 6 -12 21 -12 33 0 21 -51 85 -69
85 -5 0 -13 -4 -16 -10 -3 -5 3 -10 15 -10 18 0 21 -5 18 -32 l-3 -33 -59 2
c-33 1 -64 7 -70 13 -18 18 -28 11 -26 -22 1 -18 2 -39 1 -45 -2 -20 -30 -15
-30 5 -1 35 -13 92 -20 92 -4 0 -12 -5 -19 -12 -8 -8 -15 -8 -27 2 -8 7 -15
16 -15 21 0 5 -8 17 -17 27 -10 10 -23 27 -29 37 -7 12 -13 15 -17 8z m-12
-74 c11 -17 -1 -21 -15 -4 -8 9 -8 15 -2 15 6 0 14 -5 17 -11z m562 -13 c-6
-13 -17 -22 -23 -19 -7 2 -15 0 -18 -6 -4 -6 -13 -8 -21 -5 -8 4 -12 10 -9 16
3 5 -5 12 -17 16 -18 5 -11 8 31 13 30 3 58 6 62 7 3 1 1 -9 -5 -22z m33 -11
c-7 -8 -17 -15 -23 -15 -6 0 -2 7 9 15 25 19 30 19 14 0z m-1313 -12 c2 -6 -3
-13 -12 -16 -10 -5 -15 0 -15 14 0 21 21 22 27 2z m583 -4 c0 -5 -4 -8 -9 -5
-5 3 -11 -1 -15 -9 -3 -8 -13 -15 -23 -15 -15 1 -15 4 6 20 26 22 41 25 41 9z
m514 -58 c-5 -37 -10 -49 -17 -42 -11 11 -10 87 0 104 13 22 23 -15 17 -62z
m410 48 c-3 -5 -1 -15 5 -22 6 -8 6 -18 0 -27 -8 -13 -12 -12 -24 4 -14 18
-20 15 -16 -8 4 -20 -11 -45 -24 -40 -10 4 -12 0 -8 -15 3 -12 1 -21 -6 -21
-6 0 -11 6 -11 14 0 8 -3 21 -6 30 -4 11 -1 16 11 16 10 0 15 7 14 18 -4 22
19 64 31 57 5 -3 11 -1 15 5 4 6 11 8 16 4 5 -3 7 -10 3 -15z m-244 -15 c0 -8
-4 -12 -10 -9 -5 3 -10 10 -10 16 0 5 5 9 10 9 6 0 10 -7 10 -16z m-508 -16
c-7 -7 -12 -8 -12 -2 0 14 12 26 19 19 2 -3 -1 -11 -7 -17z m554 6 c-3 -9 -6
-20 -6 -25 0 -5 -5 -9 -11 -9 -6 0 -26 -7 -45 -16 -27 -13 -33 -21 -28 -37 4
-13 2 -17 -5 -13 -6 4 -11 14 -11 22 0 8 -6 14 -12 14 -7 0 -1 8 12 17 14 9
28 21 31 25 3 5 13 6 21 3 10 -4 17 1 21 14 3 12 13 21 22 21 12 0 15 -5 11
-16z m48 1 c-4 -8 -10 -12 -15 -9 -11 6 -2 24 11 24 5 0 7 -7 4 -15z m-806
-20 c15 -8 39 -19 55 -25 15 -5 27 -14 27 -19 0 -19 -97 17 -120 44 -17 20 3
20 38 0z m1086 -28 c-16 -51 -64 -95 -51 -47 3 13 0 20 -9 20 -8 0 -14 -9 -14
-19 0 -33 -17 -33 -22 0 -4 25 -1 33 14 37 10 2 18 9 18 16 0 6 16 12 36 13
32 1 34 0 28 -20z m-131 -17 c-3 -11 -9 -20 -14 -20 -5 0 -9 9 -9 20 0 11 6
20 14 20 9 0 12 -7 9 -20z m-1333 -10 c0 -5 -5 -10 -11 -10 -5 0 -7 5 -4 10 3
6 8 10 11 10 2 0 4 -4 4 -10z m274 -14 c-3 -9 -10 -16 -15 -16 -14 0 -11 28 4
33 16 6 19 3 11 -17z m71 14 c-3 -5 -12 -10 -18 -10 -7 0 -6 4 3 10 19 12 23
12 15 0z m1136 -24 c-9 -11 -9 -15 1 -19 10 -3 9 -9 -4 -23 -17 -18 -18 -18
-18 0 0 15 -3 16 -15 6 -25 -21 -17 6 12 41 15 18 29 27 31 20 2 -6 -1 -18 -7
-25z m-1199 -40 c7 5 8 3 3 -5 -5 -8 8 -28 34 -55 l41 -42 -70 0 c-59 -1 -74
2 -93 21 -33 31 -67 74 -67 83 1 4 17 20 38 35 l37 28 33 -36 c18 -20 38 -33
44 -29z m438 54 c0 -5 -2 -10 -4 -10 -3 0 -8 5 -11 10 -3 6 -1 10 4 10 6 0 11
-4 11 -10z m-789 -43 c-13 -13 -26 -3 -16 12 3 6 11 8 17 5 6 -4 6 -10 -1 -17z
m1329 3 c0 -5 -4 -10 -10 -10 -5 0 -10 5 -10 10 0 6 5 10 10 10 6 0 10 -4 10
-10z m230 -37 c0 -12 -15 -33 -24 -33 -6 0 -17 -9 -24 -20 -17 -28 -27 -25
-29 8 -2 36 13 51 48 49 16 -1 29 -3 29 -4z m-1635 -73 c3 -5 1 -10 -4 -10 -6
0 -11 5 -11 10 0 6 2 10 4 10 3 0 8 -4 11 -10z m60 0 c-3 -5 -13 -10 -21 -10
-8 0 -14 5 -14 10 0 6 9 10 21 10 11 0 17 -4 14 -10z m1506 -43 l23 -32 -37
32 c-39 34 -49 34 -97 4 -17 -12 -22 -12 -16 -3 11 19 65 40 86 35 10 -3 28
-19 41 -36z m163 -122 c13 -20 14 -30 5 -47 l-11 -21 -14 24 c-15 27 -18 69
-5 69 5 0 16 -11 25 -25z m-2469 -66 c3 -41 7 -94 9 -119 6 -71 -15 -110 -59
-110 -17 0 -20 6 -19 47 0 27 -5 69 -11 95 -10 34 -10 49 -1 58 8 8 5 9 -14 2
-34 -12 -81 2 -110 33 -28 30 -22 32 22 5 52 -31 81 -26 130 24 24 24 44 43
46 41 1 -1 4 -35 7 -76z m-111 10 c-3 -5 -10 -7 -15 -3 -5 3 -7 10 -3 15 3 5
10 7 15 3 5 -3 7 -10 3 -15z m2266 -5 c0 -8 4 -13 9 -9 5 3 13 0 17 -6 4 -8 3
-9 -4 -5 -7 4 -12 1 -12 -8 0 -9 5 -16 11 -16 5 0 7 -5 3 -12 -6 -9 -9 -9 -12
0 -2 7 -8 12 -13 12 -4 0 -6 -7 -3 -15 4 -8 1 -22 -6 -30 -6 -8 -9 -19 -5 -25
3 -5 1 -10 -6 -10 -8 0 -7 -7 3 -22 8 -13 17 -33 20 -45 5 -18 2 -23 -13 -23
-10 0 -19 -5 -19 -11 0 -5 -5 -7 -11 -3 -16 10 -7 217 10 238 15 18 31 12 31
-10z m-2440 -24 c0 -5 -7 -10 -15 -10 -8 0 -15 5 -15 10 0 6 7 10 15 10 8 0
15 -4 15 -10z m2722 -87 c26 -23 22 -33 -7 -20 -14 7 -25 18 -25 25 0 16 10
15 32 -5z m-84 -80 c-10 -66 -16 -88 -24 -81 -7 8 17 138 26 138 4 0 3 -26 -2
-57z m-2453 -23 c3 -5 1 -10 -4 -10 -6 0 -11 5 -11 10 0 6 2 10 4 10 3 0 8 -4
11 -10z m5 -49 c0 -6 -4 -13 -10 -16 -5 -3 -10 1 -10 9 0 9 5 16 10 16 6 0 10
-4 10 -9z m2321 -88 c8 -10 23 -35 32 -56 17 -37 17 -38 -2 -32 -16 5 -19 2
-15 -17 2 -13 2 -17 -2 -10 -10 21 -21 13 -28 -19 -3 -17 -10 -28 -16 -24 -11
7 -7 -35 5 -55 3 -5 2 -10 -4 -10 -5 0 -19 24 -30 53 -17 44 -17 54 -5 63 8 6
14 18 14 26 0 9 7 21 15 28 9 7 13 15 10 18 -3 3 0 11 6 19 9 10 8 13 -5 13
-10 0 -14 5 -11 10 9 15 20 12 36 -7z m-2421 -29 c0 -8 -5 -12 -10 -9 -6 4 -8
11 -5 16 9 14 15 11 15 -7z m2636 -191 c-10 -10 -19 5 -10 18 6 11 8 11 12 0
2 -7 1 -15 -2 -18z m-2636 -13 c0 -5 -5 -10 -11 -10 -5 0 -7 5 -4 10 3 6 8 10
11 10 2 0 4 -4 4 -10z m-10 -100 c0 -6 -9 -20 -20 -32 -17 -19 -20 -19 -26 -5
-3 10 -4 24 0 32 6 17 46 21 46 5z m2608 -8 c2 -7 -2 -10 -12 -6 -9 3 -16 11
-16 16 0 13 23 5 28 -10z m-133 -91 c-4 -14 -10 -30 -14 -34 -11 -11 -62 10
-93 41 -39 37 -36 50 12 48 22 -1 46 1 53 6 19 13 49 -31 42 -61z m-205 -22
c0 -5 -4 -7 -10 -4 -6 3 -10 -4 -11 -17 0 -13 -3 -17 -6 -10 -3 7 -2 19 1 27
6 17 26 20 26 4z m360 -43 c0 -15 -18 -31 -26 -23 -7 7 7 37 17 37 5 0 9 -6 9
-14z m-100 -53 c-11 -17 -11 -17 -6 0 3 10 7 26 7 35 1 15 2 15 6 0 2 -10 -1
-25 -7 -35z m-2384 25 c4 -7 4 -10 -1 -6 -4 4 -14 3 -22 -3 -8 -8 -13 -8 -13
-1 0 6 6 13 13 15 6 3 13 6 14 6 1 1 5 -5 9 -11z m2474 -58 c0 -5 -4 -10 -10
-10 -5 0 -10 5 -10 10 0 6 5 10 10 10 6 0 10 -4 10 -10z m-2600 -40 c0 -5 -5
-10 -11 -10 -5 0 -7 5 -4 10 3 6 8 10 11 10 2 0 4 -4 4 -10z m110 -9 c0 -5 -7
-14 -15 -21 -12 -10 -15 -10 -15 2 0 8 3 18 7 21 9 10 23 9 23 -2z m1601 -41
c3 -19 11 -48 18 -63 14 -36 14 -46 -2 -26 -11 15 -35 23 -102 36 -16 3 -36
10 -42 15 -9 8 -13 6 -13 -6 0 -26 -20 -19 -31 12 -20 51 16 72 116 69 49 -2
50 -3 56 -37z m-1681 20 c0 -5 -5 -10 -11 -10 -5 0 -7 5 -4 10 3 6 8 10 11 10
2 0 4 -4 4 -10z m2365 -11 c-10 -15 -25 -10 -19 6 4 8 10 12 15 9 5 -3 7 -10
4 -15z m-2194 -29 c11 0 18 -4 14 -10 -3 -5 -13 -6 -21 -3 -9 3 -20 0 -24 -8
-5 -7 -12 -11 -15 -7 -4 3 0 16 7 27 7 12 14 17 16 11 2 -5 13 -10 23 -10z
m-113 -2 c16 -16 15 -38 -2 -38 -8 0 -18 -9 -21 -20 -3 -11 -11 -20 -16 -20
-16 0 -10 40 7 47 9 3 14 13 11 24 -6 22 3 25 21 7z m206 -13 c17 -13 17 -15
3 -15 -10 0 -14 -5 -11 -15 6 -15 -20 -22 -30 -7 -2 4 -20 7 -40 6 -20 -1 -36
2 -36 7 0 5 11 9 25 9 14 0 25 4 25 9 0 8 15 15 40 20 3 0 14 -6 24 -14z
m2071 -25 c3 -5 1 -10 -4 -10 -6 0 -11 5 -11 10 0 6 2 10 4 10 3 0 8 -4 11
-10z m-1985 -45 c0 -1 -7 -8 -15 -15 -13 -10 -15 -9 -15 8 0 15 5 20 15 16 8
-4 15 -7 15 -9z m1175 -20 c51 -22 76 -47 61 -62 -3 -3 -14 1 -23 10 -10 8
-43 25 -73 37 -30 12 -59 26 -64 31 -20 18 44 9 99 -16z m-1445 -5 c0 -11 -4
-20 -10 -20 -5 0 -10 9 -10 20 0 11 5 20 10 20 6 0 10 -9 10 -20z m1308 -10
c24 0 27 -7 13 -29 -16 -25 -171 -7 -171 20 0 23 99 41 121 22 8 -7 25 -13 37
-13z m378 -32 c14 -16 21 -28 16 -28 -13 0 -72 71 -72 85 0 5 7 1 16 -10 8
-11 26 -32 40 -47z m470 -15 c-10 -10 -19 5 -10 18 6 11 8 11 12 0 2 -7 1 -15
-2 -18z m-1866 -13 c0 -5 -4 -10 -10 -10 -5 0 -10 5 -10 10 0 6 5 10 10 10 6
0 10 -4 10 -10z m1923 -6 c-5 -13 -2 -15 15 -10 17 6 21 4 16 -9 -4 -9 -9 -13
-12 -11 -3 3 -11 -2 -18 -12 -7 -9 -16 -14 -20 -10 -4 4 -1 14 6 23 8 10 9 15
2 15 -6 0 -9 7 -6 15 4 8 10 15 15 15 4 0 6 -7 2 -16z m-1143 -9 c0 -8 -4 -15
-10 -15 -5 0 -10 7 -10 15 0 8 5 15 10 15 6 0 10 -7 10 -15z m777 -27 c-3 -8
-6 -5 -6 6 -1 11 2 17 5 13 3 -3 4 -12 1 -19z m143 2 c0 -5 -5 -10 -11 -10 -5
0 -7 5 -4 10 3 6 8 10 11 10 2 0 4 -4 4 -10z m-50 -21 c0 -5 5 -7 12 -3 8 5 9
2 5 -10 -4 -10 -7 -20 -7 -24 0 -8 -29 31 -30 41 0 4 5 7 10 7 6 0 10 -5 10
-11z"/>
<path d="M5410 6572 c0 -6 -8 -13 -17 -15 -16 -4 -16 -5 -1 -6 18 -1 34 16 24
26 -3 4 -6 1 -6 -5z"/>
<path d="M5625 6570 c-3 -5 -1 -10 4 -10 6 0 11 5 11 10 0 6 -2 10 -4 10 -3 0
-8 -4 -11 -10z"/>
<path d="M6213 6565 c-22 -24 -14 -36 12 -19 14 9 22 20 19 25 -7 12 -17 11
-31 -6z"/>
<path d="M6286 6555 c-9 -14 -41 -42 -71 -62 -31 -20 -53 -38 -51 -41 9 -9
106 60 127 90 12 16 19 31 16 34 -2 2 -12 -7 -21 -21z"/>
<path d="M4890 6559 c0 -5 5 -7 10 -4 6 3 10 8 10 11 0 2 -4 4 -10 4 -5 0 -10
-5 -10 -11z"/>
<path d="M4927 6541 c-9 -16 -17 -36 -17 -45 0 -9 -4 -16 -10 -16 -5 0 -10 -5
-10 -11 0 -6 9 -9 20 -6 11 3 18 2 15 -3 -3 -4 1 -13 9 -19 22 -19 41 12 20
33 -12 13 -15 27 -10 56 3 22 5 40 3 40 -1 0 -10 -13 -20 -29z"/>
<path d="M5207 6563 c-4 -3 -7 -11 -7 -17 0 -6 5 -5 12 2 6 6 9 14 7 17 -3 3
-9 2 -12 -2z"/>
<path d="M5318 6558 c-16 -5 -28 -14 -28 -20 0 -6 7 -4 17 3 13 11 17 11 20 2
3 -7 9 -13 14 -13 6 0 7 5 3 11 -3 6 0 15 7 20 18 11 1 10 -33 -3z"/>
<path d="M6670 6552 c0 -11 6 -24 13 -30 10 -9 13 -5 12 15 0 30 -25 45 -25
15z"/>
<path d="M6150 6521 c0 -10 19 -25 25 -20 1 2 -3 10 -11 17 -8 7 -14 8 -14 3z"/>
<path d="M5193 6513 c-15 -5 -17 -23 -4 -23 5 0 11 7 15 15 3 8 4 15 3 14 -1
0 -8 -3 -14 -6z"/>
<path d="M4840 6500 c0 -5 5 -10 11 -10 5 0 7 5 4 10 -3 6 -8 10 -11 10 -2 0
-4 -4 -4 -10z"/>
<path d="M5290 6500 c0 -5 5 -10 11 -10 5 0 7 5 4 10 -3 6 -8 10 -11 10 -2 0
-4 -4 -4 -10z"/>
<path d="M4795 6480 c3 -5 8 -10 11 -10 2 0 4 5 4 10 0 6 -5 10 -11 10 -5 0
-7 -4 -4 -10z"/>
<path d="M6055 6480 c-3 -5 -1 -10 4 -10 6 0 11 5 11 10 0 6 -2 10 -4 10 -3 0
-8 -4 -11 -10z"/>
<path d="M5420 6469 c0 -5 5 -7 10 -4 6 3 10 8 10 11 0 2 -4 4 -10 4 -5 0 -10
-5 -10 -11z"/>
<path d="M4788 6444 c-4 -3 -5 -11 -3 -17 2 -7 6 -24 9 -39 10 -43 28 -34 20
10 -7 39 -16 56 -26 46z"/>
<path d="M5540 6440 c0 -5 5 -10 10 -10 6 0 10 5 10 10 0 6 -4 10 -10 10 -5 0
-10 -4 -10 -10z"/>
<path d="M6120 6440 c-8 -5 -10 -10 -5 -10 6 0 17 5 25 10 8 5 11 10 5 10 -5
0 -17 -5 -25 -10z"/>
<path d="M5593 6415 c11 -23 27 -34 27 -17 -1 9 -26 42 -33 42 -3 0 0 -11 6
-25z"/>
<path d="M5460 6410 c0 -5 5 -10 11 -10 5 0 7 5 4 10 -3 6 -8 10 -11 10 -2 0
-4 -4 -4 -10z"/>
<path d="M4725 6400 c3 -5 8 -10 11 -10 2 0 4 5 4 10 0 6 -5 10 -11 10 -5 0
-7 -4 -4 -10z"/>
<path d="M4740 6350 c0 -5 5 -10 11 -10 5 0 7 5 4 10 -3 6 -8 10 -11 10 -2 0
-4 -4 -4 -10z"/>
<path d="M4690 6330 c0 -5 12 -10 26 -10 14 0 23 4 19 10 -3 6 -15 10 -26 10
-10 0 -19 -4 -19 -10z"/>
<path d="M5890 6306 c0 -8 5 -18 10 -21 6 -3 10 3 10 14 0 12 -4 21 -10 21 -5
0 -10 -6 -10 -14z"/>
<path d="M4670 6289 c0 -5 5 -7 10 -4 6 3 10 8 10 11 0 2 -4 4 -10 4 -5 0 -10
-5 -10 -11z"/>
<path d="M5846 6284 c-4 -10 -1 -14 6 -12 15 5 23 28 10 28 -5 0 -13 -7 -16
-16z"/>
<path d="M5870 6259 c0 -5 5 -7 10 -4 6 3 10 8 10 11 0 2 -4 4 -10 4 -5 0 -10
-5 -10 -11z"/>
<path d="M5228 6213 c6 -2 18 -2 25 0 6 3 1 5 -13 5 -14 0 -19 -2 -12 -5z"/>
<path d="M5260 6190 c-8 -5 -11 -12 -7 -16 4 -4 15 0 24 9 18 18 8 23 -17 7z"/>
<path d="M5194 6176 c-10 -8 -16 -17 -12 -21 4 -4 17 2 29 14 26 24 13 29 -17
7z"/>
<path d="M6873 6183 c-7 -2 -13 -16 -13 -29 0 -31 16 -23 22 11 3 14 5 25 4
24 0 0 -7 -3 -13 -6z"/>
<path d="M6896 6123 c-6 -14 -5 -15 5 -6 7 7 10 15 7 18 -3 3 -9 -2 -12 -12z"/>
<path d="M6976 6107 c3 -10 9 -15 12 -12 3 3 0 11 -7 18 -10 9 -11 8 -5 -6z"/>
<path d="M6920 6090 c0 -5 5 -10 10 -10 6 0 10 5 10 10 0 6 -4 10 -10 10 -5 0
-10 -4 -10 -10z"/>
<path d="M7056 6084 c-11 -7 -16 -17 -13 -21 4 -4 15 1 24 10 9 9 15 19 12 21
-2 2 -13 -2 -23 -10z"/>
<path d="M6965 5900 c-3 -5 -1 -10 4 -10 6 0 11 5 11 10 0 6 -2 10 -4 10 -3 0
-8 -4 -11 -10z"/>
<path d="M5247 5819 c15 -8 23 -23 26 -48 l4 -36 1 38 c1 20 7 37 12 37 6 0
10 -68 10 -185 0 -117 -4 -185 -10 -185 -5 0 -11 26 -12 58 l-2 57 -3 -50 c-3
-27 -11 -58 -20 -67 -15 -17 -13 -18 43 -18 51 1 57 2 42 14 -14 11 -18 29
-18 89 0 42 3 78 8 80 14 9 43 -9 62 -38 11 -17 20 -26 20 -22 0 4 -7 19 -16
32 -9 14 -12 25 -7 25 12 0 109 -159 106 -171 -2 -5 9 -9 24 -9 25 0 25 1 10
18 -9 10 -38 54 -64 98 l-48 79 28 27 c33 32 36 78 7 125 -27 44 -48 53 -142
59 -67 3 -79 2 -61 -7z m133 -19 c44 0 84 -85 61 -129 -12 -22 -70 -51 -102
-51 -17 0 -19 9 -19 88 0 92 4 106 28 97 7 -3 22 -5 32 -5z"/>
<path d="M5390 5776 c0 -2 8 -10 18 -17 15 -13 16 -12 3 4 -13 16 -21 21 -21
13z"/>
<path d="M6800 5779 c-42 -5 -50 -8 -33 -14 29 -9 37 -62 28 -185 -7 -103 -9
-110 -33 -110 -9 0 -12 -3 -6 -8 5 -5 36 -6 69 -2 46 6 55 9 38 15 -22 7 -23
11 -23 145 0 131 1 137 22 147 32 14 4 20 -62 12z"/>
<path d="M6625 5770 c-3 -5 3 -10 14 -10 20 0 21 -6 21 -107 0 -104 -1 -107
-18 -86 -9 12 -48 62 -87 112 l-70 91 -49 0 c-51 0 -53 -5 -14 -24 21 -11 23
-19 26 -116 4 -135 -2 -167 -31 -173 -12 -2 6 -5 41 -6 41 -1 61 3 57 9 -4 6
-14 9 -23 8 -15 -3 -17 11 -20 115 -1 64 1 117 5 117 4 -1 50 -57 102 -125 52
-69 97 -125 102 -125 4 0 7 21 6 48 0 26 0 95 1 155 2 100 3 107 22 107 11 0
20 5 20 10 0 6 -22 10 -49 10 -28 0 -53 -4 -56 -10z m-137 -40 c7 -11 8 -20 2
-20 -5 0 -14 9 -20 20 -6 11 -7 20 -3 20 5 0 14 -9 21 -20z m80 -105 c42 -58
35 -58 -12 0 -21 25 -34 45 -29 45 4 -1 23 -21 41 -45z m81 -110 c-3 -2 -16
10 -29 28 l-23 32 29 -27 c15 -15 26 -30 23 -33z"/>
<path d="M5600 5758 c25 -10 25 -11 23 -119 -2 -114 11 -171 42 -183 26 -10
114 -7 136 4 37 21 49 63 49 179 0 94 3 111 18 120 13 8 1 10 -48 10 -49 0
-59 -3 -42 -9 18 -8 22 -18 24 -57 l1 -48 7 50 c5 37 7 17 8 -76 2 -102 -1
-129 -13 -139 -8 -7 -15 -9 -15 -4 0 4 -5 3 -12 -4 -7 -7 -31 -12 -53 -12 -73
0 -89 39 -79 190 6 90 9 99 28 103 12 2 -6 4 -39 5 -50 0 -56 -2 -35 -10z"/>
<path d="M5921 5733 c1 -33 2 -34 8 -13 6 23 12 25 64 25 l57 0 -2 -90 -2 -90
-6 85 c-6 81 -6 79 -8 -48 -2 -129 -3 -134 -24 -140 -16 -5 -5 -9 37 -13 33
-3 64 -2 70 3 5 4 0 8 -13 8 -22 0 -23 1 -20 143 l3 142 41 3 c38 3 43 0 52
-25 10 -28 10 -28 11 10 l1 37 -135 0 -135 0 1 -37z m126 -210 c-3 -10 -5 -4
-5 12 0 17 2 24 5 18 2 -7 2 -21 0 -30z m0 -45 c-3 -8 -6 -5 -6 6 -1 11 2 17
5 13 3 -3 4 -12 1 -19z"/>
<path d="M6240 5757 c25 -12 25 -14 27 -151 1 -129 0 -139 -18 -143 -10 -3
-19 -10 -19 -15 0 -6 7 -7 16 -4 9 3 39 6 67 7 41 0 47 2 30 9 -22 9 -23 14
-23 150 0 115 3 140 14 140 8 0 18 5 21 10 4 6 -21 10 -67 10 -65 0 -70 -2
-48 -13z m47 -219 c-1 -40 -3 -8 -3 72 0 80 2 112 3 73 2 -40 2 -106 0 -145z"/>
<path d="M7491 5770 c-1 -3 -4 -18 -6 -34 -3 -20 -1 -26 6 -19 6 6 9 21 6 34
-2 13 -5 22 -6 19z"/>
<path d="M7480 5690 c0 -5 5 -10 10 -10 6 0 10 5 10 10 0 6 -4 10 -10 10 -5 0
-10 -4 -10 -10z"/>
<path d="M7480 5660 c0 -5 5 -10 10 -10 6 0 10 5 10 10 0 6 -4 10 -10 10 -5 0
-10 -4 -10 -10z"/>
<path d="M7480 5600 c0 -5 5 -10 11 -10 5 0 7 5 4 10 -3 6 -8 10 -11 10 -2 0
-4 -4 -4 -10z"/>
<path d="M5420 5514 c0 -6 7 -19 15 -30 8 -10 14 -14 14 -9 0 6 -6 19 -14 29
-8 11 -15 15 -15 10z"/>
<path d="M5450 5456 c0 -2 8 -10 18 -17 15 -13 16 -12 3 4 -13 16 -21 21 -21
13z"/>
<path d="M5920 5295 c0 -35 13 -47 23 -21 7 18 -3 56 -14 56 -5 0 -9 -16 -9
-35z"/>
<path d="M6000 5315 c7 -8 10 -24 7 -35 -3 -12 0 -20 8 -20 7 0 15 15 17 35 4
31 2 35 -20 35 -21 0 -22 -2 -12 -15z"/>
<path d="M6180 5312 c0 -10 7 -27 15 -38 14 -19 14 -19 15 3 0 28 -10 53 -21
53 -5 0 -9 -8 -9 -18z"/>
<path d="M5760 5286 c0 -19 5 -38 10 -41 6 -3 10 1 10 9 0 9 5 16 10 16 6 0
10 -4 10 -10 0 -5 4 -10 9 -10 5 0 8 14 6 30 -2 36 -15 53 -15 22 0 -12 -4
-22 -10 -22 -5 0 -10 6 -10 14 0 8 -4 18 -10 21 -6 4 -10 -8 -10 -29z"/>
<path d="M5840 5315 c0 -9 43 -55 52 -55 15 0 8 19 -14 40 -21 19 -38 26 -38
15z"/>
<path d="M6227 5313 c-4 -3 -7 -19 -7 -35 0 -40 22 -31 26 10 4 30 -4 40 -19
25z"/>
<path d="M7465 5310 c3 -5 8 -10 11 -10 2 0 4 5 4 10 0 6 -5 10 -11 10 -5 0
-7 -4 -4 -10z"/>
<path d="M6290 5291 c0 -26 10 -51 21 -51 10 0 12 31 3 54 -9 22 -24 20 -24
-3z"/>
<path d="M5684 5284 c3 -9 6 -24 6 -35 0 -10 4 -19 9 -19 15 0 19 36 6 53 -15
21 -29 22 -21 1z"/>
<path d="M6351 5269 c-14 -40 -14 -39 4 -39 8 0 15 6 15 13 0 6 3 22 6 35 10
34 -13 26 -25 -9z"/>
<path d="M5608 5285 c-9 -10 7 -58 21 -63 10 -3 11 2 6 19 -11 35 -20 50 -27
44z"/>
<path d="M5645 5263 c8 -31 13 -39 20 -31 9 9 -6 58 -17 58 -6 0 -7 -11 -3
-27z"/>
<path d="M6427 5283 c-2 -5 -7 -20 -11 -35 -7 -32 8 -46 23 -21 10 17 10 17
11 1 0 -30 17 -20 24 14 7 35 0 50 -14 28 -8 -13 -10 -12 -10 3 0 17 -15 24
-23 10z"/>
<path d="M6098 5273 c7 -3 16 -2 19 1 4 3 -2 6 -13 5 -11 0 -14 -3 -6 -6z"/>
<path d="M5547 5253 c-3 -5 3 -20 14 -31 21 -24 29 -27 29 -13 0 17 -37 54
-43 44z"/>
<path d="M6496 5228 c-3 -17 -4 -33 -2 -36 10 -9 32 23 32 46 0 33 -23 27 -30
-10z"/>
<path d="M6990 5251 c0 -6 7 -11 15 -11 8 0 15 -7 15 -15 0 -8 5 -15 11 -15
16 0 6 21 -19 38 -14 9 -22 10 -22 3z"/>
<path d="M7460 5239 c0 -5 5 -7 10 -4 6 3 10 8 10 11 0 2 -4 4 -10 4 -5 0 -10
-5 -10 -11z"/>
<path d="M6577 5229 c-17 -10 -25 -59 -9 -59 7 0 34 61 29 66 -1 1 -10 -2 -20
-7z"/>
<path d="M5460 5212 c0 -19 18 -42 32 -42 5 0 2 14 -7 30 -18 34 -25 38 -25
12z"/>
<path d="M5805 5150 c-3 -5 -1 -10 4 -10 6 0 11 5 11 10 0 6 -2 10 -4 10 -3 0
-8 -4 -11 -10z"/>
<path d="M5833 5145 c2 -5 14 -11 26 -11 12 -1 36 -14 53 -30 24 -23 28 -25
20 -8 -6 12 -18 24 -27 28 -8 3 -15 12 -15 21 0 11 -9 15 -30 13 -17 -1 -29
-7 -27 -13z"/>
<path d="M5918 5148 c17 -8 26 -8 34 0 9 9 4 12 -22 11 -33 0 -34 -1 -12 -11z"/>
<path d="M7460 5149 c0 -5 5 -7 10 -4 6 3 10 8 10 11 0 2 -4 4 -10 4 -5 0 -10
-5 -10 -11z"/>
<path d="M7460 5120 c0 -5 5 -10 10 -10 6 0 10 5 10 10 0 6 -4 10 -10 10 -5 0
-10 -4 -10 -10z"/>
<path d="M5590 5110 c0 -5 4 -10 9 -10 6 0 13 5 16 10 3 6 -1 10 -9 10 -9 0
-16 -4 -16 -10z"/>
<path d="M6122 5090 c-21 -17 -33 -19 -98 -13 -41 3 -74 2 -74 -2 0 -4 15 -24
33 -44 17 -20 39 -47 48 -61 10 -14 20 -21 25 -16 5 5 4 11 -3 13 -23 8 -14
27 44 85 58 58 68 74 25 38z"/>
<path d="M7460 5090 c0 -5 5 -10 10 -10 6 0 10 5 10 10 0 6 -4 10 -10 10 -5 0
-10 -4 -10 -10z"/>
<path d="M7456 5061 c-4 -5 -2 -12 3 -15 5 -4 12 -2 15 3 4 5 2 12 -3 15 -5 4
-12 2 -15 -3z"/>
<path d="M7455 5020 c-3 -5 -1 -10 4 -10 6 0 11 5 11 10 0 6 -2 10 -4 10 -3 0
-8 -4 -11 -10z"/>
<path d="M7450 4990 c0 -5 4 -10 9 -10 6 0 13 5 16 10 3 6 -1 10 -9 10 -9 0
-16 -4 -16 -10z"/>
<path d="M6825 4970 c3 -5 11 -10 16 -10 6 0 7 5 4 10 -3 6 -11 10 -16 10 -6
0 -7 -4 -4 -10z"/>
<path d="M7446 4934 c-4 -14 -5 -28 -3 -31 3 -2 8 8 11 23 4 14 5 28 3 31 -3
2 -8 -8 -11 -23z"/>
<path d="M6785 4900 c3 -5 8 -10 11 -10 2 0 4 5 4 10 0 6 -5 10 -11 10 -5 0
-7 -4 -4 -10z"/>
<path d="M5784 4835 c-9 -22 5 -37 29 -29 30 9 32 11 17 29 -16 19 -39 19 -46
0z"/>
<path d="M7386 4719 c-20 -39 -35 -74 -32 -76 2 -2 20 29 39 69 20 40 34 74
32 76 -1 2 -19 -29 -39 -69z"/>
<path d="M5030 4750 c0 -5 5 -10 10 -10 6 0 10 5 10 10 0 6 -4 10 -10 10 -5 0
-10 -4 -10 -10z"/>
<path d="M7350 4749 c0 -5 5 -7 10 -4 6 3 10 8 10 11 0 2 -4 4 -10 4 -5 0 -10
-5 -10 -11z"/>
<path d="M4990 4714 c0 -14 3 -14 15 -4 8 7 15 14 15 16 0 2 -7 4 -15 4 -8 0
-15 -7 -15 -16z"/>
<path d="M5570 4662 c0 -5 7 -15 15 -22 8 -7 15 -9 15 -6 0 4 -7 14 -15 22 -8
9 -15 11 -15 6z"/>
<path d="M6170 4641 c0 -14 29 -34 67 -47 l35 -12 -21 19 c-12 11 -26 17 -31
14 -5 -3 -15 3 -22 15 -13 21 -28 27 -28 11z"/>
<path d="M6905 4630 c3 -5 8 -10 11 -10 2 0 4 5 4 10 0 6 -5 10 -11 10 -5 0
-7 -4 -4 -10z"/>
<path d="M5612 4605 c-7 -8 -9 -15 -4 -15 5 0 15 7 22 15 16 19 -1 19 -18 0z"/>
<path d="M6290 4605 c0 -8 5 -15 10 -15 6 0 10 7 10 15 0 8 -4 15 -10 15 -5 0
-10 -7 -10 -15z"/>
<path d="M6560 4610 c0 -5 5 -10 10 -10 6 0 10 5 10 10 0 6 -4 10 -10 10 -5 0
-10 -4 -10 -10z"/>
<path d="M5568 4603 c7 -3 16 -2 19 1 4 3 -2 6 -13 5 -11 0 -14 -3 -6 -6z"/>
<path d="M7306 4566 c-21 -36 -33 -46 -59 -49 l-32 -4 36 -1 c38 -2 57 15 79
73 14 38 5 30 -24 -19z"/>
<path d="M6356 4585 c-3 -8 -1 -15 4 -15 6 0 10 7 10 15 0 8 -2 15 -4 15 -2 0
-6 -7 -10 -15z"/>
<path d="M6580 4580 c0 -5 5 -10 11 -10 5 0 7 5 4 10 -3 6 -8 10 -11 10 -2 0
-4 -4 -4 -10z"/>
<path d="M4808 4528 c4 -4 37 -10 72 -13 36 -3 61 -3 55 0 -19 9 -136 22 -127
13z"/>
<path d="M7173 4503 c9 -2 23 -2 30 0 6 3 -1 5 -18 5 -16 0 -22 -2 -12 -5z"/>
<path d="M6173 4463 c48 -2 126 -2 175 0 48 1 8 3 -88 3 -96 0 -136 -2 -87 -3z"/>
</g>
</svg>
