<?xml version="1.0" standalone="no"?>
<!DOCTYPE svg PUBLIC "-//W3C//DTD SVG 20010904//EN"
 "http://www.w3.org/TR/2001/REC-SVG-20010904/DTD/svg10.dtd">
<svg version="1.0" xmlns="http://www.w3.org/2000/svg"
 width="1829.000000pt" height="1858.000000pt" viewBox="0 0 1829.000000 1858.000000"
 preserveAspectRatio="xMidYMid meet">

<g transform="translate(0.000000,1858.000000) scale(0.100000,-0.100000)"
fill="#000000" stroke="none">
<path d="M2020 10552 c0 -4 -11 -86 -25 -182 -80 -572 -92 -1140 -39 -1757 l7
-73 2068 0 2068 0 -120 163 c-151 202 -419 604 -535 802 -173 296 -346 655
-449 935 l-43 115 -1466 3 c-806 1 -1466 -1 -1466 -6z"/>
<path d="M7445 10523 c-61 -54 -187 -147 -249 -183 l-56 -31 90 -178 c280
-560 636 -1064 1044 -1478 l111 -113 4141 0 4142 0 6 38 c33 206 60 777 52
1062 -10 321 -46 768 -72 893 l-6 27 -4581 0 -4582 -1 -40 -36z"/>
</g>
</svg>
